<?xml version="1.0" encoding="utf-8"?>
<!-- Generator: Adobe Illustrator 19.0.0, SVG Export Plug-In . SVG Version: 6.00 Build 0)  -->
<svg version="1.1" id="Layer_1" xmlns="http://www.w3.org/2000/svg" xmlns:xlink="http://www.w3.org/1999/xlink" x="0px" y="0px"
	 width="40px" height="40px" viewBox="0 0 40 40" enable-background="new 0 0 40 40" xml:space="preserve">
<g id="XMLID_2949_">
	<defs>
		<circle id="XMLID_2992_" cx="20.5" cy="20" r="20"/>
	</defs>
	<clipPath id="XMLID_2_">
		<use xlink:href="#XMLID_2992_"  overflow="visible"/>
	</clipPath>
	<g id="XMLID_6889_" clip-path="url(#XMLID_2_)">
		<g id="XMLID_6979_">
			
				<path id="XMLID_6985_" fill="#C4CBCE" stroke="#929EAC" stroke-width="2" stroke-linecap="round" stroke-linejoin="round" stroke-miterlimit="10" d="
				M8.5,12.4l1.9,5.1c0.2,0.4,0.5,0.7,1,0.8l0.9,0.2l1.4-3.3c0.2-0.5,0.7-0.8,1.2-0.8h3.6c0.2,0,0.4-0.1,0.6-0.2l2-1.1
				c0.1,0,0.2-0.1,0.3-0.2l4.5-4.1c0.5-0.4,0.6-1.1,0.3-1.6l-1.5-2.8C23.3,4.2,21.9,4,20.5,4c-4,0-7.7,1.5-10.5,4l-1.5,3.5
				C8.4,11.8,8.3,12.1,8.5,12.4z"/>
			
				<path id="XMLID_6984_" fill="#DDE6ED" stroke="#929EAC" stroke-width="2" stroke-linecap="round" stroke-linejoin="round" stroke-miterlimit="10" d="
				M21.2,31.5L18,28.2c-0.4-0.4-0.5-1-0.2-1.4l2.1-4.8h-2.2c-0.5,0-1-0.3-1.2-0.8l-0.6-1.3c-0.2-0.4-0.5-0.6-0.9-0.7l-2.7-0.6v0v0
				l-0.9-0.2c-0.4-0.1-0.8-0.4-1-0.8l-1.9-5.1c-0.1-0.3-0.1-0.7,0-1L10,8c-3.4,2.9-5.5,7.2-5.5,12c0,8.8,7.2,16,16,16
				c0.1,0,0.3,0,0.4,0l0.6-3.3C21.6,32.3,21.5,31.9,21.2,31.5z"/>
			
				<path id="XMLID_6982_" fill="#C4CBCE" stroke="#929EAC" stroke-width="2" stroke-linecap="round" stroke-linejoin="round" stroke-miterlimit="10" d="
				M25.3,21.3l-3.8-0.5c-0.6-0.1-1.2,0.2-1.4,0.8l-0.2,0.4l-2.1,4.8c-0.2,0.5-0.1,1.1,0.2,1.4l3.1,3.4c0.3,0.3,0.4,0.7,0.3,1.2
				L20.9,36c6.1-0.1,11.4-3.7,14-8.9l-9-5.6C25.7,21.4,25.5,21.3,25.3,21.3z"/>
			
				<path id="XMLID_6980_" fill="#DDE6ED" stroke="#929EAC" stroke-width="2" stroke-linecap="round" stroke-linejoin="round" stroke-miterlimit="10" d="
				M24.6,4.5l1.5,2.8c0.3,0.5,0.2,1.2-0.3,1.6L21.4,13c-0.1,0.1-0.2,0.1-0.3,0.2l-2,1.1c-0.2,0.1-0.4,0.2-0.6,0.2h-3.6
				c-0.5,0-1,0.3-1.2,0.8l-1.4,3.3l2.7,0.6c0.4,0.1,0.7,0.4,0.9,0.7l0.6,1.3c0.2,0.5,0.7,0.8,1.2,0.8h2.2l0.2-0.4
				c0.2-0.5,0.8-0.9,1.4-0.8l3.8,0.5c0.2,0,0.4,0.1,0.5,0.2l9,5.6c1.1-2.1,1.7-4.5,1.7-7.1C36.5,12.6,31.4,6.3,24.6,4.5z"/>
		</g>
		<rect id="XMLID_6895_" x="-12.9" y="-13.4" fill="none" width="66.7" height="66.7"/>
	</g>
</g>
</svg>
