<?xml version="1.0" encoding="utf-8"?>
<!-- Generator: Adobe Illustrator 22.0.1, SVG Export Plug-In . SVG Version: 6.00 Build 0)  -->
<svg version="1.1" id="Layer_1" xmlns="http://www.w3.org/2000/svg" xmlns:xlink="http://www.w3.org/1999/xlink" x="0px" y="0px"
	 viewBox="0 0 126 24" style="enable-background:new 0 0 126 24;" xml:space="preserve">
<style type="text/css">
	.st0{display:none;}
	.st1{display:inline;}
	.st2{fill:#0068BD;}
	.st3{clip-path:url(#SVGID_3_);fill:#0068BD;}
	.st4{fill:#00B332;}
	.st5{fill:#0050F0;}
	.st6{fill:#36052E;}
	.st7{fill:#0BA29C;}
	.st8{fill:#CC0000;}
</style>
<g id="Layer_3" class="st0">
	<g class="st1">
		<path class="st2" d="M116.9,19.2v-2.3h10.8v2.6l-7.6,11.1V31h7.6v2.3h-10.8v-2.5l7.6-11.1v-0.5C124.5,19.2,116.9,19.2,116.9,19.2z
			"/>
		<path class="st2" d="M130.1,19.3v-2.8h2.6v2.8H130.1z M130.1,33.3v-12h2.6v12H130.1z"/>
		<path class="st2" d="M135.8,33.3v-17h2.6v17H135.8z"/>
		<path class="st2" d="M140.3,21.3h2.7l2.3,9.8h0.8l2.4-9.8h2.7l-3.1,12h-4.6L140.3,21.3z"/>
		<path class="st2" d="M161.3,31.1L162,31v1.9c-1.8,0.4-3.4,0.6-4.8,0.6c-1.8,0-3-0.5-3.8-1.5s-1.2-2.5-1.2-4.7
			c0-4.2,1.7-6.4,5.2-6.4c3.4,0,5,1.8,5,5.5l-0.2,1.9h-7.4c0,1,0.2,1.7,0.6,2.2c0.4,0.5,1.2,0.7,2.3,0.7
			C158.9,31.3,160.1,31.2,161.3,31.1z M159.9,26.4c0-1.2-0.2-2-0.6-2.5c-0.4-0.5-1-0.7-1.9-0.7s-1.5,0.2-2,0.7
			c-0.4,0.5-0.6,1.3-0.6,2.4h5.1V26.4z"/>
		<path class="st2" d="M164.7,33.3v-12h2.6v1.4c1.4-0.9,2.7-1.4,4.1-1.7v2.6c-1.4,0.3-2.5,0.6-3.5,1.1l-0.5,0.2v8.4H164.7z"/>
		<path class="st2" d="M181.6,31.1l0.7-0.1v1.9c-1.8,0.4-3.4,0.6-4.8,0.6c-1.8,0-3-0.5-3.8-1.5s-1.2-2.5-1.2-4.7
			c0-4.2,1.7-6.4,5.2-6.4c3.4,0,5,1.8,5,5.5l-0.2,1.9h-7.4c0,1,0.2,1.7,0.6,2.2c0.4,0.5,1.2,0.7,2.3,0.7
			C179.2,31.3,180.4,31.2,181.6,31.1z M180.1,26.4c0-1.2-0.2-2-0.6-2.5c-0.4-0.5-1-0.7-1.9-0.7s-1.5,0.2-2,0.7
			c-0.4,0.5-0.6,1.3-0.6,2.4h5.1V26.4z"/>
		<path class="st2" d="M187.6,33.3H185v-12h2.6V22c1.2-0.7,2.3-1,3.3-1c1.6,0,2.7,0.5,3.3,1.4s0.9,2.4,0.9,4.5v6.4h-2.6v-6.4
			c0-1.3-0.1-2.2-0.4-2.8c-0.3-0.5-0.9-0.8-1.7-0.8s-1.6,0.2-2.3,0.5l-0.4,0.1v9.4H187.6z"/>
		<path class="st2" d="M119.5,55.4h-2.7V39h2.7v7.4l2.4-0.2l3.4-7.2h3l-4.1,8.2l4.2,8.2h-2.9l-3.5-6.9l-2.4,0.2L119.5,55.4
			L119.5,55.4z"/>
		<path class="st2" d="M130.2,55.4v-12h2.6v1.4c1.4-0.9,2.7-1.4,4.1-1.7v2.6c-1.4,0.3-2.5,0.6-3.5,1.1l-0.5,0.2v8.4H130.2z"/>
		<path class="st2" d="M145.8,43.4h2.6v12h-2.6v-0.7c-1.2,0.7-2.2,1-3.2,1c-1.6,0-2.7-0.4-3.3-1.3c-0.6-0.9-0.8-2.4-0.8-4.7v-6.3
			h2.6v6.3c0,1.4,0.1,2.4,0.4,2.9c0.2,0.5,0.8,0.7,1.7,0.7s1.7-0.2,2.4-0.5l0.4-0.1v-9.3H145.8z"/>
		<path class="st2" d="M151.4,41.4v-2.8h2.6v2.8H151.4z M151.4,55.4v-12h2.6v12H151.4z"/>
		<path class="st2" d="M165.2,45.9c-1.9-0.3-3.3-0.4-4.1-0.4s-1.4,0.1-1.8,0.3c-0.3,0.2-0.5,0.5-0.5,0.9s0.2,0.7,0.5,0.9
			c0.4,0.2,1.2,0.4,2.5,0.6c1.3,0.2,2.3,0.6,2.8,1.1c0.6,0.5,0.8,1.4,0.8,2.6s-0.4,2.2-1.2,2.8s-2,0.9-3.5,0.9c-1,0-2.2-0.1-3.7-0.4
			l-0.7-0.1l0.2-2.1c1.9,0.3,3.3,0.4,4.1,0.4s1.4-0.1,1.8-0.3c0.4-0.2,0.5-0.6,0.5-1c0-0.5-0.2-0.8-0.5-1s-1.2-0.4-2.5-0.6
			s-2.3-0.6-2.9-1c-0.6-0.5-0.9-1.3-0.9-2.5s0.4-2.1,1.3-2.8c0.8-0.6,1.9-0.9,3.2-0.9c1,0,2.3,0.1,3.8,0.4l0.7,0.1L165.2,45.9z"/>
		<g>
			<g>
				<path id="SVGID_1_" class="st2" d="M90.9,55.4h5.6c0.3,0,0.6-0.2,0.6-0.6V54C95,54.6,93,55,90.9,55.4 M82,53.2v1.6
					c0,0.1,0,0.1,0,0.2c5.6-0.2,10.6-1.1,15-2.4v-1.3C92.2,52.5,87.1,53.1,82,53.2 M82,50v1.8c5.7,0,10.6-0.8,15-1.9v-1.3
					C92.2,49.7,87.1,50.1,82,50 M82,46.8v1.8c5.7,0.1,10.6-0.5,15-1.4v-1.3C92.2,46.8,87.1,47.1,82,46.8 M82,43.7v1.8
					c5.7,0.3,10.6-0.1,15-0.9v-1.3C92.2,44,87.1,44.1,82,43.7 M106.1,43.1h2.4c0.3,0,0.6-0.2,0.6-0.6v-0.6
					C108.3,42.2,106.8,42.8,106.1,43.1 M70,42.6c0,0.3,0.2,0.6,0.6,0.6H78c-2.4-0.4-5.5-0.9-8-1.5V42.6z M97.6,43.1h5.1
					c2.4-0.7,4.5-1.6,6.4-2.5v-0.8C105.4,41.4,101.6,42.5,97.6,43.1 M70,38.1v2.1c18,4.6,31.1,1.6,39.1-1.8v-0.8
					C97.1,42.2,83.6,41.8,70,38.1 M70,36.6c18,5.2,31.1,2.7,39.1-0.6v-0.8c-12,4.3-25.5,3.4-39.1-0.7V36.6z M70,33
					c18,5.8,31.1,3.7,39.1,0.7v-0.8c-12,3.9-25.5,2.6-39.1-1.9V33z M70.6,28.6c-0.3,0-0.6,0.3-0.6,0.6v0.3c18,6.4,31.1,4.7,39.1,2
					v-0.8c-11,3.2-23.2,2-35.6-2L70.6,28.6L70.6,28.6z M82,28.6h-4.4c13.8,3.8,24.7,2.6,31.4,0.5c0-0.3-0.3-0.5-0.6-0.5h-0.7
					c-8.1,1.8-16.8,1.3-25.8-0.9L82,28.6L82,28.6z M82,26.4c5.7,1.4,10.6,2,15,2V27c-4.9-0.2-9.9-1.1-15-2.5V26.4z M82,23.2
					c5.7,1.6,10.6,2.3,15,2.5v-1.3c-4.9-0.3-9.9-1.4-15-3V23.2z M82,20c5.7,1.8,10.6,2.7,15,3v-1.3c-4.9-0.5-9.9-1.7-15-3.5V20z
					 M82.6,16.3c-0.3,0-0.5,0.2-0.5,0.5c5.6,2,10.6,3,15,3.4V19c-3.7-0.5-7.4-1.4-11.3-2.6h-3.2V16.3z M89.3,16.3
					c2.3,0.6,5.7,1.1,7.7,1.4v-0.8c0-0.3-0.2-0.6-0.6-0.6H89.3z"/>
			</g>
			<g>
				<defs>
					<path id="SVGID_2_" d="M90.9,55.4h5.6c0.3,0,0.6-0.2,0.6-0.6V54C95,54.6,93,55,90.9,55.4 M82,53.2v1.6c0,0.1,0,0.1,0,0.2
						c5.6-0.2,10.6-1.1,15-2.4v-1.3C92.2,52.5,87.1,53.1,82,53.2 M82,50v1.8c5.7,0,10.6-0.8,15-1.9v-1.3C92.2,49.7,87.1,50.1,82,50
						 M82,46.8v1.8c5.7,0.1,10.6-0.5,15-1.4v-1.3C92.2,46.8,87.1,47.1,82,46.8 M82,43.7v1.8c5.7,0.3,10.6-0.1,15-0.9v-1.3
						C92.2,44,87.1,44.1,82,43.7 M106.1,43.1h2.4c0.3,0,0.6-0.2,0.6-0.6v-0.6C108.3,42.2,106.8,42.8,106.1,43.1 M70,42.6
						c0,0.3,0.2,0.6,0.6,0.6H78c-2.4-0.4-5.5-0.9-8-1.5V42.6z M97.6,43.1h5.1c2.4-0.7,4.5-1.6,6.4-2.5v-0.8
						C105.4,41.4,101.6,42.5,97.6,43.1 M70,38.1v2.1c18,4.6,31.1,1.6,39.1-1.8v-0.8C97.1,42.2,83.6,41.8,70,38.1 M70,36.6
						c18,5.2,31.1,2.7,39.1-0.6v-0.8c-12,4.3-25.5,3.4-39.1-0.7V36.6z M70,33c18,5.8,31.1,3.7,39.1,0.7v-0.8
						c-12,3.9-25.5,2.6-39.1-1.9V33z M70.6,28.6c-0.3,0-0.6,0.3-0.6,0.6v0.3c18,6.4,31.1,4.7,39.1,2v-0.8c-11,3.2-23.2,2-35.6-2
						L70.6,28.6L70.6,28.6z M82,28.6h-4.4c13.8,3.8,24.7,2.6,31.4,0.5c0-0.3-0.3-0.5-0.6-0.5h-0.7c-8.1,1.8-16.8,1.3-25.8-0.9
						L82,28.6L82,28.6z M82,26.4c5.7,1.4,10.6,2,15,2V27c-4.9-0.2-9.9-1.1-15-2.5V26.4z M82,23.2c5.7,1.6,10.6,2.3,15,2.5v-1.3
						c-4.9-0.3-9.9-1.4-15-3V23.2z M82,20c5.7,1.8,10.6,2.7,15,3v-1.3c-4.9-0.5-9.9-1.7-15-3.5V20z M82.6,16.3
						c-0.3,0-0.5,0.2-0.5,0.5c5.6,2,10.6,3,15,3.4V19c-3.7-0.5-7.4-1.4-11.3-2.6h-3.2V16.3z M89.3,16.3c2.3,0.6,5.7,1.1,7.7,1.4
						v-0.8c0-0.3-0.2-0.6-0.6-0.6H89.3z"/>
				</defs>
				<clipPath id="SVGID_3_">
					<use xlink:href="#SVGID_2_"  style="overflow:visible;"/>
				</clipPath>
				<rect x="70" y="16.3" class="st3" width="39" height="39"/>
			</g>
		</g>
	</g>
</g>
<g id="Basis" class="st0">
	<g class="st1">
		<g>
			<path class="st4" d="M132.7,8.8h-2.3l-0.3,1.4l0,0c-0.3-0.8-1-1.6-2.7-1.6c-3.4,0-5.1,3.2-5.1,5.5c0,1.7,0.9,3.7,3.3,3.7
				c1.3,0,2.3-0.5,3-1.4l0,0l-0.3,1.2h2.3L132.7,8.8z M137.5,15.6c-1.2,0-1.7-0.8-1.7-1.9c0-1.5,1.2-2.9,2.7-2.9
				c1.2,0,1.7,0.8,1.7,1.9C140.2,14.2,139,15.6,137.5,15.6 M143.6,8.8h-2.3l-0.3,1.4l0,0c-0.3-0.8-1-1.6-2.7-1.6
				c-3.4,0-5.1,3.2-5.1,5.5c0,1.7,0.9,3.7,3.3,3.7c1.3,0,2.3-0.5,3-1.4l0,0l-0.3,1.2h2.3L143.6,8.8z M126.6,15.6
				c-1.2,0-1.7-0.8-1.7-1.9c0-1.5,1.2-2.9,2.7-2.9c1.2,0,1.7,0.8,1.7,1.9C129.3,14.2,128.1,15.6,126.6,15.6 M143.7,17.5h2.5L149,5.3
				h-2.5L143.7,17.5z M97,17.5h2.5l1.1-4.6c0.2-1.1,1.1-2.1,2.3-2.1c1,0,1.3,0.6,1.3,1.3c0,0.3-0.1,0.7-0.1,0.9l-1.1,4.5h2.5
				l1.1-4.7c0.1-0.5,0.2-1,0.2-1.4c0-1.6-0.8-2.8-2.7-2.8c-1.3,0-2.1,0.5-2.9,1.4l0,0l0.3-1.2h-2.3L97,17.5z M111.3,17.7
				c1.2,0,2.1-0.4,2.6-0.9l-0.7-1.7c-0.3,0.3-0.7,0.5-1.2,0.5c-0.6,0-1-0.3-1-0.9c0-0.2,0-0.4,0.1-0.6l0.8-3.2h2.9l0.5-2h-2.9
				l0.5-2.4h-2.4L110,8.9h-1l-0.5,2h1l-0.7,3c-0.1,0.4-0.2,0.8-0.2,1.2C108.4,16.7,109.5,17.7,111.3,17.7 M114.8,17.5h2.5l1-4.5
				c0.3-1.3,1.3-2,2.5-2c0.3,0,0.6,0.1,0.9,0.2l1.1-2.4c-0.3-0.1-0.7-0.2-1.1-0.2c-1.2,0-2.3,0.7-2.9,1.7l0,0l0.3-1.5h-2.3
				L114.8,17.5z M92.7,10.6c0.9,0,1.5,0.5,1.5,1.7h-3.9C90.8,11.1,91.8,10.6,92.7,10.6 M91.8,17.7c1.6,0,2.9-0.6,3.8-1.4l-1.4-1.5
				c-0.5,0.5-1.3,0.8-2.1,0.8c-1,0-2-0.5-2.1-1.6h6.2c0.2-0.6,0.3-1.3,0.3-1.9c0-1.9-1-3.5-3.6-3.5c-3.4,0-5.2,2.8-5.2,5.3
				C87.7,15.8,88.9,17.7,91.8,17.7 M82.3,17.7c1.7,0,3.1-0.6,4.3-1.5l-1.3-1.8c-0.7,0.6-1.7,1-2.6,1c-1.6,0-2.6-1.1-2.6-2.7
				c0-2.3,2-4.5,4.2-4.5c1,0,1.8,0.5,2.3,1.1l1.9-1.6c-0.8-1-1.8-1.8-3.9-1.8c-4.5,0-7.1,3.8-7.1,7C77.3,15.2,78.7,17.7,82.3,17.7"
				/>
			<path class="st4" d="M90.1,32.8h5.3c2.6,0,4.6-1.7,4.6-3.8c0-0.9-0.5-1.8-1.3-2.1c1-0.6,1.7-1.8,1.7-2.9c0-1.4-1-2.7-3.2-2.7
				h-4.4L90.1,32.8z M136.2,25.8c0.9,0,1.5,0.5,1.5,1.7h-3.9C134.3,26.3,135.3,25.8,136.2,25.8 M135.3,33c1.6,0,2.9-0.6,3.8-1.4
				l-1.4-1.5c-0.5,0.5-1.3,0.8-2.1,0.8c-1,0-2-0.5-2.1-1.6h6.2c0.2-0.6,0.3-1.3,0.3-1.9c0-1.8-1-3.5-3.6-3.5c-3.4,0-5.2,2.8-5.2,5.3
				C131.2,31.1,132.4,33,135.3,33 M126.4,25.8c0.9,0,1.5,0.5,1.5,1.7H124C124.5,26.3,125.5,25.8,126.4,25.8 M125.6,33
				c1.6,0,2.9-0.6,3.8-1.4l-1.4-1.5c-0.5,0.5-1.3,0.8-2.1,0.8c-1,0-2-0.5-2.1-1.6h6.2c0.2-0.6,0.3-1.3,0.3-1.9c0-1.8-1-3.5-3.6-3.5
				c-3.4,0-5.2,2.8-5.2,5.3C121.5,31.1,122.6,33,125.6,33 M106.2,25.8c0.9,0,1.5,0.5,1.5,1.7h-3.9C104.3,26.3,105.3,25.8,106.2,25.8
				 M105.4,33c1.6,0,2.9-0.6,3.8-1.4l-1.4-1.5c-0.5,0.5-1.3,0.8-2.1,0.8c-1,0-2-0.5-2.1-1.6h6.2c0.2-0.6,0.3-1.3,0.3-1.9
				c0-1.8-1-3.5-3.6-3.5c-3.4,0-5.2,2.8-5.2,5.3C101.3,31.1,102.4,33,105.4,33 M115.8,20.6h-2.5l-2.8,12.2h2.5l1.1-4.6
				c0.2-1.1,1.1-2.1,2.3-2.1c1,0,1.3,0.6,1.3,1.3c0,0.3-0.1,0.7-0.1,0.9l-1.1,4.5h2.5l1.1-4.7c0.1-0.5,0.2-1,0.2-1.4
				c0-1.6-0.8-2.8-2.7-2.8c-1.2,0-2,0.5-2.8,1.3l0,0L115.8,20.6z M140.5,32.8h2.5l1-4.5c0.3-1.3,1.3-2,2.5-2c0.3,0,0.6,0.1,0.9,0.2
				l1.1-2.4c-0.3-0.1-0.7-0.2-1.1-0.2c-1.2,0-2.3,0.7-2.9,1.7l0.3-1.5h-2.3L140.5,32.8z M93.3,30.6l0.6-2.7h2c0.9,0,1.4,0.3,1.4,1.1
				c0,1-1,1.6-2,1.6C95.3,30.6,93.3,30.6,93.3,30.6z M94.3,26l0.6-2.5h1.9c0.7,0,1.1,0.4,1.1,1c0,0.9-0.9,1.5-1.6,1.5H94.3z"/>
		</g>
		<g>
			<path class="st4" d="M132.8-9.2c0-9.2,9.4-15.7,23.6-17.8c-0.4,1.8-0.8,3.5-1.2,5.3c-10.1,1.4-16.8,6.1-16.8,12.6
				c0,4.3,3,6.1,5.8,6.3l-0.9,4C138.3,0.9,132.8-2.2,132.8-9.2"/>
			<path class="st5" d="M155-10.7c1.6,0,2.5,0.9,2.5,2.6c0,3-2.5,5-6.5,5.3l1.6-7.4C153.4-10.5,154.3-10.7,155-10.7 M162.7-8.7
				c0-3.3-1.8-5.6-5.5-5.6c-1.4,0-2.8,0.3-3.7,0.8l1.4-6.2c-1.5,0.2-4.2,0.8-5.3,1.2l-4.4,19.7h2.9C157.1,1.2,162.6-3.1,162.7-8.7"
				/>
		</g>
	</g>
</g>
<g id="Laag_1" class="st0">
	<g class="st1">
		<g>
			<path class="st6" d="M86.4,2.9L81,4.8l0.2,0.5c1-0.3,1.5-0.5,1.7,0.2c0.8,2.3,2.3,6.3,2.8,7.7c0.3,0.7,0.1,0.9-1.2,1.4l0.2,0.5
				l5.4-1.9l-0.2-0.5c-1.3,0.4-1.5,0.3-1.8-0.4c-0.8-2.2-1.7-4.7-2.7-7.4c-0.3-0.8-0.3-1,1.1-1.5L86.4,2.9z"/>
			<path class="st6" d="M102.6,7.5l-0.8-4l-1.4,0.3L100.2,3l1.4-0.3l-0.3-1.6l1.4-1.2l0.7-0.1l0.5,2.5l2.5-0.5l0.1,0.5l-0.7,0.5
				l-1.7,0.3l0.6,3.1c0.3,1.8,0.7,2.1,1.4,2c0.3-0.1,0.6-0.2,1.3-0.5l0.3,0.5l-2.4,1.3C103.7,9.7,102.9,8.8,102.6,7.5z"/>
			<path class="st6" d="M112.8,8.2c-1.3,0.2-2.3,0-2.9-0.6c-0.8-0.7-1.4-1.7-1.5-2.8c-0.3-2.2,0.9-3.9,3.1-4.2
				c2-0.3,3.2,0.7,3.6,3.2l-4.5,0.6c0.3,2,1.3,2.8,2.6,2.7c0.6-0.1,1-0.3,1.9-1.1l0.4,0.5l-2,1.6C113.1,8.1,113,8.1,112.8,8.2z
				 M110.5,3.7l1.8-0.2c0.4,0,0.5-0.3,0.4-0.9c-0.1-0.9-0.5-1.4-1.2-1.3C110.5,1.4,110.3,2.1,110.5,3.7z"/>
			<path class="st6" d="M138.4,0.1c1.5,0.1,2.6,1.1,2.5,2.8c-0.1,2.4-2.1,4.4-4.4,4.2c-1.6-0.1-2.6-1.2-2.5-2.9
				C134.1,1.8,136.1-0.1,138.4,0.1z M138.6,3.5c0.2-0.9,0.6-2.9-0.4-3c-0.9-0.1-1.5,1.3-2,2.9c-0.3,1.2-0.4,3,0.4,3.1
				C137.4,6.7,138.3,5.2,138.6,3.5z"/>
			<path class="st6" d="M145.9,6.1l0.1,0.4l-3,1.1c-0.5-0.2-0.7-0.4-0.7-0.9c0-0.2,0-0.3,0.2-0.7c0,0,2-6,2.2-6.5s0.4-1.1-0.2-1.1
				c-0.4,0-0.9-0.1-0.9-0.1l0.1-0.4h3.6c0,0-2.5,7.3-2.7,7.9s0.1,0.6,0.4,0.5L145.9,6.1z"/>
			<path class="st6" d="M151.6-0.9c-0.7,0-1.2,0.6-1.2,1.2s0.6,0.9,1,0.9c0.5,0,1.2-0.4,1.2-1.2C152.5-0.8,151.8-0.9,151.6-0.9z"/>
			<path class="st6" d="M149.4,2.6c0.2,0,0.3,0.2,0.2,0.5S148.3,6.4,148,7c-0.2,0.6-0.2,1,0.5,1.3l2.9-0.9l-0.1-0.3
				c0,0-0.6,0.2-0.8,0.2s-0.6,0.1-0.4-0.5c0.4-1,1.7-4.2,1.7-4.2c0.2-0.4,0.1-0.5,0-0.6s-0.1-0.1-0.1-0.1l-3.4,0.4v0.3L149.4,2.6z"
				/>
			<path class="st6" d="M157.3,3.5c-0.6-0.2-1,0.2-1.1,0.7c-0.1,0.4,0,0.7,0.7,1.7s0.8,1.4,0.7,2c-0.2,1.1-1.3,1.8-3.4,1.3
				c-0.7-0.2-1.2-0.4-1.8-0.9L153,7l0.4,0.1c-0.3,2.2,2,2,2.3,0.7c0.2-0.7-0.5-1.5-1-2.2c-0.3-0.5-0.5-1-0.4-1.4
				c0.2-1,1.3-1.6,2.8-1.2c0.6,0.1,1.1,0.3,1.7,0.7l-0.5,1.2l-0.4-0.1C158.1,3.9,157.7,3.6,157.3,3.5z"/>
			<path class="st6" d="M121.3-0.1c0.6-0.5,1-0.4,1.2-0.1s0.5,0.6,0.7,0.9c0.1,0.1,0.1,0.3,0,0.5c-0.1,0.1-0.3,0.5-0.5,0.6
				s-0.5,0.1-0.6,0c-0.1,0-0.5-0.2-0.8-0.3c-1.1-0.4-1.4,0.6-1.4,1.3s0.3,3.1,0.3,3.1c0.1,0.7,0.5,0.7,0.8,0.7s0.7,0,0.7,0v0.5
				l-4.8,0.4V7c0,0,0.4-0.1,0.7-0.1c0.4-0.1,0.5-0.1,0.5-0.7l-0.3-4c-0.1-0.6-0.1-0.8-1.4-0.7V1.1l3.3-1.1l0.1,1.6
				C120.5,0.7,120.9,0.2,121.3-0.1z"/>
			<path class="st6" d="M127.2,10.2h0.6l-0.1,0.4l-4.7,0.1l0.1-0.4c0.9,0,1.1-0.1,1.3-1L126,1c0.1-0.6-0.1-0.6-0.5-0.5
				c-0.2,0.1-0.9,0.2-0.9,0.2l-0.1-0.4l3.5-0.9c0.3,0.2,0.4,0.2,0.3,0.5c-0.1,0.3-0.2,1.2-0.2,1.2c0.9-0.8,2.2-1.6,2.5-1.6
				c1.3,0,1.6,1.4,1.6,2.6c0,2.6-1.9,4.7-4,4.7c-0.5,0-0.8-0.1-1.2-0.4c0,0-0.3,1.7-0.6,3C126.3,10.1,126.4,10.2,127.2,10.2z
				 M127.9,1.9l-0.7,3.6c0.1,0.4,0.5,0.7,0.7,0.7c1.2,0,2-1.6,2.3-3.6c0.2-1.6-0.2-2-0.3-2C129.6,0.6,128.6,1.3,127.9,1.9z"/>
			<path class="st6" d="M98.3,5c0.4,1.5,0.6,2.1,1,3.9c0.2,0.8,0.4,0.9,1.5,0.7l0.1,0.5l-4.5,1.2l-0.1-0.5c0.9-0.3,1-0.5,0.8-1.3
				c-0.1-0.5-0.4-1.6-0.8-3c-0.4-1.5-0.6-2-1.4-1.8c-0.7,0.2-1.6,2.2-1.4,2.8c0.1,0.2,0.5,1.5,0.9,3c0.2,0.7,0.5,0.7,1.3,0.5
				l0.1,0.5l-4.5,1.3l-0.1-0.5c1-0.4,1.1-0.5,0.9-1.3S91.4,8.6,91,7.1c-0.2-0.6-0.3-0.9-1.4-0.5l-0.1-0.3l3.2-1.8l0.5,1.6
				c0.6-1.2,1.2-2.1,2.4-2.5C96.7,3.1,97.9,3.5,98.3,5z"/>
		</g>
		<g>
			<path class="st7" d="M99.6,31.2c-0.2-0.3-0.4-1.1-0.7-1.4c-0.3-0.3-0.4-0.2-0.4,0c-0.1,0.7,0.2,1.3,0.1,1.4
				c-0.1,0.2-0.5,0.3-0.9,0.5c-0.3,0.2-0.9,0.6,0,0.7c0.4,0.1,0.8-0.1,1.1-0.3c0.2-0.1,0.4-0.3,0.7-0.1c0.9,0.5,1.5,1.4,2.2,2.1
				c1.8,1.5,4.7,3,6.4,1.6v-0.1C107.1,34.5,103.8,32.4,99.6,31.2C99.6,31.3,99.6,31.3,99.6,31.2z"/>
			<path class="st7" d="M118.8,37.6c0.2,0,0.5,0,0.6,0s0.1,0.1,0.1,0.1c-0.1,0.4-0.5,0.8-1,1.2c-0.6,0.5-1.7,1.2-3.2,1.4
				c-1.4,0.2-2.1-0.1-2.8-0.2c-0.4,0-0.7,0-1,0c-0.2,0-0.4,0-0.5,0.2c-0.2,0.3-0.6,0.8-1,1c-0.4,0.3-0.7,0.2-0.5-0.2
				c0.2-0.5,0.5-0.7,0.5-0.9c0-0.2-0.4-0.5-0.7-0.7c-0.2-0.2,0-0.4,0.3-0.3c0.4,0.1,0.9,0.3,1.3,0.5
				C111.4,39.5,115.3,37.8,118.8,37.6z"/>
			<path class="st7" d="M112.9,35.6c3.9-2.5,7.2-3.3,8.6-3.3c0.2,0,0.2,0,0.2,0.1c-0.2,0.8-1,1.8-2.5,2.7c-1.6,1-3.5,0.8-4.1,0.7
				c-0.6-0.1-1.3,0-1.5,0.1c-0.3,0.1-0.4,0.2-0.7,0.7c-0.2,0.4-0.5,0.8-1.1,1.1c-0.2,0.1-0.4,0.1-0.4,0c-0.1-0.3,0.5-1.2,0.5-1.3
				c0-0.1,0.1-0.2,0.1-0.2c0-0.1-0.5-0.3-0.7-0.4c-0.3-0.1-0.4-0.3-0.3-0.4C111.2,35.2,112.3,35.4,112.9,35.6z"/>
			<path class="st7" d="M126.2,37.5c0.6-0.1,0.6-0.1,0.5,0.2c-0.2,0.7-1.4,3.8-6.8,3.8c-0.5,0-1.1,0.2-1.2,0.5
				c-0.2,0.3-0.5,1-1.1,1.3s-0.5,0-0.5-0.2c0.1-0.2,0.4-0.5,0.4-0.7s-0.1-0.2-0.2-0.2c-0.5-0.1-1.6,0-1.8-0.3
				c-0.2-0.2,0.1-0.3,0.3-0.4c0.9-0.2,1.8-0.1,2.5-0.2C119.3,40.6,122.5,38,126.2,37.5z"/>
			<path class="st7" d="M122.2,35.8c2.2-1.9,5.4-3.6,7.7-4c0.2,0,0.2,0,0.2,0.1c0,0.4-0.1,0.8-0.4,1.4c-1.2,2-3,2.4-5,2.7
				c-0.3,0-1.5,0.2-2,0.4c-0.2,0.1-0.3,0.3-0.4,0.4c-0.2,0.6-0.8,1-1.2,1.2c-0.3,0.2-0.4-0.1-0.3-0.4c0.3-0.4,0.3-0.5,0.3-0.7
				c0-0.1,0-0.1-0.1-0.2c-0.1,0-1.4,0.1-1.8,0c-0.1,0-0.3-0.1-0.1-0.3C120,35.9,121.3,35.8,122.2,35.8z"/>
			<path class="st7" d="M123.7,30.5c-1.3,0.2-1.7,0.3-2,0.4c-0.2,0.1-0.4,0.3,0,0.4c0.3,0.1,0.8,0.2,1.2,0.2c0.1,0,0.1,0,0.1,0.1
				c-0.1,0.5-0.2,1.2-0.2,1.4s0.2,0.3,0.4,0c0.2-0.3,0.7-1.1,0.9-1.7c0.2-0.4,0.4-0.5,0.8-0.6c0.8-0.2,1.6-0.1,1.9-0.1
				c0.4,0,2.4,0,4-2.2c0.6-0.9,0.8-1.5,0.8-1.7s0-0.2-0.2-0.1C129.8,26.8,127,27.9,123.7,30.5z"/>
			<path class="st7" d="M112.5,30.9c-0.1,0.3,1.5,0.3,1.6,0.3c0.2,0,0.2,0,0.1,0.3s-0.1,0.8,0,1.1c0.1,0.3,0.6,0.2,0.9-0.9
				c0.2-0.6,0.3-0.8,0.8-0.9c1.3-0.3,4.1,0.3,6.3-1.7c0.8-0.7,1.2-1.5,1.3-1.9c0-0.2,0-0.2-0.3-0.2c-1.8,0.1-5.4,1.5-8.1,3.4
				C114.5,30.4,112.7,30.6,112.5,30.9z"/>
			<path class="st7" d="M105.9,49.6c-0.5,2.8-1.6,5-3.2,6.9c-1,1.2,0,1.7,0.6,1.5c1.7-0.6,4.4-2.4,7.5-5.8c1.6-1.7,2.6-1.9,3.9-1.8
				c22.1,1.9,24.6-12.9,24.3-15.9c0-0.4-0.2-0.8-0.7-0.9c-1.3-0.2-5.1,0.4-7.9,1.5c0,0-0.1,0-0.1,0.1
				C129.1,39.8,124.1,49.4,105.9,49.6C105.9,49.5,105.9,49.5,105.9,49.6z"/>
			<path class="st7" d="M99.2,37.7c4.5-0.6,8.1,0.1,9.4,0.5c0.1,0,0.1,0.1,0,0.1c-0.3,0.9-2.2,1.7-4.1,1.7c-2,0-3.8-1.3-4.9-1.5
				c-0.2-0.1-0.4-0.1-0.6,0c-0.2,0.2-0.8,0.6-1.4,0.9c-0.4,0.1-0.6,0-0.5-0.2s0.6-0.7,0.8-0.8c0,0,0.1-0.1,0-0.2
				c-0.2-0.1-1.4-0.9-1.5-0.9c-0.2-0.1-0.4-0.4,0.2-0.4C97.4,36.9,98.5,37.3,99.2,37.7C99.1,37.7,99.2,37.7,99.2,37.7z"/>
			<path class="st7" d="M123.4,24.7c1.5-0.3,3.4-1.8,8.2-1.9c0.4,0,0.4,0,0.1,0.5c-1.5,1.9-3,2.5-4.1,2.6c-1.2,0-2.1-0.4-3.2-0.6
				c-0.3-0.1-0.8,0-1,0.2c-0.5,0.6-1,1-1.3,0.9c-0.2-0.1,0.1-0.6,0.1-1c0,0,0,0,0-0.1c-0.3-0.2-1-0.4-1.3-0.5
				c-0.2-0.1-0.4-0.3,0.1-0.4C121.5,24.4,122.2,24.4,123.4,24.7z"/>
		</g>
	</g>
</g>
<g id="logo">
	<path class="st8" d="M39.7,10.6v7.1h-3.9v-5.5c0-2.2-0.8-2.8-1.8-2.8c-1.6,0-2.4,1.1-2.4,3.5v4.8h-3.9V1.5c0,0,2.9,0,3.1,0
		c0.5,0,0.8,0.2,0.8,0.8c0,0.2,0,5.7,0,5.7h0.1c0.8-1.2,2.1-1.9,3.8-1.9C38.5,6.1,39.7,8.3,39.7,10.6z M19,12.1
		c0-1.9,1.3-3.1,3.1-3.1c0.6,0,1.2,0.1,1.7,0.3C24,9.4,24,9.4,24.1,9.4c0,0,0,0,0.1,0c0.2,0,0.4-0.1,0.4-0.4V6.6
		C23.8,6.2,22.8,6,21.7,6c-3.8,0-6.6,2.2-6.6,5.9s2.8,5.9,6.6,5.9c1,0,2.2-0.1,3.1-0.5v-2.9c-0.7,0.3-1.5,0.6-2.4,0.6
		C20.6,15.1,19,13.9,19,12.1z M58.3,6.1c-1.6,0-3.1,0.6-4,2.2c-0.6-1.5-1.9-2.2-3.5-2.2c-1.7,0-2.9,0.6-4.2,1.9c0,0-0.3,0.3-0.5,0.3
		c-0.1,0-0.3-0.1-0.4-0.1l-1.5-1.6c-0.1-0.1-0.3-0.2-0.4-0.2c-0.3,0-0.6,0.3-0.6,0.6v10.7H47v-4.8c0-2.4,0.8-3.5,2.2-3.5
		c1.1,0,1.5,1,1.5,2.2v6.1h3.9v-4.8c0-2.4,0.8-3.5,2.2-3.5c1.1,0,1.5,1,1.5,2.2v6.1h3.9V11C62.3,8,61.6,6.1,58.3,6.1z M12.3,7.3v9.5
		c0,0.3-0.3,0.6-0.6,0.6c-0.2,0-0.3-0.1-0.4-0.2l-0.6-0.6c-0.1-0.1-0.3-0.2-0.4-0.2c-0.1,0-0.3,0.1-0.4,0.1c-1,0.9-2,1.3-3.5,1.3
		c-3.3,0-5.9-2.6-5.9-5.9s2.6-5.9,5.9-5.9c1.5,0,2.5,0.5,3.5,1.3c0.1,0.1,0.3,0.1,0.4,0.1c0.1,0,0.3-0.1,0.4-0.2l0.6-0.6
		c0.1-0.1,0.3-0.2,0.4-0.2C12,6.7,12.3,7,12.3,7.3z M9.1,12.1c0-1.5-1.1-2.6-2.5-2.6s-2.5,1.2-2.5,2.6s1.1,2.6,2.5,2.6
		C8,14.7,9.1,13.5,9.1,12.1z M91.1,7.3v9.5c0,0.3-0.3,0.6-0.6,0.6c-0.2,0-0.3-0.1-0.4-0.2l-0.6-0.6c-0.1-0.1-0.3-0.2-0.4-0.2
		c-0.1,0-0.3,0.1-0.4,0.1c-1,0.9-2,1.3-3.5,1.3c-3.3,0-5.9-2.6-5.9-5.9s2.6-5.9,5.9-5.9c1.4,0,2.5,0.5,3.5,1.3
		c0.1,0.1,0.3,0.1,0.4,0.1c0.1,0,0.3-0.1,0.4-0.2L90,6.8c0.1-0.1,0.3-0.2,0.4-0.2C90.8,6.7,91.1,7,91.1,7.3z M87.9,12.1
		c0-1.5-1.1-2.6-2.5-2.6c-1.4,0-2.5,1.2-2.5,2.6s1.1,2.6,2.5,2.6C86.8,14.7,87.9,13.5,87.9,12.1z M76.8,12.5v0.7H69
		c0.2,1.5,1.4,2.2,3.3,2.2c1,0,2.2-0.2,3.4-0.8v2.8c-1.2,0.5-2.7,0.7-4.1,0.7c-3.7,0-6.5-2.2-6.5-5.9s2.5-5.9,6-5.9
		C75.4,6.2,76.8,9.2,76.8,12.5z M73.3,10.5c-0.1-1-0.8-1.9-2.2-1.9c-1.3,0-1.9,0.8-2.1,1.9c-0.1,0.3,0.1,0.5,0.4,0.5h3.4
		C73.1,11,73.3,10.9,73.3,10.5z M113.9,0.5c-2.8,0-5.5,0.9-7.4,2.6c-0.2,0.2-0.5,0.3-0.8,0.3c-0.3,0-0.6-0.1-0.8-0.3l-1.3-1.3
		c-0.1-0.1-0.3-0.2-0.6-0.2c-0.4,0-0.8,0.3-0.8,0.8v19.4c0,0.4,0.3,0.8,0.8,0.8c0.2,0,0.4-0.1,0.6-0.2l1.3-1.3
		c0.2-0.2,0.5-0.3,0.8-0.3c0.3,0,0.6,0.1,0.8,0.3c1.9,1.7,4.6,2.6,7.4,2.6c6.4,0,11.6-5.2,11.6-11.6C125.5,5.7,120.3,0.5,113.9,0.5z
		 M113.6,4.9c1.7,0,3.4,0.6,4.6,1.7c0.1,0.1,0.3,0.2,0.5,0.2c0.2,0,0.4-0.1,0.5-0.2l0.8-0.8c0.1-0.1,0.2-0.1,0.3-0.1
		c0.3,0,0.5,0.2,0.5,0.5v12c0,0.3-0.2,0.5-0.5,0.5c-0.1,0-0.3-0.1-0.3-0.1l-0.8-0.8c-0.1-0.1-0.3-0.2-0.5-0.2
		c-0.2,0-0.3,0.1-0.5,0.2c-1.2,1.1-2.8,1.7-4.6,1.7c-4,0-7.2-3.2-7.2-7.2C106.3,8.1,109.6,4.9,113.6,4.9z M113.7,15.2
		c1.6,0,2.9-1.4,2.9-3.1s-1.3-3.1-2.9-3.1c-1.6,0-2.9,1.4-2.9,3.1S112.1,15.2,113.7,15.2z"/>
</g>
</svg>
