<?xml version="1.0" encoding="utf-8"?>
<!-- Generator: Adobe Illustrator 19.0.0, SVG Export Plug-In . SVG Version: 6.00 Build 0)  -->
<svg version="1.1" id="Layer_1" xmlns="http://www.w3.org/2000/svg" xmlns:xlink="http://www.w3.org/1999/xlink" x="0px" y="0px"
	 width="200px" height="65.5px" viewBox="0 0 200 65.5" enable-background="new 0 0 200 65.5" xml:space="preserve">
<g id="XMLID_7711_">
	<g id="XMLID_9143_">
		<g id="XMLID_9492_">
			<g id="XMLID_9493_">
				<path id="XMLID_9494_" fill="#FFFFFF" d="M61.2,28.5v1.1c0,1.5,0.5,2.4,1.7,2.4c1.2,0,1.6-1,1.6-2.5c0-2.1-0.4-2.8-2.4-4.3
					c-2-1.6-3-2.5-3-5.2c0-2.4,0.7-4.7,3.9-4.7c3.1,0,3.7,2.2,3.7,4.3v0.9h-2.4v-0.9c0-1.4-0.3-2.2-1.3-2.2c-1.1,0-1.3,0.9-1.3,2.2
					c0,1.5,0.3,2.1,1.9,3.3c2.7,2,3.5,3.1,3.5,6.2c0,2.6-0.8,5-4.1,5c-3.2,0-4.1-2.1-4.1-4.5v-1.1H61.2z"/>
			</g>
		</g>
		<g id="XMLID_9487_">
			<g id="XMLID_9488_">
				<path id="XMLID_9489_" fill="#FFFFFF" d="M76.1,31.1c0,0.9,0,2.2,0.1,2.7h-2.3c-0.1-0.3-0.2-0.9-0.2-1.1
					c-0.5,0.9-1.3,1.3-2.3,1.3c-2.1,0-2.9-1.9-2.9-4.1v-0.3c0-3.4,2.2-4.4,4.7-4.4c0.1,0,0.3,0,0.4,0v-2c0-1.2-0.2-1.9-1.1-1.9
					c-0.9,0-1.2,0.7-1.2,1.7v0.3H69v-0.3c0-2,0.8-3.8,3.7-3.8c2.6,0,3.5,1.5,3.5,3.7L76.1,31.1L76.1,31.1z M73.7,27.2
					c-0.1,0-0.4,0-0.6,0c-1.4,0-2.3,0.6-2.3,2.4v0.2c0,1.1,0.4,1.9,1.4,1.9c1.1,0,1.5-0.8,1.5-2.8V27.2z"/>
			</g>
		</g>
		<g id="XMLID_9484_">
			<g id="XMLID_9485_">
				<path id="XMLID_9486_" fill="#FFFFFF" d="M79.4,33.8v-12h-1.4v-2.2h1.4V18c0-1.9,0.7-3.5,3.2-3.5c0.4,0,0.8,0,1,0.1v2.2
					c-0.2,0-0.4,0-0.6,0c-0.9,0-1.2,0.6-1.2,1.6v1.3h1.8v2.2h-1.8v12L79.4,33.8L79.4,33.8z"/>
			</g>
		</g>
		<g id="XMLID_9479_">
			<g id="XMLID_9480_">
				<path id="XMLID_9481_" fill="#FFFFFF" d="M87.5,27.3v2.2c0,1.2,0.3,2.4,1.5,2.4c1.2,0,1.4-1,1.4-2.2v-0.1h2.4v0.1
					c0,1.6-0.3,4.3-3.8,4.3c-3.3,0-3.9-2.1-3.9-5v-4.9c0-2,0.7-4.7,3.9-4.7c2.9,0,3.8,2,3.8,4.7c0,0.8,0,2.4,0,3.2L87.5,27.3
					L87.5,27.3z M90.5,25.4v-1.6c0-1.3-0.3-2.3-1.4-2.3c-1.1,0-1.5,0.8-1.5,2.3v1.6L90.5,25.4L90.5,25.4z"/>
			</g>
		</g>
		<g id="XMLID_9476_">
			<g id="XMLID_9477_">
				<path id="XMLID_9478_" fill="#FFFFFF" d="M101.9,33.8l-2.5-18.4h2.6c0.5,4.2,1.2,11,1.3,14.2h0c0.4-3.5,1.3-10,1.9-14.2h2.4
					c0.6,4.3,1.5,10.3,1.9,14.1h0.1c0.2-3.4,0.9-9.8,1.4-14.1h2.5l-2.7,18.4h-2.6c-0.6-4.2-1.4-10.1-1.8-13.6h0
					c-0.4,3.6-1.3,9.5-1.9,13.6H101.9z"/>
			</g>
		</g>
		<g id="XMLID_9471_">
			<g id="XMLID_9472_">
				<path id="XMLID_9473_" fill="#FFFFFF" d="M121.7,31.1c0,0.9,0,2.2,0.1,2.7h-2.3c-0.1-0.3-0.2-0.9-0.2-1.1
					c-0.5,0.9-1.3,1.3-2.3,1.3c-2.1,0-2.9-1.9-2.9-4.1v-0.3c0-3.4,2.2-4.4,4.7-4.4c0.1,0,0.3,0,0.4,0v-2c0-1.2-0.2-1.9-1.1-1.9
					c-0.9,0-1.2,0.7-1.2,1.7v0.3h-2.4v-0.3c0-2,0.8-3.8,3.7-3.8c2.6,0,3.5,1.5,3.5,3.7L121.7,31.1L121.7,31.1z M119.3,27.2
					c-0.1,0-0.4,0-0.6,0c-1.4,0-2.3,0.6-2.3,2.4v0.2c0,1.1,0.4,1.9,1.4,1.9c1.1,0,1.5-0.8,1.5-2.8V27.2z"/>
			</g>
		</g>
		<g id="XMLID_9468_">
			<g id="XMLID_9469_">
				<path id="XMLID_9470_" fill="#FFFFFF" d="M123.5,19.7h1.6v-3.4h2.5v3.4h1.9v2.2h-1.9v8.8c0,0.7,0.1,1.3,1,1.3
					c0.3,0,0.6,0,0.8-0.1v1.9c-0.5,0.2-1.1,0.3-1.6,0.3c-1.6,0-2.6-0.6-2.6-2.9v-9.3h-1.6L123.5,19.7L123.5,19.7z"/>
			</g>
		</g>
		<g id="XMLID_9463_">
			<g id="XMLID_9464_">
				<path id="XMLID_9465_" fill="#FFFFFF" d="M133.1,27.3v2.2c0,1.2,0.3,2.4,1.5,2.4c1.2,0,1.4-1,1.4-2.2v-0.1h2.4v0.1
					c0,1.6-0.3,4.3-3.8,4.3c-3.3,0-3.9-2.1-3.9-5v-4.9c0-2,0.7-4.7,3.9-4.7c2.9,0,3.8,2,3.8,4.7c0,0.8,0,2.4,0,3.2L133.1,27.3
					L133.1,27.3z M136,25.4v-1.6c0-1.3-0.3-2.3-1.4-2.3c-1.1,0-1.5,0.8-1.5,2.3v1.6L136,25.4L136,25.4z"/>
			</g>
		</g>
		<g id="XMLID_9456_">
			<g id="XMLID_9457_">
				<path id="XMLID_9458_" fill="#FFFFFF" d="M141,24.5c0-2.3,0-3.4,0-4.8h2.3c0,0.3,0.1,1.4,0.1,2.3c0.5-1.8,1.8-2.4,3.1-2.5v3
					c-1.7,0-3,0.7-3,3.4v7.9H141L141,24.5L141,24.5z"/>
			</g>
		</g>
		<g id="XMLID_9444_">
			<g id="XMLID_9445_">
				<path id="XMLID_9450_" fill="#FFFFFF" d="M67.7,47.1V56c0,3.4-1.4,5-4.4,5c-2.9,0-4.1-1.8-4.1-5v-8.9c0-3.4,1.6-5,4.3-5
					C66.3,42.1,67.7,43.8,67.7,47.1z M61.7,46.9v9.4c0,1.8,0.6,2.5,1.7,2.5c1.2,0,1.8-0.7,1.8-2.6v-9.3c0-1.7-0.5-2.5-1.8-2.5
					C62.3,44.4,61.7,45.2,61.7,46.9z"/>
			</g>
		</g>
		<g id="XMLID_9424_">
			<g id="XMLID_9425_">
				<path id="XMLID_9432_" fill="#FFFFFF" d="M72.6,59.7v5.8h-2.5V50.7c0-1.9,0-3.2,0-4.1h2.4c0,0.3,0.1,0.9,0.1,1.4
					c0.4-0.9,1.2-1.7,2.6-1.7c2,0,2.9,1.4,2.9,4.1v5.9c0,3.2-1.1,4.6-3.2,4.6C73.5,61,72.9,60.3,72.6,59.7z M75.5,56.4v-5.7
					c0-1.5-0.5-2.1-1.4-2.1c-1.2,0-1.6,0.8-1.6,2.6V56c0,1.5,0.3,2.8,1.5,2.8C75.2,58.8,75.5,57.9,75.5,56.4z"/>
			</g>
		</g>
		<g id="XMLID_9401_">
			<g id="XMLID_9409_">
				<path id="XMLID_9410_" fill="#FFFFFF" d="M79.4,46.6H81v-3.4h2.5v3.4h1.9v2.2h-1.9v8.8c0,0.7,0.1,1.3,1,1.3c0.3,0,0.6,0,0.8-0.1
					v1.9c-0.5,0.2-1.1,0.3-1.6,0.3C82,61,81,60.4,81,58.1v-9.3h-1.6L79.4,46.6L79.4,46.6z"/>
			</g>
		</g>
		<g id="XMLID_9389_">
			<g id="XMLID_9390_">
				<path id="XMLID_9391_" fill="#FFFFFF" d="M87.3,46.6h2.5v14.1h-2.5V46.6z M87.3,41.6h2.5v3h-2.5V41.6z"/>
			</g>
		</g>
		<g id="XMLID_9386_">
			<g id="XMLID_9387_">
				<path id="XMLID_9388_" fill="#FFFFFF" d="M92.5,50.7c0-2.7,0-3.4,0-4.1h2.4c0.1,0.4,0.1,0.8,0.1,1.3c0.5-1,1.3-1.5,2.5-1.5
					c1.1,0,1.9,0.5,2.2,1.6c0.5-0.8,1.2-1.6,2.7-1.6c1.5,0,2.7,0.7,2.7,3.5v10.9h-2.5V50.3c0-1-0.2-1.7-1.2-1.7
					c-1.1,0-1.4,0.9-1.4,2.4v9.7h-2.5V50.4c0-1.4-0.4-1.8-1.2-1.8c-1.1,0-1.4,1-1.4,2.4v9.7h-2.5L92.5,50.7L92.5,50.7z"/>
			</g>
		</g>
		<g id="XMLID_9380_">
			<g id="XMLID_9381_">
				<path id="XMLID_9383_" fill="#FFFFFF" d="M107.9,46.6h2.5v14.1h-2.5V46.6z M107.9,41.6h2.5v3h-2.5V41.6z"/>
			</g>
		</g>
		<g id="XMLID_9375_">
			<g id="XMLID_9376_">
				<path id="XMLID_9377_" fill="#FFFFFF" d="M112.3,59.1l4.5-10.2h-4.1v-2.2h6.8v1.7l-4.4,10.2h4.4l-0.2,2.2h-7.1V59.1z"/>
			</g>
		</g>
		<g id="XMLID_9253_">
			<g id="XMLID_9254_">
				<path id="XMLID_9255_" fill="#FFFFFF" d="M129,58c0,0.9,0,2.2,0.1,2.7h-2.3c-0.1-0.3-0.2-0.9-0.2-1.1c-0.5,0.9-1.3,1.3-2.3,1.3
					c-2.1,0-2.9-1.9-2.9-4.1v-0.3c0-3.4,2.2-4.4,4.7-4.4c0.1,0,0.3,0,0.4,0v-2c0-1.2-0.2-1.9-1.1-1.9c-0.9,0-1.2,0.7-1.2,1.7v0.3
					h-2.4v-0.3c0-2,0.8-3.8,3.7-3.8c2.6,0,3.5,1.5,3.5,3.7V58z M126.6,54.2c-0.1,0-0.4,0-0.6,0c-1.4,0-2.3,0.6-2.3,2.4v0.2
					c0,1.1,0.4,1.9,1.4,1.9c1.1,0,1.5-0.8,1.5-2.8V54.2z"/>
			</g>
		</g>
		<g id="XMLID_9190_">
			<g id="XMLID_9251_">
				<path id="XMLID_9252_" fill="#FFFFFF" d="M130.7,46.6h1.6v-3.4h2.5v3.4h1.9v2.2h-1.9v8.8c0,0.7,0.1,1.3,1,1.3
					c0.3,0,0.6,0,0.8-0.1v1.9c-0.5,0.2-1.1,0.3-1.6,0.3c-1.6,0-2.6-0.6-2.6-2.9v-9.3h-1.6L130.7,46.6L130.7,46.6z"/>
			</g>
		</g>
		<g id="XMLID_9183_">
			<g id="XMLID_9184_">
				<path id="XMLID_9186_" fill="#FFFFFF" d="M138.6,46.6h2.5v14.1h-2.5V46.6z M138.6,41.6h2.5v3h-2.5V41.6z"/>
			</g>
		</g>
		<g id="XMLID_9175_">
			<g id="XMLID_9177_">
				<path id="XMLID_9178_" fill="#FFFFFF" d="M151.6,50.8v5.6c0,3-1.5,4.5-4,4.5c-2.6,0-3.9-1.5-3.9-4.5v-5.8c0-2.9,1.6-4.3,4-4.3
					C150.2,46.4,151.6,48,151.6,50.8z M146.2,50.7v5.9c0,1.3,0.4,2.2,1.5,2.2c1,0,1.5-0.7,1.5-2.2v-5.9c0-1.2-0.4-2.1-1.5-2.1
					C146.7,48.6,146.2,49.3,146.2,50.7z"/>
			</g>
		</g>
		<g id="XMLID_9171_">
			<g id="XMLID_9172_">
				<path id="XMLID_9174_" fill="#FFFFFF" d="M154.3,51c0-2.9,0-3.7,0-4.3h2.4c0,0.3,0.1,0.9,0.1,1.3c0.4-0.9,1.2-1.6,2.6-1.6
					c1.7,0,2.9,1,2.9,3.6v10.7h-2.5V50.5c0-1.3-0.5-1.9-1.3-1.9c-1.1,0-1.6,0.6-1.6,2.8v9.3h-2.5L154.3,51L154.3,51z"/>
			</g>
		</g>
		<g id="XMLID_9165_">
			<g id="XMLID_9167_">
				<path id="XMLID_9168_" fill="#FFFFFF" d="M172.7,44.7h-3v-2.3h8.4v2.3h-3v16.1h-2.5V44.7z"/>
			</g>
		</g>
		<g id="XMLID_9158_">
			<g id="XMLID_9159_">
				<path id="XMLID_9161_" fill="#FFFFFF" d="M185.4,50.8v5.6c0,3-1.5,4.5-4,4.5c-2.6,0-3.9-1.5-3.9-4.5v-5.8c0-2.9,1.6-4.3,4-4.3
					C184,46.4,185.4,48,185.4,50.8z M179.9,50.7v5.9c0,1.3,0.4,2.2,1.5,2.2c1,0,1.5-0.7,1.5-2.2v-5.9c0-1.2-0.4-2.1-1.5-2.1
					C180.4,48.6,179.9,49.3,179.9,50.7z"/>
			</g>
		</g>
		<g id="XMLID_9149_">
			<g id="XMLID_9152_">
				<path id="XMLID_9153_" fill="#FFFFFF" d="M195.3,50.8v5.6c0,3-1.5,4.5-4,4.5c-2.6,0-3.9-1.5-3.9-4.5v-5.8c0-2.9,1.6-4.3,4-4.3
					C193.9,46.4,195.3,48,195.3,50.8z M189.9,50.7v5.9c0,1.3,0.4,2.2,1.5,2.2c1,0,1.5-0.7,1.5-2.2v-5.9c0-1.2-0.4-2.1-1.5-2.1
					C190.4,48.6,189.9,49.3,189.9,50.7z"/>
			</g>
		</g>
		<g id="XMLID_9145_">
			<g id="XMLID_9146_">
				<path id="XMLID_9148_" fill="#FFFFFF" d="M197.5,60.8V41.6h2.5v19.2H197.5z"/>
			</g>
		</g>
	</g>
	<g id="XMLID_9140_">
		<path id="XMLID_9142_" fill="#FFFFFF" d="M25.4,2.2c0-0.2-0.1-0.4-0.3-0.5c-0.3-0.3-0.7-0.7-1-1l-0.5-0.5c0,0,0,0,0,0L23.5,0H23
			l-0.5,0.6c-0.4,0.4-0.8,0.8-1.2,1.2c-0.1,0.1-0.2,0.2-0.2,0.4s0.2,0.4,0.2,0.4l0,0c0.3,0.3,0.7,0.6,1,1c0.2,0.2,0.4,0.4,0.5,0.5
			c0.3,0.3,0.6,0.3,1,0c0.5-0.5,0.9-0.9,1.4-1.4C25.3,2.5,25.4,2.4,25.4,2.2z"/>
	</g>
	<g id="XMLID_9137_">
		<path id="XMLID_9139_" fill="#FFFFFF" d="M13.5,13.5c-0.1-0.1-0.2-0.1-0.2-0.2c0,0-0.1,0-0.1-0.1l-0.2-0.1l-0.2,0.1c0,0,0,0-0.1,0
			c-0.1,0-0.2,0.1-0.2,0.2c-0.5,0.5-1,1-1.5,1.5c-0.3,0.3-0.3,0.6,0,0.9c0.5,0.5,1,1,1.5,1.5c0.2,0.2,0.3,0.2,0.5,0.2l0,0
			c0.2,0,0.3-0.1,0.5-0.2l0.3-0.3c0.4-0.4,0.7-0.7,1.1-1.1c0.1-0.1,0.3-0.3,0.3-0.5c0-0.2-0.2-0.4-0.3-0.5
			C14.4,14.4,14,13.9,13.5,13.5z"/>
	</g>
	<g id="XMLID_9134_">
		<path id="XMLID_9136_" fill="#FFFFFF" d="M17.3,13.7C17.2,13.7,17.2,13.7,17.3,13.7l-0.1,0.2l0.1,0.1c0,0,0,0,0,0.1l0,0
			c0,0.1,0.1,0.2,0.2,0.3c0.4,0.5,0.9,0.9,1.5,1.5c0.3,0.3,0.7,0.3,0.9,0c0.2-0.2,0.4-0.4,0.6-0.5l0.2-0.2c0.2-0.2,0.4-0.4,0.7-0.7
			c0.2-0.2,0.3-0.3,0.3-0.5c0-0.2-0.1-0.3-0.2-0.5c-0.2-0.2-0.5-0.5-0.7-0.7c-0.1-0.1-0.3-0.3-0.4-0.4C20,12.2,20,12.1,19.9,12
			l-0.1-0.1c-0.2-0.2-0.5-0.2-0.7,0c-0.5,0.5-1.1,1-1.6,1.6C17.3,13.5,17.3,13.6,17.3,13.7z"/>
	</g>
	<g id="XMLID_9068_">
		<path id="XMLID_9133_" fill="#FFFFFF" d="M12,23.6c0.6-0.6,1-1,1.4-1.4c0.4-0.4,0.4-0.7,0-1c-0.5-0.5-0.9-0.9-1.4-1.4
			c-0.1-0.1-0.1-0.1-0.2-0.2c0,0-0.1,0-0.1-0.1l-0.2-0.1l-0.2,0.1c0,0-0.1,0-0.1,0c-0.1,0-0.1,0.1-0.2,0.2c-0.6,0.6-1.1,1-1.5,1.4
			c-0.4,0.4-0.4,0.6,0,1c0.4,0.4,0.9,0.9,1.4,1.5l0,0C11.4,24,11.7,24,12,23.6z"/>
	</g>
	<g id="XMLID_8987_">
		<path id="XMLID_8996_" fill="#FFFFFF" d="M5.4,31L5.4,31c0.3-0.3,0.5-0.5,0.7-0.7c0.3-0.3,0.3-0.6,0-0.9c-0.5-0.5-1-1-1.5-1.5
			c-0.1-0.1-0.1-0.1-0.2-0.2c0,0-0.1,0-0.1-0.1l-0.2-0.1L4,27.7c0,0,0,0-0.1,0c-0.1,0-0.2,0.1-0.2,0.2c-0.3,0.3-0.6,0.6-0.9,0.9
			l-0.6,0.6C2,29.6,2,29.7,2,29.8s0,0.3,0.2,0.4l0.3,0.3l0,0l0.1,0.1c0.4,0.4,0.8,0.8,1.2,1.2C3.9,32,4,32.1,4.1,32.1
			c0.2,0,0.3-0.1,0.4-0.2C4.8,31.6,5.1,31.3,5.4,31z"/>
	</g>
	<g id="XMLID_8911_">
		<path id="XMLID_8986_" fill="#FFFFFF" d="M23.2,8.5c0.1-0.1,0.1-0.2,0.1-0.2c0,0,0-0.1,0-0.1L23.5,8l-0.1-0.1c0,0,0,0,0-0.1
			c0-0.1-0.1-0.2-0.2-0.2c-0.3-0.3-0.6-0.6-0.9-0.9l-0.6-0.6c-0.1-0.1-0.3-0.2-0.4-0.2c-0.1,0-0.3,0.1-0.4,0.2
			C20.4,6.5,20,7,19.5,7.4l-0.2,0.2c-0.1,0.1-0.2,0.3-0.2,0.4c0,0.1,0,0.2,0.2,0.4c0.5,0.5,1,1.1,1.6,1.7c0.1,0.1,0.2,0.2,0.4,0.2
			c0.2,0,0.3-0.1,0.4-0.2C22.1,9.6,22.7,9,23.2,8.5z"/>
	</g>
	<g id="XMLID_8907_">
		<path id="XMLID_8910_" fill="#FFFFFF" d="M29.5,7c0.1-0.1,0.2-0.4,0-0.6c-0.5-0.6-1-1.2-1.5-1.8c-0.1-0.1-0.2-0.2-0.4-0.3
			c-0.2,0-0.4,0.2-0.5,0.2c-0.6,0.5-1,1-1.4,1.4c-0.1,0.1-0.1,0.2-0.2,0.3c0,0,0,0.1-0.1,0.1l-0.1,0.2l0.1,0.2c0,0,0,0.1,0.1,0.1
			c0,0.1,0.1,0.2,0.2,0.2c0.6,0.6,1,1,1.4,1.5c0.3,0.3,0.6,0.3,0.9,0C28.4,8,28.9,7.6,29.5,7z"/>
	</g>
	<g id="XMLID_7712_">
		<g id="XMLID_8840_">
			<path id="XMLID_8875_" fill="#FFFFFF" d="M31.3,13.1L31.3,13.1L31.3,13.1z"/>
		</g>
		<g id="XMLID_7731_">
			<path id="XMLID_7733_" fill="#FFFFFF" d="M4.4,55.6c2.6,3.3,5.9,5.8,9.7,7.4c2.5,1.1,5.2,1.7,8.1,1.8c2.1,0.1,4.2-0.1,6.3-0.5
				c0.8-0.2,1.6-0.4,2.3-0.6l0.1,0c0.2-0.1,0.4-0.1,0.6-0.2c0.1,0,0.1,0,0.2-0.1l2.9-1.3c0.1,0,0.2-0.1,0.3-0.2l0.1-0.1
				c2.2-1.2,4.2-2.8,6-4.6c0,0,0.1-0.1,0.1-0.1l1.9-2.4c0,0,0.1-0.1,0.1-0.1c1.1-1.5,2-3.1,2.7-4.8c0.6-1.5,1.1-3,1.4-4.6
				c0.3-1.8,0.5-3.6,0.4-5.5l0,0c0-0.3-0.1-0.4-0.3-0.5c0,0,0,0,0,0L47,39.1c-0.2-0.2-0.3-0.3-0.5-0.5c-0.3-0.3-0.6-0.6-0.8-0.8
				c0,0,0-0.1,0-0.1s0-0.1,0-0.1c0.2-0.2,0.4-0.4,0.5-0.5c0.2-0.2,0.4-0.4,0.6-0.5c0.1-0.1,0.3-0.3,0.2-0.7
				c-0.1-0.4-0.2-0.8-0.3-1.2l-0.1-0.2c-0.1-0.5-0.3-1-0.4-1.5l-0.1-0.4c-0.1-0.5-0.3-1-0.4-1.5c-0.4-1.2-1-2.4-1.7-3.7l-0.2-0.3
				l-0.5,0.4c-0.1,0-0.1,0-0.2,0c-0.4-0.4-0.8-0.8-1.3-1.3l-0.1-0.1c0,0,0-0.1,0-0.1s0-0.1,0-0.1c0.2-0.2,0.4-0.4,0.6-0.6
				c0.1-0.1,0.2-0.4,0.1-0.6c-0.4-0.7-0.8-1.3-1.2-2l-0.2-0.3c0-0.1-0.1-0.1-0.1-0.1c0,0,0,0-0.1-0.1l-0.2-0.2l-0.3,0.3
				c0,0-0.1,0.1-0.1,0.1c-0.1,0.1-0.2,0.2-0.4,0.4l-0.1,0.1c-0.1,0-0.1,0-0.2,0c-0.5-0.5-0.9-0.9-1.3-1.3c-0.1-0.1,0-0.1,0-0.2
				l0.3-0.3c0.2-0.2,0.3-0.3,0.4-0.4c0.1-0.1,0.1-0.1,0.3-0.3c0.4-0.4,0.2-0.7,0.1-0.8c-0.3-0.3-0.6-0.6-0.9-1l-0.1-0.1
				c-0.1-0.2-0.3-0.3-0.4-0.5c0,0,0-0.1,0-0.1c0.1-0.3,0-0.5-0.1-0.6l-0.1-0.1c-0.4-0.6-0.9-1.2-1.3-1.9c0-0.1-0.2-0.2-0.4-0.3
				c-0.2,0-0.4,0.1-0.4,0.2c0,0-0.1,0.1-0.1,0.1c-0.1,0-0.1,0-0.2,0l-0.1-0.1c-0.1-0.1-0.3-0.3-0.4-0.4c-0.2-0.2-0.5-0.5-0.7-0.7
				C34,14.5,34,14.4,34,14.4c0,0,0-0.1,0-0.1c0,0,0-0.1,0.1-0.1c0,0,0.1-0.1,0.1-0.1c0.1-0.1,0.2-0.2,0.3-0.3c0.1-0.2,0.2-0.4,0-0.6
				c-0.3-0.5-0.7-0.9-1-1.3l0,0c-0.2-0.2-0.4-0.5-0.5-0.7c-0.1-0.2-0.2-0.2-0.3-0.2c-0.1,0-0.2,0-0.4,0.2l-0.3,0.3
				c-0.2,0.2-0.4,0.4-0.6,0.6c0,0-0.1,0-0.1,0c0,0-0.1,0-0.1-0.1c-0.1-0.1-0.1-0.2-0.2-0.3c-0.4-0.4-0.8-0.8-1.1-1.2
				c-0.2-0.2-0.5-0.3-0.9,0.1l-0.5,0.5c-0.2,0.2-0.4,0.4-0.7,0.7c-0.1,0.1-0.2,0.2-0.3,0.3c0,0-0.1,0-0.2,0
				c-0.1-0.1-0.2-0.2-0.3-0.3c-0.2-0.2-0.5-0.5-0.7-0.7c-0.1-0.1-0.3-0.3-0.4-0.4c-0.3-0.3-0.6-0.3-0.9,0c-0.5,0.5-1,1-1.5,1.5
				c-0.1,0.1-0.2,0.2-0.2,0.4c0,0.2,0.2,0.4,0.2,0.4c0.3,0.3,0.5,0.5,0.8,0.7c0.2,0.2,0.5,0.5,0.7,0.7c0.1,0.1,0.1,0.1,0,0.2
				c-0.2,0.2-0.4,0.4-0.6,0.6l0,0c-0.2,0.2-0.5,0.5-0.7,0.7c-0.4,0.4-0.4,0.7,0,1.2c0.3,0.3,0.6,0.6,0.8,0.9l0.4,0.4
				c0.1,0.1,0.1,0.1,0,0.2L25,18.3c-0.4,0.4-0.8,0.8-1.2,1.2l0,0.1c0,0-0.1,0-0.1,0c0,0-0.1,0-0.1,0l-1.4-1.4c-0.4-0.4-0.6-0.4-1,0
				l-1.4,1.4c-0.1,0-0.1,0-0.2,0l-0.5-0.5c-0.3-0.3-0.7-0.7-1-1c-0.1-0.1-0.2-0.2-0.4-0.2c-0.2,0-0.3,0.1-0.4,0.2
				c-0.3,0.3-0.7,0.7-1,1l-0.5,0.5c-0.1,0.1-0.3,0.3-0.3,0.5c0,0.2,0.1,0.4,0.3,0.5l0.4,0.4c0.3,0.3,0.6,0.6,0.9,0.9
				c0,0,0,0.1,0,0.1s0,0.1,0,0.1c-0.2,0.2-0.5,0.5-0.7,0.7c-0.3,0.3-0.5,0.5-0.8,0.7c-0.1,0.1-0.2,0.2-0.2,0.4s0.1,0.3,0.2,0.4
				c0.3,0.3,0.6,0.6,1,0.9l0.5,0.5c0,0,0,0.1,0,0.1c0,0,0,0.1,0,0.1c-0.3,0.3-0.6,0.6-0.9,0.9l-0.5,0.5c0,0-0.1,0-0.1,0
				c0,0-0.1,0-0.1,0c-0.1-0.1-0.2-0.2-0.3-0.3c-0.3-0.3-0.7-0.7-1-1c-0.3-0.3-0.7-0.3-1,0l-0.2,0.2c-0.4,0.4-0.8,0.8-1.2,1.2
				c0,0-0.1,0-0.1,0c0,0-0.1,0-0.1,0c-0.3-0.3-0.5-0.5-0.8-0.8l-0.6-0.6c-0.1-0.2-0.3-0.3-0.5-0.3c-0.2,0-0.4,0.2-0.5,0.3
				C9,26.5,8.6,27,8.1,27.4c-0.4,0.4-0.4,0.7,0,1.1l0.3,0.3c0.4,0.4,0.7,0.7,1.1,1.1c0,0,0,0.1,0,0.1s0,0.1,0,0.1
				c-0.2,0.2-0.4,0.4-0.6,0.6l-0.1,0.1c-0.3,0.3-0.5,0.5-0.8,0.8c-0.1,0.1-0.2,0.2-0.2,0.4c0,0.2,0.1,0.3,0.2,0.4
				c0.4,0.4,0.9,0.8,1.3,1.3l0.2,0.2c0,0,0,0.1,0,0.1s0,0.1,0,0.1c-0.4,0.4-0.7,0.7-1.1,1.1l-0.3,0.3c0,0,0,0-0.1,0c0,0-0.1,0-0.1,0
				c-0.5-0.5-0.9-0.9-1.3-1.3c-0.1-0.1-0.3-0.3-0.5-0.3c-0.2,0-0.4,0.1-0.5,0.3l-0.3,0.3c-0.3,0.3-0.7,0.7-1,1c0,0-0.1,0-0.1,0
				c0,0-0.1,0-0.1,0c-0.4-0.4-0.9-0.9-1.3-1.3c-0.5-0.4-0.7-0.4-1.2,0c-0.3,0.3-0.5,0.5-0.8,0.8l0,0c-0.2,0.2-0.4,0.4-0.5,0.5
				C0.1,35.4,0,35.5,0,35.7c0,0.1,0,0.3,0.2,0.4l1.5,1.5c0,0,0,0.1,0,0.1s0,0.1,0,0.1c-0.4,0.4-0.9,0.9-1.4,1.4
				C0.1,39.3,0,39.4,0,39.6s0.1,0.3,0.2,0.5l0.3,0.3c0.4,0.4,0.7,0.7,1.1,1.1c0,0,0,0.1,0,0.1s0,0.1,0,0.1c-0.3,0.3-0.6,0.6-0.8,0.8
				l0,0c-0.2,0.2-0.3,0.3-0.5,0.5l-0.1,0.1l0,0.7l0.8,0.8c0.3,0.3,0.5,0.5,0.8,0.8c0,0,0,0.1,0,0.1s0,0.1,0,0.1
				c-0.4,0.4-0.9,0.9-1.4,1.4c-0.1,0.1-0.2,0.4-0.1,0.5c0.1,0.5,0.3,0.8,0.6,0.9c0.2,0.2,0.4,0.4,0.6,0.5c0.1,0.1,0.3,0.2,0.4,0.4
				c0,0,0,0.1,0,0.1s0,0.1-0.1,0.1c0,0-0.1,0.1-0.1,0.1c-0.4,0.4-0.5,0.5-0.2,1.1c0.3,0.5,0.5,1,0.8,1.5l0.2,0.5
				c0,0.1,0.1,0.1,0.1,0.2c0,0,0,0,0,0l0.2,0.4l0.8-0.8c0,0,0.1,0,0.1,0h0c0,0,0.1,0,0.1,0c0.1,0.1,0.1,0.2,0.2,0.2
				c0.4,0.4,0.7,0.7,1.1,1.1c0,0,0,0.1,0,0.1c0,0,0,0.1,0,0.1c-0.2,0.1-0.2,0.2-0.3,0.2c-0.1,0.1-0.1,0.1-0.3,0.3
				c0,0-0.1,0.1-0.1,0.1C4,54.9,4,55.1,4.3,55.5L4.4,55.6z M11.9,35.1L11.9,35.1c-0.2,0-0.2-0.1-0.3-0.1l-0.3-0.3
				c-0.3-0.3-0.5-0.5-0.8-0.8c0,0,0-0.1,0-0.1c0,0,0-0.1,0-0.1c0.4-0.4,0.9-0.9,1.3-1.3c0.1-0.1,0.1-0.1,0.2,0
				c0.2,0.2,0.3,0.3,0.5,0.5c0.3,0.3,0.5,0.5,0.8,0.8c0.1,0,0.1,0.1,0,0.2l-0.1,0.1l0,0l0,0c-0.4,0.4-0.8,0.9-1.2,1.3
				c0,0-0.1,0-0.1,0l0,0c0,0-0.1,0-0.1,0L11.9,35.1L11.9,35.1z M13.4,41.7c-0.4,0.4-0.8,0.8-1.3,1.3c0,0-0.1,0-0.1,0
				c0,0-0.1,0-0.1,0c-0.4-0.4-0.8-0.8-1.2-1.2l-0.1-0.1c-0.1,0-0.1-0.1,0-0.2c0.2-0.2,0.5-0.5,0.7-0.7l0,0c0.2-0.2,0.4-0.4,0.6-0.6
				c0,0,0.1-0.1,0.1,0c0,0,0.1,0,0.1,0l0.4,0.4c0.3,0.3,0.6,0.6,0.9,0.9C13.4,41.5,13.4,41.6,13.4,41.7z M13.4,45.6
				c-0.4,0.4-0.8,0.8-1.2,1.2l-0.1,0.1c0,0-0.1,0-0.1,0c0,0-0.1,0-0.1,0l-0.1-0.1c-0.4-0.4-0.7-0.8-1.1-1.1l-0.2-0.2
				c0-0.1,0-0.1,0-0.2L11,45l0,0l0.1,0c0.3-0.3,0.5-0.5,0.8-0.8c0,0,0,0,0.1-0.1c0,0,0.1,0,0.1,0c0.1,0.1,0.2,0.1,0.3,0.2
				c0.2,0.2,0.4,0.4,0.6,0.6c0.2,0.2,0.3,0.3,0.5,0.5C13.5,45.5,13.4,45.6,13.4,45.6z M13.4,57.3c-0.3,0.3-0.5,0.5-0.8,0.8l-0.6,0.6
				c0,0-0.1,0-0.1,0s-0.1,0-0.1,0c-0.4-0.4-0.9-0.9-1.3-1.3c0-0.1,0-0.1,0-0.2c0.4-0.4,0.9-0.9,1.4-1.4c0.1-0.1,0.1-0.1,0.2,0
				c0.4,0.4,0.9,0.9,1.3,1.3C13.5,57.2,13.5,57.3,13.4,57.3z M15.9,47C15.9,47,15.8,47,15.9,47c-0.5-0.4-0.9-0.9-1.3-1.3l-0.1-0.1
				c-0.1-0.1-0.1-0.1,0-0.2l0.6-0.6l0,0l0.8-0.8c0,0,0.1,0,0.1,0l0,0c0,0,0.1,0,0.1,0l0.4,0.4c0.3,0.3,0.6,0.6,0.9,0.9
				c0.1,0.1,0.1,0.1,0,0.2C16.8,46.1,16.4,46.5,15.9,47C16,47,15.9,47,15.9,47z M14.5,41.7C14.4,41.7,14.4,41.7,14.5,41.7
				c0-0.1,0-0.2,0-0.2c0.2-0.2,0.4-0.4,0.6-0.6l0.1-0.1c0.2-0.2,0.5-0.5,0.7-0.7c0.1-0.1,0.1,0,0.2,0c0.2,0.2,0.4,0.4,0.6,0.6
				l0.1,0.1c0.2,0.2,0.5,0.5,0.7,0.7c0,0,0,0.1,0,0.1s0,0.1,0,0.1c-0.4,0.4-0.8,0.8-1.2,1.2L15.9,43c0,0-0.1,0-0.1,0s-0.1,0-0.1,0
				l-0.4-0.4C15.1,42.4,14.8,42,14.5,41.7z M21.2,49.5l-0.6,0.6c-0.3,0.3-0.5,0.5-0.8,0.8c0,0-0.1,0-0.1,0s-0.1,0-0.1,0
				c-0.4-0.4-0.8-0.8-1.3-1.3c-0.1-0.1,0-0.1,0-0.2c0.4-0.4,0.9-0.9,1.3-1.3c0.1-0.1,0.1-0.1,0.2,0l0.6,0.6c0.3,0.3,0.5,0.5,0.8,0.8
				C21.3,49.4,21.3,49.4,21.2,49.5C21.3,49.5,21.3,49.5,21.2,49.5z M25.1,53.4c-0.4,0.4-0.9,0.9-1.3,1.3c0,0-0.1,0-0.1,0
				c0,0-0.1,0-0.1,0c-0.4-0.4-0.9-0.9-1.3-1.3l-0.1-0.1c0,0,0-0.1,0-0.1c0,0,0-0.1,0-0.1l1.4-1.3c0.1-0.1,0.1-0.1,0.2,0
				c0.2,0.2,0.4,0.4,0.6,0.6c0.3,0.3,0.5,0.5,0.8,0.8C25.2,53.3,25.2,53.4,25.1,53.4z M23.4,38.9c-0.4-0.4-0.7-0.7-1.1-1.1
				c0,0,0,0,0,0c0-0.1,0-0.1,0-0.1l0.1-0.1l0,0c0.4-0.4,0.8-0.8,1.2-1.2c0,0,0.1,0,0.1,0l0,0c0,0,0.1,0,0.1,0
				c0.3,0.3,0.6,0.6,0.8,0.8l0.5,0.5c0.1,0.1,0.1,0.1,0,0.2l-1.3,1.3c0,0-0.1,0-0.1,0c0,0-0.1,0-0.1,0L23.4,38.9z M29,41.7
				c-0.4,0.4-0.9,0.9-1.3,1.3c0,0-0.1,0-0.1,0c0,0-0.1,0-0.1,0c-0.5-0.4-0.9-0.9-1.3-1.3c-0.1-0.1-0.1-0.1,0-0.2
				c0.4-0.4,0.9-0.9,1.3-1.3c0,0,0.1,0,0.1,0c0,0,0.1,0,0.1,0c0.4,0.4,0.9,0.9,1.3,1.3C29.1,41.6,29.1,41.7,29,41.7z M29,18.3
				c-0.3,0.3-0.6,0.6-0.9,0.9l0,0c-0.1,0.1-0.3,0.3-0.4,0.4c0,0-0.1,0-0.1,0l0,0c0,0-0.1,0-0.1,0l-0.3-0.3c-0.3-0.4-0.7-0.7-1-1.1
				c-0.1-0.1-0.1-0.1,0-0.2c0.4-0.4,0.8-0.8,1.2-1.2l0.2-0.2c0,0,0.1,0,0.1,0c0,0,0.1,0,0.1,0c0.4,0.4,0.8,0.9,1.3,1.4
				C29,18.1,29,18.2,29,18.3C29,18.2,29,18.3,29,18.3z M29,22.1C29,22.1,29,22.2,29,22.1c-0.5,0.6-1,1-1.4,1.4c0,0-0.1,0-0.1,0
				c0,0-0.1,0-0.1,0c-0.3-0.3-0.6-0.6-0.8-0.8l-0.5-0.5c-0.1-0.1-0.1-0.1,0-0.2c0.4-0.4,0.9-0.9,1.3-1.3c0.1,0,0.1,0,0.2,0
				c0.4,0.4,0.8,0.8,1.2,1.2L29,22.1C29,22,29,22.1,29,22.1z M26.1,25.9c0.4-0.4,0.9-0.9,1.3-1.3c0.1-0.1,0.1-0.1,0.2,0l0.3,0.3
				c0.3,0.3,0.7,0.7,1,1C29,26,29,26,29,26.1c-0.5,0.5-0.9,0.9-1.3,1.3c0,0-0.1,0-0.1,0c0,0-0.1,0-0.1,0l-1.4-1.3
				C26.1,26.1,26.1,26,26.1,25.9C26.1,26,26.1,25.9,26.1,25.9z M29,29.9C29,29.9,29,30,29,29.9c-0.5,0.5-0.9,0.9-1.4,1.4
				c0,0-0.1,0-0.1,0c0,0-0.1,0-0.1,0c-0.3-0.3-0.6-0.6-0.9-0.9L26.2,30c-0.1-0.1-0.1-0.1,0-0.2c0.4-0.4,0.9-0.9,1.3-1.3
				c0,0,0.1,0,0.1,0l0,0c0,0,0.1,0,0.1,0l0,0c0.2,0.2,0.4,0.4,0.6,0.6l0.1,0.1C28.6,29.4,28.8,29.6,29,29.9C29,29.8,29,29.9,29,29.9
				z M32.9,53.4c-0.4,0.5-0.9,0.9-1.3,1.4c0,0-0.1,0-0.1,0c0,0-0.1,0-0.1,0c-0.3-0.3-0.6-0.6-0.9-0.9l-0.4-0.4c0,0,0-0.1,0-0.1
				s0-0.1,0-0.1l0,0l0,0c0.4-0.4,0.9-0.9,1.3-1.3c0.1,0,0.1-0.1,0.2,0c0.3,0.3,0.5,0.5,0.8,0.8l0.6,0.5C33,53.3,33,53.4,32.9,53.4z
				 M31.4,44.1c0,0,0.1,0,0.2,0c0.4,0.4,0.9,0.8,1.3,1.3c0,0.1,0.1,0.1,0,0.2c-0.5,0.5-0.9,0.9-1.3,1.4c0,0-0.1,0-0.1,0
				c0,0-0.1,0-0.1,0c-0.2-0.2-0.3-0.3-0.5-0.5l-0.1-0.1c-0.2-0.2-0.5-0.5-0.7-0.7c0,0,0-0.1,0-0.1s0-0.1,0-0.1
				c0.2-0.2,0.5-0.4,0.7-0.7l0.1-0.1C31,44.5,31.2,44.3,31.4,44.1z M31.4,31.3c-0.2-0.2-0.4-0.4-0.7-0.7l-0.1-0.1
				c-0.2-0.2-0.4-0.4-0.6-0.6c0,0,0-0.1,0-0.1s0-0.1,0-0.1c0.5-0.4,0.9-0.9,1.3-1.3c0,0,0.1,0,0.1,0c0,0,0.1,0,0.1,0
				c0.4,0.4,0.9,0.9,1.3,1.3c0,0,0,0.1,0,0.1c0,0,0,0.1,0,0.1l-0.6,0.6c-0.3,0.2-0.5,0.5-0.7,0.7c0,0-0.1,0-0.1,0
				C31.5,31.4,31.5,31.4,31.4,31.3C31.4,31.3,31.4,31.3,31.4,31.3z M36.8,34c-0.2,0.2-0.4,0.4-0.6,0.6l0,0c-0.2,0.2-0.5,0.5-0.7,0.7
				c0,0-0.1,0-0.1,0c0,0-0.1,0-0.1,0c0,0,0,0-0.1,0c-0.4-0.4-0.9-0.9-1.3-1.3c-0.1-0.1-0.1-0.1,0-0.2c0.4-0.4,0.8-0.8,1.2-1.2
				l0.1-0.1c0,0,0.1,0,0.1,0s0.1,0,0.1,0c0.5,0.5,0.9,0.9,1.4,1.4C36.9,33.8,36.9,33.9,36.8,34z M40.7,45.6
				c-0.3,0.3-0.6,0.6-0.9,0.9L39.4,47c0,0-0.1,0-0.1,0l0,0c0,0-0.1,0-0.1,0c-0.2-0.2-0.5-0.5-0.7-0.7c-0.2-0.2-0.5-0.5-0.7-0.7
				c-0.1-0.1-0.1-0.1,0-0.2c0.5-0.5,0.9-0.9,1.3-1.3c0.1-0.1,0.1-0.1,0.2,0c0.4,0.4,0.9,0.9,1.4,1.4C40.8,45.5,40.8,45.6,40.7,45.6z
				 M39.8,31.8c0.5-0.5,0.9-0.9,1.4-1.4c0,0,0.1,0,0.2,0c0.5,0.5,0.9,0.9,1.4,1.4c0,0,0,0.1,0,0.1c0,0,0,0.1,0,0.1
				c-0.5,0.5-0.9,0.9-1.4,1.3c0,0-0.1,0-0.1,0s-0.1,0-0.1,0l-0.5-0.5l0,0l-0.1-0.1c-0.3-0.3-0.5-0.5-0.7-0.7
				C39.8,31.9,39.8,31.8,39.8,31.8z M39.2,36.3c0.1,0,0.1-0.1,0.2,0c0.2,0.2,0.3,0.3,0.5,0.5l0.1,0.1c0.3,0.3,0.5,0.5,0.8,0.8
				c0,0,0,0.1,0,0.1c0,0,0,0.1,0,0.1c-0.4,0.4-0.8,0.9-1.3,1.4c0,0-0.1,0-0.1,0l0,0c0,0-0.1,0-0.1,0l-0.1-0.1
				c-0.4-0.4-0.9-0.9-1.3-1.3c-0.1-0.1,0-0.1,0-0.2C38.4,37.1,38.8,36.7,39.2,36.3z M37.4,26.5C37.4,26.5,37.4,26.5,37.4,26.5
				c0.5,0.5,1,1,1.5,1.4c0.1,0.1,0.1,0.1,0,0.2c-0.2,0.2-0.5,0.5-0.7,0.7l0,0l-0.6,0.6c0,0-0.1,0-0.1,0c0,0-0.1,0-0.1,0
				c-0.4-0.4-0.9-0.8-1.4-1.4c-0.1-0.1-0.1-0.1,0-0.2C36.4,27.4,36.9,26.9,37.4,26.5C37.3,26.5,37.3,26.5,37.4,26.5z M36.8,22.2
				c-0.4,0.4-0.8,0.9-1.3,1.3c0,0-0.1,0-0.1,0c0,0-0.1,0-0.1,0c-0.5-0.5-0.9-1-1.3-1.3c0,0,0-0.1,0-0.1c0,0,0-0.1,0-0.1l0.6-0.6
				c0.2-0.3,0.5-0.5,0.7-0.8c0,0,0.1,0,0.1,0s0.1,0,0.1,0c0.3,0.3,0.6,0.6,0.8,0.8l0.5,0.5C36.9,22.1,36.9,22.1,36.8,22.2z M34,18.2
				l1.3-1.3c0.1-0.1,0.1-0.1,0.2,0l0.1,0.1c0.4,0.4,0.8,0.8,1.2,1.2c0.1,0.1,0,0.1,0,0.2c-0.3,0.3-0.6,0.6-0.9,0.9l-0.4,0.4
				c0,0-0.1,0-0.1,0l0,0c0,0-0.1,0-0.1,0c-0.4-0.5-0.9-0.9-1.3-1.3C33.9,18.3,33.9,18.3,34,18.2C33.9,18.2,33.9,18.2,34,18.2z
				 M33.3,38.2c0.1-0.1,0.1-0.1,0.2,0c0.4,0.4,0.9,0.9,1.4,1.4c0.1,0.1,0,0.1,0,0.2c-0.2,0.2-0.4,0.4-0.6,0.6l-0.1,0.1
				c-0.2,0.2-0.4,0.4-0.6,0.6c0,0-0.1,0-0.1,0s-0.1,0-0.1,0c-0.5-0.5-0.9-1-1.4-1.4c0,0,0-0.1,0-0.1s0-0.1,0-0.1l0.1-0.1
				C32.6,39,32.9,38.6,33.3,38.2z M30,14.2C30.1,14.2,30.1,14.2,30,14.2c0.5-0.5,0.8-0.8,1.2-1.2l0,0l0.2-0.2c0,0,0,0,0.1,0
				c0,0,0.1,0,0.1,0c0.3,0.4,0.7,0.8,1.1,1.2c0.1,0.1,0.1,0.1,0.2,0.2c0,0,0.1,0.1,0.1,0.1c0,0,0,0.1,0,0.1
				c-0.4,0.4-0.9,0.9-1.3,1.3c0,0-0.1,0-0.1,0c0,0-0.1,0-0.1,0l-0.1-0.1c-0.4-0.4-0.8-0.8-1.3-1.2C30,14.4,30,14.3,30,14.2
				C30,14.3,30,14.2,30,14.2z M33,18.2C33,18.2,33,18.3,33,18.2c-0.1,0.1-0.1,0.1-0.1,0.2l0,0l-0.3,0.2c-0.3,0.3-0.7,0.7-1,1
				c0,0-0.1,0-0.1,0c0,0-0.1,0-0.1,0c-0.4-0.4-0.9-0.9-1.3-1.3c-0.1-0.1-0.1-0.1,0-0.2l0.1-0.1c0.4-0.4,0.8-0.8,1.3-1.3
				c0.1,0,0.1,0,0.2,0L33,18.2C33,18.1,33,18.2,33,18.2z M30.1,22c0.5-0.5,1-0.9,1.4-1.3c0.1,0,0.1,0,0.2,0c0.5,0.5,0.9,0.9,1.3,1.3
				c0,0.1,0,0.1,0,0.2l-0.6,0.6l0,0c-0.2,0.2-0.5,0.5-0.7,0.7c0,0-0.1,0-0.1,0l0,0c0,0-0.1,0-0.1,0c-0.2-0.2-0.4-0.4-0.6-0.6l0,0
				c-0.2-0.2-0.5-0.5-0.7-0.7C30,22.2,30,22.1,30.1,22C30,22.1,30,22,30.1,22z M30,25.9c0.3-0.3,0.6-0.6,0.9-0.9l0.4-0.4
				c0.1-0.1,0.1-0.1,0.2,0c0.5,0.5,0.9,0.9,1.4,1.4c0,0,0,0.1,0,0.1c0,0,0,0.1,0,0.1l-0.5,0.5l0,0l-0.8,0.8c0,0-0.1,0-0.1,0
				c0,0-0.1,0-0.1,0l0,0c-0.4-0.4-0.9-0.9-1.3-1.3C30,26.1,30,26.1,30,25.9C30,26,30,26,30,25.9z M29.6,34.4
				c0.4,0.4,0.8,0.8,1.2,1.2l0.2,0.2c0.1,0.1,0.1,0.1,0,0.2c-0.4,0.4-0.8,0.9-1.3,1.3c0,0-0.1,0-0.1,0l0,0c0,0-0.1,0-0.1,0
				c-0.4-0.4-0.8-0.9-1.4-1.4c0,0,0-0.1,0-0.1s0-0.1,0-0.1c0.2-0.2,0.4-0.4,0.6-0.6c0.2-0.2,0.5-0.5,0.7-0.7
				C29.5,34.3,29.6,34.3,29.6,34.4z M26.1,14.2c0.3-0.3,0.7-0.7,1-1l0.4-0.4c0,0,0.1-0.1,0.2,0l0,0l0.3,0.3c0.3,0.3,0.7,0.6,1,1l0,0
				c0,0,0.1,0.1,0.1,0.1c0,0,0,0.1,0,0.1s0,0.1,0,0.1c-0.4,0.4-0.9,0.9-1.4,1.3c0,0-0.1,0-0.1,0c0,0-0.1,0-0.1,0
				c-0.2-0.1-0.3-0.3-0.4-0.4l-0.1-0.1c-0.3-0.3-0.5-0.5-0.8-0.8C26.1,14.3,26.1,14.2,26.1,14.2z M25.7,46.1
				c0.4,0.4,0.8,0.8,1.3,1.2l0.1,0.1c0.1,0.1,0.1,0.1,0,0.2c-0.4,0.4-0.9,0.9-1.3,1.3c0,0-0.1,0-0.1,0c0,0-0.1,0-0.1,0l-0.3-0.3
				c-0.4-0.4-0.7-0.7-1.1-1.1c-0.1-0.1,0-0.1,0-0.2c0.4-0.4,0.8-0.8,1.3-1.3C25.6,46,25.7,46,25.7,46.1z M25.2,33.8
				C25.2,33.9,25.2,33.9,25.2,33.8c-0.3,0.3-0.5,0.6-0.8,0.8l0,0c-0.2,0.2-0.4,0.4-0.6,0.5c0,0-0.1,0-0.1,0c0,0-0.1,0-0.1,0
				c-0.3-0.3-0.6-0.6-0.9-0.9l-0.4-0.4c-0.1-0.1-0.1-0.1,0-0.2l0.4-0.4c0.3-0.3,0.6-0.6,0.9-0.9c0.1-0.1,0.1-0.1,0.2,0l0.5,0.5
				C24.6,33.2,24.8,33.5,25.2,33.8C25.2,33.8,25.2,33.8,25.2,33.8z M25.1,30C25.1,30,25.1,30,25.1,30c-0.2,0.2-0.3,0.3-0.5,0.5
				l-0.1,0.1c-0.3,0.2-0.5,0.5-0.8,0.7c0,0-0.1,0-0.1,0c0,0-0.1,0-0.1,0c-0.4-0.3-0.7-0.6-1-1c-0.1-0.1-0.2-0.2-0.3-0.3
				c0-0.1,0-0.1,0-0.2c0.4-0.5,0.9-0.9,1.3-1.3c0,0,0.1,0,0.1,0c0,0,0.1,0,0.1,0c0.5,0.5,0.9,0.9,1.4,1.4C25.2,29.9,25.2,30,25.1,30
				z M25.1,26.1c-0.2,0.2-0.3,0.4-0.5,0.5l0,0c-0.3,0.3-0.5,0.5-0.8,0.8c0,0-0.1,0-0.1,0l0,0c0,0-0.1,0-0.1,0
				c-0.4-0.4-0.9-0.9-1.3-1.3c0,0,0-0.1,0-0.1c0,0,0-0.1,0-0.1c0.3-0.3,0.7-0.7,1-1l0.3-0.3c0,0,0.1,0,0.1,0c0,0,0.1,0,0.1,0
				c0.1,0.1,0.3,0.3,0.4,0.4c0.1,0.1,0.2,0.2,0.4,0.4l0,0c0.2,0.2,0.3,0.3,0.5,0.5C25.1,26,25.1,26,25.1,26.1z M22.2,22
				c0.4-0.4,0.9-0.9,1.3-1.4c0,0,0,0,0.1,0c0,0,0.1,0,0.1,0l1.3,1.4c0,0.1,0,0.1,0,0.2L25,22.3l0,0c-0.1,0.1-0.1,0.1-0.2,0.2
				l-0.3,0.3c-0.3,0.3-0.5,0.5-0.8,0.8c0,0-0.1,0-0.1,0l0,0c0,0-0.1,0-0.1,0l-0.5-0.4c-0.3-0.3-0.6-0.6-0.9-0.9
				C22.2,22.1,22.2,22,22.2,22z M21.7,42.1C21.7,42.1,21.7,42.1,21.7,42.1c0.1,0,0.2,0,0.2,0l1.4,1.4c0.1,0.1,0.1,0.1,0,0.2L21.9,45
				c0,0-0.1,0-0.1,0l0,0c0,0-0.1,0-0.1,0l-0.3-0.3c-0.4-0.4-0.7-0.7-1.1-1.1c0-0.1,0-0.1,0-0.2C20.8,43,21.2,42.6,21.7,42.1
				L21.7,42.1z M21.3,37.7C21.3,37.8,21.3,37.8,21.3,37.7c-0.4,0.4-0.7,0.7-1,1.1l-0.4,0.4c0,0-0.1,0-0.1,0s-0.1,0-0.1,0
				c-0.2-0.2-0.3-0.3-0.5-0.5l-0.1-0.1c-0.2-0.2-0.5-0.5-0.7-0.7c0,0,0-0.1,0-0.1s0-0.1,0-0.1l0,0l0.2-0.2c0.4-0.4,0.8-0.8,1.2-1.1
				c0,0,0.1,0,0.1,0l0,0c0,0,0.1,0,0.1,0c0.4,0.4,0.8,0.8,1.1,1.1L21.3,37.7C21.3,37.7,21.3,37.7,21.3,37.7z M18.3,30
				C18.3,29.9,18.3,29.9,18.3,30c0.4-0.4,0.7-0.8,1.1-1.1l0.4-0.4c0,0,0.1,0,0.1,0l0,0c0,0,0.1,0,0.1,0l0.1,0.1c0.3,0.3,0.7,0.7,1,1
				c0.1,0.1,0.1,0.1,0.2,0.2c0,0.1,0,0.1,0,0.2c-0.4,0.4-0.8,0.9-1.2,1.3l-0.1,0.1c0,0-0.1,0-0.1,0c0,0-0.1,0-0.1,0L18.3,30
				C18.3,30,18.3,30,18.3,30z M21.2,33.9c-0.4,0.4-0.9,0.8-1.3,1.3c0,0-0.1,0-0.1,0c0,0-0.1,0-0.1,0c-0.3-0.3-0.5-0.5-0.8-0.8
				l-0.5-0.5c-0.1,0-0.1-0.1,0-0.2l0.4-0.5c0.3-0.3,0.5-0.6,0.8-0.9c0,0,0.1,0,0.1,0c0,0,0.1,0,0.1,0c0.5,0.5,1,0.9,1.4,1.4
				C21.2,33.8,21.2,33.8,21.2,33.9C21.2,33.9,21.2,33.9,21.2,33.9z M18.3,22l0.5-0.5c0.3-0.3,0.6-0.6,0.8-0.8c0.1-0.1,0.1,0,0.2,0
				l0.6,0.6c0.2,0.2,0.5,0.5,0.7,0.7c0,0,0,0.1,0,0.1c0,0,0,0.1,0,0.1c-0.3,0.3-0.6,0.6-0.9,0.9l-0.4,0.4c0,0-0.1,0-0.1,0
				c0,0-0.1,0-0.1,0l-1.3-1.3C18.3,22.1,18.3,22.1,18.3,22C18.3,22,18.3,22,18.3,22z M18.3,25.9c0.4-0.4,0.9-0.8,1.4-1.3
				c0.1,0,0.1,0,0.2,0c0.4,0.4,0.9,0.9,1.3,1.3c0,0,0,0.1,0,0.1c0,0,0,0.1,0,0.1l-0.5,0.5c-0.3,0.3-0.6,0.6-0.9,0.8c0,0-0.1,0-0.1,0
				c0,0-0.1,0-0.1,0c0,0-0.1-0.1-0.1-0.1c-0.2-0.2-0.5-0.5-0.7-0.7l0,0c-0.2-0.2-0.3-0.4-0.5-0.5C18.3,26,18.3,26,18.3,25.9
				C18.3,25.9,18.3,25.9,18.3,25.9z M17.8,53.8C17.8,53.8,17.8,53.8,17.8,53.8L17.8,53.8c0.1,0,0.2,0,0.2,0c0.4,0.4,0.9,0.9,1.4,1.4
				c0,0.1,0,0.1,0,0.2L18.7,56c-0.2,0.2-0.5,0.5-0.7,0.7c0,0-0.1,0-0.1,0c0,0-0.1,0-0.1,0c-0.2-0.2-0.5-0.5-0.7-0.7l0,0
				c-0.2-0.2-0.4-0.4-0.6-0.6c-0.1-0.1-0.1-0.1,0-0.2C16.9,54.7,17.3,54.2,17.8,53.8z M17.3,33.8C17.3,33.9,17.3,33.9,17.3,33.8
				c-0.5,0.5-1,1-1.4,1.4c0,0-0.1,0-0.1,0c0,0-0.1,0-0.1,0c-0.2-0.2-0.5-0.5-0.7-0.7L15,34.4c-0.2-0.2-0.3-0.3-0.5-0.5
				c-0.1,0-0.1-0.1,0-0.2c0.1-0.1,0.2-0.2,0.2-0.3l0,0c0.1-0.1,0.2-0.3,0.3-0.4c0.2-0.2,0.5-0.5,0.7-0.7c0.1,0,0.1,0,0.2,0
				C16.4,32.8,16.8,33.3,17.3,33.8C17.3,33.8,17.3,33.8,17.3,33.8z M14.4,29.8C14.5,29.8,14.5,29.7,14.4,29.8l1.3-1.3
				c0.1-0.1,0.1-0.1,0.2,0c0.4,0.4,0.9,0.9,1.3,1.3c0.1,0.1,0.1,0.1,0,0.2c-0.5,0.5-0.9,0.9-1.3,1.3l0,0c0,0-0.1,0-0.1,0
				c0,0-0.1,0-0.1,0l-0.1-0.1c-0.5-0.5-0.8-0.9-1.2-1.3C14.4,30,14.4,29.9,14.4,29.8C14.4,29.9,14.4,29.8,14.4,29.8z M14.4,37.6
				C14.5,37.5,14.5,37.5,14.4,37.6c0.3-0.3,0.5-0.5,0.7-0.7l0,0c0.2-0.2,0.5-0.4,0.7-0.6c0.1,0,0.1,0,0.2,0c0.5,0.5,0.9,0.9,1.3,1.3
				c0,0,0.1,0.1,0,0.2c-0.4,0.4-0.8,0.8-1.3,1.4c0,0,0,0-0.1,0.1c0,0-0.1,0-0.1,0c0,0-0.1,0-0.1,0c-0.4-0.4-0.9-0.9-1.3-1.4l0-0.1
				C14.4,37.7,14.4,37.6,14.4,37.6z M14,50c0.4,0.4,0.8,0.8,1.2,1.2l0.2,0.2c0.1,0.1,0.1,0.1,0,0.2l-0.6,0.6
				c-0.2,0.2-0.5,0.5-0.7,0.7c0,0-0.1,0-0.1,0c0,0-0.1,0-0.1,0c-0.5-0.5-1-0.9-1.4-1.3c0,0,0-0.1,0-0.1c0,0,0-0.1,0-0.1l0.1-0.1l0,0
				l0.1-0.1c0.4-0.4,0.8-0.8,1.2-1.2C13.9,49.9,14,49.9,14,50z M13.4,37.8c-0.4,0.4-0.9,0.9-1.3,1.3c0,0-0.1,0-0.1,0c0,0,0,0,0,0
				c0,0-0.1,0-0.1,0c0,0-0.1-0.1-0.1-0.1l-0.3-0.3c-0.3-0.3-0.7-0.7-1-1c-0.1,0-0.1-0.1,0-0.2c0.1-0.1,0.3-0.3,0.4-0.4
				c0.1-0.1,0.2-0.2,0.3-0.3l0,0c0.2-0.2,0.4-0.3,0.5-0.5l0-0.1c0,0,0.1,0,0.1,0c0,0,0.1,0,0.1,0c0.4,0.4,0.8,0.8,1.2,1.2l0.2,0.2
				C13.5,37.7,13.5,37.7,13.4,37.8z M10.5,29.8l0.4-0.4c0.3-0.3,0.7-0.7,1-1c0,0,0.1,0,0.1,0l0,0c0,0,0.1,0,0.1,0
				c0.3,0.3,0.5,0.5,0.7,0.8c0.2,0.2,0.3,0.3,0.5,0.5l0,0l0,0c0,0,0,0.1,0,0.1s0,0.1,0,0.1l-0.3,0.3c-0.4,0.4-0.7,0.7-1.1,1.1
				c0,0-0.1,0-0.1,0s-0.1,0-0.1,0c-0.4-0.4-0.8-0.8-1.3-1.2L10.5,30C10.5,30,10.5,29.9,10.5,29.8C10.5,29.9,10.5,29.8,10.5,29.8z
				 M6.6,49.5c0,0,0-0.1,0-0.1c0-0.1,0.1-0.1,0.1-0.1c0.4-0.4,0.8-0.8,1.1-1.1L8,48c0,0,0.1,0,0.2,0l0.1,0.1c0,0,0,0,0.1,0
				c0.4,0.4,0.8,0.8,1.2,1.3c0,0,0,0.1,0,0.1c0,0,0,0.1,0,0.1c-0.1,0.1-0.2,0.2-0.3,0.2C9.1,49.9,9,50,8.8,50.2l-0.1,0.1
				c-0.2,0.2-0.4,0.4-0.6,0.6c0,0-0.1,0-0.1,0c0,0-0.1,0-0.1,0C7.6,50.4,7.1,50,6.6,49.5C6.6,49.6,6.6,49.5,6.6,49.5z M9.5,53.4
				c-0.5,0.5-1,1-1.4,1.4c0,0-0.1,0-0.1,0l0,0c0,0-0.1,0-0.1,0c-0.4-0.4-0.8-0.8-1.2-1.2l-0.1-0.1c0-0.1,0-0.1,0-0.2l0.4-0.4
				c0.3-0.3,0.6-0.6,0.9-0.9c0,0,0.1,0,0.1,0l0,0c0,0,0.1,0,0.1,0c0.3,0.3,0.6,0.6,0.9,0.9l0.4,0.4C9.6,53.3,9.6,53.4,9.5,53.4z
				 M9.5,45.6l-0.1,0.1c-0.4,0.4-0.8,0.8-1.3,1.2c0,0-0.1,0-0.1,0c0,0-0.1,0-0.1,0c-0.3-0.3-0.6-0.5-0.8-0.8
				c-0.2-0.2-0.3-0.4-0.5-0.5c0,0,0-0.1,0-0.1s0-0.1,0-0.1c0.5-0.5,1-0.9,1.4-1.3c0,0,0,0,0,0c0,0,0.1,0,0.1,0
				c0.3,0.3,0.5,0.5,0.8,0.7l0.6,0.6C9.5,45.4,9.6,45.5,9.5,45.6C9.6,45.5,9.6,45.6,9.5,45.6z M9.5,41.7L9.2,42
				c-0.4,0.4-0.7,0.7-1.1,1.1c0,0-0.1,0-0.1,0l0,0c0,0-0.1,0-0.1,0l-0.2-0.2c-0.3-0.4-0.7-0.7-1-1.1c0,0-0.1-0.1-0.1-0.1
				c0,0,0-0.1,0-0.1c0.1-0.1,0.1-0.1,0.1-0.2c0.2-0.2,0.4-0.4,0.7-0.6c0.2-0.2,0.4-0.3,0.6-0.5c0.1,0,0.1,0,0.2,0
				C8.4,40.5,8.7,40.7,9,41l0.5,0.5C9.5,41.6,9.5,41.6,9.5,41.7z M6.6,37.6L8,36.2c0.1-0.1,0.1-0.1,0.2,0c0,0,0.1,0.1,0.1,0.1
				c0.2,0.2,0.5,0.5,0.7,0.7l0.6,0.6c0,0.1,0,0.1,0,0.2c-0.4,0.4-0.9,0.9-1.3,1.3c0,0-0.1,0-0.1,0c0,0-0.1,0-0.1,0l-0.5-0.5
				c-0.2-0.2-0.5-0.5-0.7-0.7c0,0-0.1-0.1-0.1-0.1C6.6,37.7,6.6,37.7,6.6,37.6C6.6,37.6,6.6,37.6,6.6,37.6z M2.7,37.6l0.5-0.5
				c0.3-0.3,0.5-0.5,0.8-0.8c0,0,0.1,0,0.1,0c0,0,0.1,0,0.1,0C4.6,36.7,5,37,5.4,37.4l0.2,0.2c0,0,0,0.1,0,0.1s0,0.1,0,0.1
				c-0.4,0.4-0.8,0.8-1.2,1.2l-0.1,0.1c0,0-0.1,0-0.1,0c0,0-0.1,0-0.1,0c-0.2-0.2-0.5-0.5-0.7-0.7l-0.6-0.6
				C2.7,37.7,2.7,37.6,2.7,37.6z M5.6,41.6C5.6,41.6,5.6,41.7,5.6,41.6l-0.5,0.5c-0.3,0.3-0.6,0.6-0.9,0.9c0,0-0.1,0-0.1,0
				c0,0-0.1,0-0.1,0c-0.1-0.1-0.2-0.2-0.2-0.3c-0.1-0.1-0.2-0.2-0.3-0.4c-0.2-0.2-0.5-0.5-0.7-0.7c0,0,0-0.1,0-0.1s0-0.1,0-0.1
				c0.4-0.4,0.8-0.8,1.3-1.3c0,0,0.1,0,0.2,0C4.7,40.7,5.2,41.1,5.6,41.6C5.6,41.5,5.6,41.6,5.6,41.6z M2.7,45.4
				c0.3-0.3,0.6-0.6,0.9-0.8l0.5-0.5c0,0,0.1,0,0.2,0c0.4,0.4,0.8,0.8,1.2,1.2l0.2,0.2c0.1,0.1,0,0.1,0,0.2L5.2,46
				c-0.3,0.3-0.6,0.6-1,1c0,0-0.1,0-0.1,0c0,0-0.1,0-0.1,0c-0.5-0.5-0.9-0.9-1.4-1.4C2.7,45.5,2.7,45.5,2.7,45.4
				C2.7,45.4,2.7,45.4,2.7,45.4z M4.3,50.8C4.3,50.8,4.3,50.8,4.3,50.8c-0.1,0.1-0.1,0.1-0.2,0.1c0,0-0.1,0-0.1,0c0,0,0,0-0.1-0.1
				l0,0c-0.1-0.1-0.3-0.3-0.4-0.4l-0.1-0.1c-0.3-0.3-0.5-0.5-0.8-0.8c0,0-0.1-0.1-0.1-0.1s0-0.1,0-0.1c0,0,0.1-0.1,0.1-0.1l0.5-0.5
				c0.3-0.3,0.5-0.6,0.8-0.8c0,0,0.1,0,0.1,0l0,0c0,0,0.1,0,0.1,0c0.3,0.3,0.6,0.6,0.8,0.8l0.5,0.5c0.1,0.1,0.1,0.1,0,0.2
				C5.2,49.9,4.8,50.3,4.3,50.8z"/>
		</g>
	</g>
</g>
</svg>
