<svg xmlns="http://www.w3.org/2000/svg" viewBox="0 0 126 24" preserveAspectRatio="xMinYMin slice">
                <path fill="#c00"
                  d="M39.7 10.5v7.1h-3.9v-5.5c0-2.2-.8-2.8-1.8-2.8-1.6 0-2.4 1.1-2.4 3.5v4.8h-3.9V1.4h3.1c.5 0 .8.2.8.8v5.7h.1c.8-1.2 2.1-1.9 3.8-1.9 3 0 4.2 2.2 4.2 4.5h0zM19 12c0-1.9 1.3-3.1 3.1-3.1.6 0 1.2.1 1.7.3.2.1.2.1.3.1h.1c.2 0 .4-.1.4-.4V6.5c-.8-.4-1.8-.6-2.9-.6-3.8 0-6.6 2.2-6.6 5.9s2.8 5.9 6.6 5.9c1 0 2.2-.1 3.1-.5v-2.9c-.7.3-1.5.6-2.4.6-1.8.1-3.4-1.1-3.4-2.9h0zm39.3-6c-1.6 0-3.1.6-4 2.2-.6-1.5-1.9-2.2-3.5-2.2-1.7 0-2.9.6-4.2 1.9 0 0-.3.3-.5.3-.1 0-.3-.1-.4-.1l-1.5-1.6c-.1-.1-.2-.2-.4-.2a.65.65 0 0 0-.6.6v10.7H47v-4.8c0-2.4.8-3.5 2.2-3.5 1.1 0 1.5 1 1.5 2.2v6.1h3.9v-4.8c0-2.4.8-3.5 2.2-3.5 1.1 0 1.5 1 1.5 2.2v6.1h3.9v-6.7c.1-3-.6-4.9-3.9-4.9zm-46.6.3c-.2 0-.3.1-.4.2l-.6.6c-.1.1-.2.2-.4.2-.1 0-.3 0-.4-.1-1-.8-2-1.3-3.5-1.3C3.1 5.9.5 8.5.5 11.8s2.6 5.9 5.9 5.9c1.5 0 2.5-.4 3.5-1.3.1 0 .3-.1.4-.1.2 0 .3.1.4.2l.6.6c.1.1.2.2.4.2a.65.65 0 0 0 .6-.6V7.2c0-.3-.3-.6-.6-.9h0zm-5.1 8.3c-1.4 0-2.5-1.2-2.5-2.6s1.1-2.6 2.5-2.6 2.5 1.1 2.5 2.6c0 1.4-1.1 2.6-2.5 2.6zm83.8-8.1c-.2 0-.3.1-.4.2l-.5.4c-.1.1-.2.2-.4.2-.1 0-.3 0-.4-.1-1-.8-2.1-1.3-3.5-1.3-3.3 0-5.9 2.6-5.9 5.9s2.6 5.9 5.9 5.9c1.5 0 2.5-.4 3.5-1.3.1 0 .3-.1.4-.1.2 0 .3.1.4.2l.6.6c.1.1.2.2.4.2a.65.65 0 0 0 .6-.6V7.2c0-.3-.3-.6-.7-.7h0zm-5 8.1c-1.4 0-2.5-1.2-2.5-2.6s1.1-2.6 2.5-2.6 2.5 1.1 2.5 2.6c0 1.4-1.1 2.6-2.5 2.6zm-8.6-2.2c0-3.3-1.4-6.3-5.7-6.2-3.5 0-6 2.2-6 5.9s2.8 5.9 6.5 5.9c1.4 0 2.9-.2 4.1-.7v-2.8c-1.1.5-2.2.8-3.4.8-1.9 0-3.1-.7-3.3-2.2h7.8v-.7h0zm-4-1.5h-3.4c-.3 0-.5-.2-.4-.5.2-1.1.8-1.9 2.1-1.9 1.4 0 2.1.9 2.2 1.9 0 .4-.2.5-.5.5h0zm43.8 1.1c0 1.7-1.3 3.1-2.9 3.1s-2.9-1.4-2.9-3.1 1.3-3.1 2.9-3.1 2.9 1.4 2.9 3.1zM113.9.4c-2.8 0-5.5.9-7.4 2.6-.2.2-.5.3-.8.3s-.6-.1-.8-.3l-1.3-1.3c-.1-.1-.3-.2-.6-.2-.4 0-.8.3-.8.8v19.4c0 .4.3.8.8.8.2 0 .4-.1.6-.2l1.3-1.3c.2-.2.5-.3.8-.3s.6.1.8.3c1.9 1.7 4.6 2.6 7.4 2.6A11.61 11.61 0 0 0 125.5 12 11.61 11.61 0 0 0 113.9.4h0zm6.9 17.7c0 .3-.2.5-.4.5h-.1c-.1 0-.3-.1-.3-.1l-.8-.8c-.1-.1-.3-.2-.5-.2s-.3.1-.5.2c-1.2 1.1-2.8 1.7-4.6 1.7-4 0-7.2-3.2-7.2-7.1v-.1c-.1-4.2 3.2-7.4 7.2-7.4 1.7 0 3.4.6 4.6 1.7.1.1.3.2.5.2s.4-.1.5-.2l.8-.8c.1-.1.2-.1.3-.1.3 0 .5.2.5.4v.1 12h0z" />
              </svg>
              