<svg xmlns="http://www.w3.org/2000/svg" viewBox="0 0 200 200" preserveAspectRatio="xMinYMin slice">
                <path fill="#004B8D" d="M0 0h200v200H0z"></path>
                <path fill="none" d="M0 0h200v200H0z"></path>
                <path fill="#FFF"
                  d="M32.1 35.9c0 4.7-3 6.7-6.5 6.7h-3.7V29.1h3.7c3.5 0 6.5 2 6.5 6.8m-2.1 0c0-2.8-1.3-4.8-4.5-4.8h-1.7v9.5h1.7c3.2 0 4.5-1.9 4.5-4.7m19.2 6.7H47l-1.1-3.2h-5.4l-1.1 3.2h-2.1l4.8-13.4h2.1l5 13.4zm-3.9-5l-1.1-3.1c-.3-1-.9-2.5-1-3.1-.2.6-.6 2.1-1 3.1l-1.1 3.1h4.2zm20.6-8.5h-2v5.4h-6.2v-5.4h-2v13.4h2v-6h6.2v6h2V29.1zm17.5 6.8c0 4.7-3 6.7-6.5 6.7h-3.7V29.1h3.7c3.6 0 6.5 2 6.5 6.8m-2 0c0-2.8-1.3-4.8-4.5-4.8h-1.7v9.5h1.7c3.1 0 4.5-1.9 4.5-4.7m19.1 6.7h-2.2l-1.1-3.2h-5.4l-1.1 3.2h-2.1l4.8-13.4h2.1l5 13.4zm-3.9-5l-1.1-3.1c-.3-1-.9-2.5-1-3.1-.2.6-.6 2.1-1 3.1l-1.1 3.1h4.2zm19.1 3H109V29.1h-2v13.4h8.7v-1.9zm15.5 0h-6.9v-4.2h3.9v-2h-3.9v-3.3h6.6v-2h-8.7v13.4h8.9v-1.9zm16.9-11.5h-2v5.4h-6.2v-5.4h-2v13.4h2v-6h6.2v6h2V29.1zM22 65.6h2V52.2h-2v13.4zm19.8-13.4h-2v10.1c-.2-.3-.8-1.3-1.1-1.9l-5.1-8.2h-2.1v13.4h2V55.5c.2.3.7 1.2 1 1.7l5.4 8.4h1.9V52.2zm16.6 9.6c0-2.4-1.7-3.2-4.3-4.1-2.3-.7-2.9-1.2-2.9-2.1 0-.9.7-1.7 2.2-1.7 1.3 0 2.3.4 3.1 1.3l1.4-1.4c-1.2-1.2-2.6-1.8-4.4-1.8-2.5 0-4.4 1.4-4.4 3.7 0 2.4 1.4 3.1 4.2 4 2.2.7 3 1.2 3 2.2 0 1.3-.9 2-2.8 2-1.3 0-2.6-.6-3.5-1.6l-1.4 1.4c1.1 1.3 2.8 2.2 4.8 2.2 3.5-.1 5-1.7 5-4.1M74 52.2h-9.9v2H68v11.5h2V54.2h4v-2zm6.8 13.4h2V52.2h-2v13.4zm18.6-13.4h-9.9v2h3.9v11.5h2V54.2h3.9v-2zm16.9 0h-2V60c0 2.5-1 3.8-3.1 3.8-2 0-3.1-1.4-3.1-3.9v-7.7h-2V60c0 3.7 1.7 5.9 5 5.9s5.2-2.1 5.2-5.8v-7.9zm16.4 0h-9.9v2h3.9v11.5h2V54.2h3.9v-2zm15.7 11.5h-6.9v-4.2h3.9v-2h-3.9v-3.3h6.6v-2h-8.7v13.4h8.9v-1.9zm12.4-7.5h-6.1v9.4h1.4v-4.2h2.7V60h-2.7v-2.5h4.7v-1.3zm8.2 4.7c0 2.9-1.6 4.9-4 4.9s-4-1.9-4-4.8 1.6-4.9 4-4.9 4 1.9 4 4.8m-1.4 0c0-2.1-1.1-3.5-2.6-3.5s-2.5 1.3-2.5 3.4c0 2.1 1.1 3.5 2.6 3.5 1.4.1 2.5-1.2 2.5-3.4m9.9-1.9c0 1.5-.8 2.4-2.1 2.8l1.9 3.8h-1.6l-1.9-3.7h-2.1v3.7h-1.4v-9.4h4.1c1.7 0 3.1.9 3.1 2.8m-1.4.1c0-1-.6-1.5-1.6-1.5h-2.7v3h2.7c.9 0 1.6-.5 1.6-1.5M38.6 89.7h-7.2v3.8h3.2c-.2 1.8-1.2 3.1-3.9 3.1-3 0-4.8-2.7-4.8-6.5 0-3.7 1.7-6.4 4.8-6.4 2.2 0 3.1 1.1 3.9 2.6l3.8-1.6c-1.3-3.1-3.5-5-7.6-5-5.3 0-9 4.3-9 10.4 0 6.4 3.5 10.4 8.8 10.4 4.7 0 8.1-2.9 8.1-8.1v-2.7zm20.7 6.5H49.2V80h-4v20.2h14.1v-4zm45-2.5c0 4.2-2.9 6.5-7.2 6.5H88V80h9.2c3.9 0 6.4 1.9 6.4 5.3 0 1.7-.8 3.1-2.1 3.9 1.6.8 2.8 2.3 2.8 4.5m-4.7-8c0-1.3-.7-1.9-2.5-1.9H92v3.8h5.3c1.7 0 2.3-.8 2.3-1.9m.6 8c0-1.7-.9-2.6-2.9-2.6H92v5.2h5.4c1.9 0 2.8-1 2.8-2.6m27.8 6.5h-4.4l-1.6-4.5h-7.4l-1.6 4.5h-4.3l7.7-20.2h3.9l7.7 20.2zm-7.4-8.3l-1.3-3.7c-.4-1.2-.8-2.4-1-3.1-.2.7-.6 2-1 3.1l-1.3 3.7h4.6zm27.6 4.3h-10.1V80h-4v20.2h14.1v-4zM39 114.6h-4v7.7h-8.3v-7.7h-4v20.2h4v-8.5H35v8.5h4v-20.2zm22.7 16.2H51.3v-4.9H57V122h-5.8v-3.5h10v-3.9h-14v20.2h14.4v-4zm25.1 3.9h-4.4l-1.6-4.5h-7.4l-1.6 4.5h-4.3l7.7-20.2h3.9l7.7 20.2zm-7.4-8.3l-1.3-3.7c-.4-1.2-.8-2.4-1-3.1-.2.7-.6 2-1 3.1l-1.3 3.7h4.6zm28.3 4.4H97.6v-16.2h-4v20.2h14.1v-4zm17.2-16.2h-15.6v4h5.8v16.2h4v-16.2h5.8v-4zm23.2 0h-4v7.7h-8.3v-7.7h-4v20.2h4v-8.5h8.3v8.5h4v-20.2zM39 169.3h-4.6l-3.6-7.3h-4.1v7.3h-4v-20.2h9.4c3.8 0 6.9 2.1 6.9 6.4 0 3-1.3 4.9-3.9 5.9l3.9 7.9zm-4.1-13.7c0-1.8-1.1-2.6-2.9-2.6h-5.3v5.2H32c1.9 0 2.9-.8 2.9-2.6m22.8 9.8H47.3v-4.9h5.8v-3.9h-5.8v-3.5h10v-3.9h-14v20.2h14.4v-4zm18.6-2.2c0-4.4-3.5-5.5-6.7-6.2-3.2-.7-4.1-1.2-4.1-2.4 0-.9.7-1.8 2.9-1.8 1.8 0 3.3.7 4.6 2.1l2.9-2.8c-1.9-2-4.2-3.2-7.3-3.2-4 0-7.2 2.2-7.2 5.9 0 4 2.6 5.2 6.3 6 3.8.9 4.5 1.4 4.5 2.7 0 1.5-1.1 2.2-3.5 2.2-1.9 0-3.7-.7-5.2-2.3l-2.9 2.6c1.5 2.2 4.5 3.7 7.8 3.7 5.5-.1 7.9-2.7 7.9-6.5m18.7 2.2H84.6v-4.9h5.8v-3.9h-5.8v-3.5h10v-3.9h-14v20.2H95v-4zm22.2 3.9h-4.4l-1.6-4.5h-7.4l-1.6 4.5h-4.3l7.7-20.2h3.9l7.7 20.2zm-7.4-8.3l-1.3-3.7c-.4-1.2-.8-2.4-1-3.1-.2.7-.6 2-1 3.1l-1.3 3.7h4.6zm27.5 8.3h-4.6L129 162h-4v7.3h-4v-20.2h9.4c3.8 0 6.9 2.1 6.9 6.4 0 3-1.3 4.9-3.9 5.9l3.9 7.9zm-4.2-13.7c0-1.8-1.1-2.6-2.9-2.6H125v5.2h5.3c1.8 0 2.8-.8 2.8-2.6m23.7-2.3c-1.3-2.6-3.6-4.5-7.4-4.5-5.3 0-9 4.3-9 10.4 0 6.4 3.5 10.4 8.8 10.4 3.7 0 6.1-1.7 7.5-4.6l-3.4-2c-1.1 1.8-2.1 2.6-3.9 2.6-3 0-4.8-2.8-4.8-6.4 0-3.7 1.7-6.4 4.8-6.4 1.8 0 3 .8 3.7 2.2l3.7-1.7m20.3-4.2h-4v7.7h-8.3v-7.7h-4v20.2h4v-8.5h8.3v8.5h4v-20.2zM85.9 87.6c0-.5-.1-1-.1-1.5-.3-3-1.6-5.8-3.8-7.9-2.5-2.5-5.9-3.9-9.5-3.9-7.4 0-13.4 6-13.4 13.4s6 13.4 13.4 13.4c6.8 0 12.4-5.1 13.2-11.7.1-.6.2-1.2.2-1.8zM72.5 99.8c-6.7 0-12.2-5.5-12.2-12.2 0-6.7 5.5-12.2 12.2-12.2 3.3 0 6.3 1.3 8.6 3.6.6.6 1.1 1.3 1.6 2-1.5-1.2-3.4-2-5.5-2-.4 0-.8.1-1.2.1-4.2.6-7.5 4.2-7.5 8.6 0 4.8 3.9 8.7 8.7 8.7 2.1 0 4-.8 5.5-2-2.2 3.2-6 5.4-10.2 5.4zm12-10.7c-.7 3.4-3.7 6-7.3 6-4.1 0-7.5-3.4-7.5-7.5 0-2.1.9-4 2.3-5.4-.4.7-.6 1.6-.6 2.4 0 3.2 2.6 5.8 5.8 5.8s5.8-2.6 5.8-5.8c0-.9-.2-1.7-.6-2.4 1.4 1.4 2.3 3.3 2.3 5.4 0 .5-.1 1-.2 1.5zm-2.7-4.4c0 2.5-2 4.6-4.6 4.6-.9 0-1.7-.3-2.5-.7.2 0 .4.1.7.1 2.2 0 4-1.8 4-4s-1.8-4-4-4c-.2 0-.4.1-.7.1.5-.3 1-.5 1.5-.6.3 0 .6-.1.9-.1.3 0 .6.1.9.1 2.2.4 3.8 2.3 3.8 4.5zm-9.2 0c0-1.5 1.2-2.8 2.8-2.8 1.5 0 2.8 1.2 2.8 2.8 0 1.5-1.2 2.8-2.8 2.8-1.5-.1-2.8-1.3-2.8-2.8z">
                </path>
              </svg>