<svg xmlns="http://www.w3.org/2000/svg" viewBox="0 0 321.7 97.5" style="enable-background:new 0 0 321.7 97.5" xml:space="preserve">
              <path d="M59.9 14.6 42.4.1c-.4-.3-.9-.1-1.1.6 0 0-1.1 3-1.5 4-.6 1.5-1.9 1.8-2.4 1.8s-10.1.7-10.1.7c-.5 0-.8.3-.8.8v.2s1.7 7.8 2.1 9.4c0 .2.1.4.1.6 0 1-.5 1.4-.9 1.7-.8.7-4.2 3-4.2 3-.3.2-.5.5-.5.8 0 .2.1.3.3.5 0 0 7.8 4.3 9.7 5.4.5.3.7.7.7 1.2 0 .9-.9 1.9-2.1 2.1-1.7.2-21.2 1.7-21.2 1.7-.4 0-.7.3-.6.5 0 .1 0 .2.1.4 0 0 2.3 3.3 3.2 4.4.4.4.5.8.5 1.2 0 .6-.4 1.2-.9 1.6C12.1 43.2.2 53.5.2 53.5c-.3.2-.4.6 1.1 0 1.4-.6 13-6 23.1-8.6 8.8-2.3 21.9-2.7 31.7-7.3S68.6 27.7 70 23.7c1.3-4.4-.2-11.7 1-14.5 1.1-2.6 1.9-3.2 1.8-3.3-.1-.1-.2-.1-.6.2-.6.5-1.7.6-3.2.9-2 .3-3.8 1.2-5.1 2.8-1.5 1.8-2.4 4.3-2.9 4.8-.4.3-.9.2-1.1 0z" style="fill:#d52b1e" />
              <path d="M188.3 78.5c4.4 0 6.7 2.4 6.7 2.4l-1.3 1.9s-2.1-2-5.3-2c-4.1 0-6.8 3.1-6.8 7s2.7 7.3 6.8 7.3c3.5 0 5.7-2.4 5.7-2.4l1.4 1.8s-2.5 2.9-7.1 2.9c-5.5 0-9.4-4.2-9.4-9.6 0-5.2 4-9.3 9.3-9.3zM204.1 89h.6v-.2c0-2.2-1.2-2.9-2.9-2.9-2 0-3.7 1.3-3.7 1.3l-1-1.8s1.9-1.6 4.9-1.6c3.3 0 5.2 1.8 5.2 5.2v8.3h-2.3V96c0-.6.1-1 .1-1h-.1s-1.1 2.6-4.2 2.6c-2.3 0-4.5-1.4-4.5-4-.1-4.4 5.7-4.6 7.9-4.6zm-2.9 6.5c2.1 0 3.5-2.2 3.5-4.2v-.4h-.7c-1.9 0-5.3.1-5.3 2.5 0 1.1.8 2.1 2.5 2.1zM209.6 84h2.4v1.7c0 .5-.1 1-.1 1h.1c.5-1.1 2.1-3 4.9-3 3.1 0 4.5 1.7 4.5 5v8.4H219v-7.9c0-1.8-.4-3.3-2.5-3.3-2 0-3.6 1.3-4.2 3.2-.2.5-.2 1.1-.2 1.8v6.2h-2.5V84zM231.2 89h.6v-.2c0-2.2-1.2-2.9-2.9-2.9-2 0-3.7 1.3-3.7 1.3l-1-1.8s1.9-1.6 4.9-1.6c3.3 0 5.2 1.8 5.2 5.2v8.3H232V96c0-.6.1-1 .1-1h-.1s-1.1 2.6-4.2 2.6c-2.3 0-4.5-1.4-4.5-4-.1-4.4 5.7-4.6 7.9-4.6zm-2.9 6.5c2.1 0 3.5-2.2 3.5-4.2v-.4h-.7c-1.9 0-5.3.1-5.3 2.5 0 1.1.8 2.1 2.5 2.1zM242.1 83.7c3 0 4.1 2.1 4.1 2.1h.1s-.1-.4-.1-.9v-6.1h2.5v18.4h-2.4v-2.1h-.1s-1.1 2.4-4.3 2.4c-3.6 0-5.8-2.8-5.8-6.9 0-4.2 2.5-6.9 6-6.9zm.3 11.6c2 0 3.8-1.4 3.8-4.7 0-2.3-1.2-4.7-3.7-4.7-2.1 0-3.8 1.7-3.8 4.7 0 2.9 1.6 4.7 3.7 4.7zM258.5 89h.6v-.2c0-2.2-1.2-2.9-2.9-2.9-2 0-3.7 1.3-3.7 1.3l-1-1.8s1.9-1.6 4.9-1.6c3.3 0 5.2 1.8 5.2 5.2v8.3h-2.3V96c0-.6.1-1 .1-1h-.1s-1.1 2.6-4.2 2.6c-2.3 0-4.5-1.4-4.5-4-.1-4.4 5.7-4.6 7.9-4.6zm-2.9 6.5c2.1 0 3.5-2.2 3.5-4.2v-.4h-.7c-1.9 0-5.3.1-5.3 2.5 0 1.1.8 2.1 2.5 2.1z" />
              <g>
                <path d="M41.4 78.6c4.4 0 6.7 2.2 6.7 2.2l-1.3 1.9s-2.1-1.8-5.2-1.8c-4.3 0-6.9 3.1-6.9 7.1 0 4.3 2.9 7.2 6.8 7.2 3.2 0 5.2-2.3 5.2-2.3v-2.7h-3V88H49v9.2h-2.3V95.3h-.1s-2 2.2-5.6 2.2c-4.9 0-9-3.9-9-9.5 0-5.3 4-9.4 9.4-9.4zM51.2 84.1h2.4v2.3c0 .5-.1 1-.1 1h.1c.6-1.9 2.1-3.4 4.2-3.4.3 0 .6.1.6.1v2.5s-.3-.1-.7-.1c-1.6 0-3.1 1.1-3.7 3.1-.2.8-.3 1.6-.3 2.4v5.4h-2.5V84.1zM66.5 89h.5v-.2c0-2.2-1.2-2.9-2.9-2.9-2 0-3.7 1.3-3.7 1.3l-1-1.8s1.9-1.6 4.9-1.6c3.3 0 5.2 1.8 5.2 5.1v8.3h-2.3V96c0-.6.1-1 .1-1h-.1s-1.1 2.6-4.2 2.6c-2.3 0-4.5-1.4-4.5-4 0-4.4 5.8-4.6 8-4.6zm-2.9 6.5c2.1 0 3.5-2.2 3.5-4.2v-.4h-.6c-1.9 0-5.3.1-5.3 2.5-.1 1.1.7 2.1 2.4 2.1zM72 84.1h2.4v1.7c0 .5-.1 1-.1 1h.1c.5-1.1 2.1-3 4.9-3 3.1 0 4.5 1.7 4.5 5v8.4h-2.5v-7.8c0-1.8-.4-3.3-2.5-3.3-2 0-3.6 1.3-4.2 3.2-.2.5-.2 1.1-.2 1.8v6.2H72V84.1zM91.7 83.8c3 0 4.1 2.1 4.1 2.1h.1s-.1-.4-.1-.9v-6.1h2.5v18.3h-2.4v-2.1h-.1s-1.1 2.4-4.3 2.4c-3.6 0-5.8-2.8-5.8-6.9.1-4.1 2.6-6.8 6-6.8zm.4 11.5c1.9 0 3.8-1.4 3.8-4.7 0-2.3-1.2-4.7-3.7-4.7-2.1 0-3.8 1.7-3.8 4.7 0 2.9 1.5 4.7 3.7 4.7zM101.1 93.8s1.5 1.5 3.8 1.5c1.1 0 2.2-.6 2.2-1.6 0-2.4-6.8-1.9-6.8-6.2 0-2.4 2.1-3.7 4.8-3.7 2.9 0 4.2 1.5 4.2 1.5l-1 1.9s-1.2-1.2-3.2-1.2c-1.1 0-2.2.5-2.2 1.6 0 2.4 6.8 1.8 6.8 6.2 0 2.2-1.9 3.8-4.8 3.8-3.2 0-5-1.9-5-1.9l1.2-1.9z" />
              </g>
              <g>
                <path d="M118 78.9h6.1c5.6 0 9.3 3.4 9.3 9.1 0 5.8-3.7 9.2-9.3 9.2H118V78.9zm5.9 16.1c4.1 0 6.8-2.4 6.8-7 0-4.5-2.7-6.9-6.8-6.9h-3.3V95h3.3zM141 83.8c3.7 0 5.7 2.8 5.7 6.2 0 .3-.1 1.1-.1 1.1H137c.1 2.9 2.2 4.3 4.5 4.3s3.9-1.5 3.9-1.5l1 1.8s-1.9 1.9-5.1 1.9c-4.1 0-7-3-7-6.9.2-4.2 3-6.9 6.7-6.9zm3.2 5.3c-.1-2.3-1.5-3.3-3.2-3.3-1.9 0-3.5 1.2-3.8 3.3h7zm-2.4-9.3h2.7l-2.5 3.3h-2.1l1.9-3.3zM158.4 86.1h-6.5v11.1h-2.5V86.1h-1.6v-2h1.6v-.4c0-4.3 3.3-4.8 4.9-4.8.6 0 1 .1 1 .1v2.3s-.3-.1-.6-.1c-1 0-2.8 0-2.8 2.5v.4h9v13.1h-2.5V86.1zm0-7.2h2.5v2.6h-2.5v-2.6zM163.8 93.8s1.5 1.5 3.8 1.5c1.1 0 2.2-.6 2.2-1.6 0-2.4-6.8-1.9-6.8-6.2 0-2.4 2.1-3.7 4.8-3.7 2.9 0 4.2 1.5 4.2 1.5l-1 1.9s-1.2-1.2-3.2-1.2c-1.1 0-2.2.5-2.2 1.6 0 2.4 6.8 1.8 6.8 6.2 0 2.2-1.9 3.8-4.8 3.8-3.2 0-5-1.9-5-1.9l1.2-1.9z" />
              </g>
              <g>
                <path d="M241.6 53.1c4.4 0 6.7 2.4 6.7 2.4l-1.3 1.9s-2.1-2-5.3-2c-4.1 0-6.8 3.1-6.8 7s2.7 7.3 6.8 7.3c3.5 0 5.7-2.4 5.7-2.4l1.4 1.8s-2.5 2.9-7.1 2.9c-5.5 0-9.4-4.2-9.4-9.6 0-5.3 4-9.3 9.3-9.3zM257.4 63.5h.6v-.2c0-2.2-1.2-2.9-2.9-2.9-2 0-3.7 1.3-3.7 1.3l-1-1.8s1.9-1.6 4.9-1.6c3.3 0 5.2 1.8 5.2 5.2v8.3h-2.3v-1.2c0-.6.1-1 .1-1h-.1s-1.1 2.6-4.2 2.6c-2.3 0-4.5-1.4-4.5-4-.1-4.5 5.7-4.7 7.9-4.7zm-2.9 6.5c2.1 0 3.5-2.2 3.5-4.2v-.4h-.7c-1.9 0-5.3.1-5.3 2.5 0 1.1.8 2.1 2.5 2.1zM262.9 58.6h2.4v1.7c0 .5-.1 1-.1 1h.1c.5-1.1 2.1-3 4.9-3 3.1 0 4.5 1.7 4.5 5v8.4h-2.5v-7.9c0-1.8-.4-3.3-2.5-3.3-2 0-3.6 1.3-4.2 3.2-.2.5-.2 1.1-.2 1.8v6.2h-2.5V58.6zM284.5 63.5h.6v-.2c0-2.2-1.2-2.9-2.9-2.9-2 0-3.7 1.3-3.7 1.3l-1-1.8s1.9-1.6 4.9-1.6c3.3 0 5.2 1.8 5.2 5.2v8.3h-2.3v-1.2c0-.6.1-1 .1-1h-.1s-1.1 2.6-4.2 2.6c-2.3 0-4.5-1.4-4.5-4-.1-4.5 5.7-4.7 7.9-4.7zm-2.9 6.5c2.1 0 3.5-2.2 3.5-4.2v-.4h-.7c-1.9 0-5.3.1-5.3 2.5 0 1.1.8 2.1 2.5 2.1zM295.4 58.3c3 0 4.1 2.1 4.1 2.1h.1s-.1-.4-.1-.9v-6.1h2.5v18.4h-2.4v-2.1h-.1s-1.1 2.4-4.3 2.4c-3.6 0-5.8-2.8-5.8-6.9.1-4.2 2.5-6.9 6-6.9zm.4 11.6c2 0 3.8-1.4 3.8-4.7 0-2.3-1.2-4.7-3.7-4.7-2.1 0-3.8 1.7-3.8 4.7-.1 2.8 1.5 4.7 3.7 4.7zM311.8 63.5h.6v-.2c0-2.2-1.2-2.9-2.9-2.9-2 0-3.7 1.3-3.7 1.3l-1-1.8s1.9-1.6 4.9-1.6c3.3 0 5.2 1.8 5.2 5.2v8.3h-2.3v-1.2c0-.6.1-1 .1-1h-.1s-1.1 2.6-4.2 2.6c-2.3 0-4.5-1.4-4.5-4 0-4.5 5.7-4.7 7.9-4.7zm-2.9 6.5c2.1 0 3.5-2.2 3.5-4.2v-.4h-.7c-1.9 0-5.3.1-5.3 2.5 0 1.1.8 2.1 2.5 2.1z" />
                <g>
                  <path d="M41.4 53.1c4.4 0 6.7 2.2 6.7 2.2l-1.3 1.9s-2.1-1.8-5.2-1.8c-4.3 0-6.9 3.1-6.9 7.1 0 4.3 2.9 7.2 6.8 7.2 3.2 0 5.2-2.3 5.2-2.3v-2.7h-3v-2.2H49v9.2h-2.3V69.8h-.1S44.6 72 41 72c-4.9 0-9-3.9-9-9.5 0-5.2 4-9.4 9.4-9.4zM51.2 58.6h2.4v2.3c0 .5-.1 1-.1 1h.1c.6-1.9 2.1-3.4 4.2-3.4.3 0 .6.1.6.1V61s-.3-.1-.7-.1c-1.6 0-3.1 1.1-3.7 3.1-.2.8-.3 1.6-.3 2.4v5.4h-2.5V58.6zM66.5 63.5h.5v-.2c0-2.2-1.2-2.9-2.9-2.9-2 0-3.7 1.3-3.7 1.3l-1-1.8s1.9-1.6 4.9-1.6c3.3 0 5.2 1.8 5.2 5.1v8.3h-2.3v-1.2c0-.6.1-1 .1-1h-.1s-1.1 2.6-4.2 2.6c-2.3 0-4.5-1.4-4.5-4 0-4.4 5.8-4.6 8-4.6zM63.6 70c2.1 0 3.5-2.2 3.5-4.2v-.4h-.6c-1.9 0-5.3.1-5.3 2.5-.1 1.1.7 2.1 2.4 2.1zM72 58.6h2.4v1.7c0 .5-.1 1-.1 1h.1c.5-1.1 2.1-3 4.9-3 3.1 0 4.5 1.7 4.5 5v8.4h-2.5v-7.8c0-1.8-.4-3.3-2.5-3.3-2 0-3.6 1.3-4.2 3.2-.2.5-.2 1.1-.2 1.8v6.2H72V58.6zM91.7 58.3c3 0 4.1 2.1 4.1 2.1h.1s-.1-.4-.1-.9v-6.1h2.5v18.3h-2.4v-2.1h-.1S94.7 72 91.5 72c-3.6 0-5.8-2.8-5.8-6.9.1-4.1 2.6-6.8 6-6.8zm.4 11.6c1.9 0 3.8-1.4 3.8-4.7 0-2.3-1.2-4.7-3.7-4.7-2.1 0-3.8 1.7-3.8 4.7 0 2.8 1.5 4.7 3.7 4.7z" />
                </g>
                <g>
                  <path d="M114.9 53.1c4.4 0 6.7 2.4 6.7 2.4l-1.3 1.9s-2.1-2-5.3-2c-4.1 0-6.8 3.1-6.8 7s2.7 7.2 6.8 7.2c3.5 0 5.7-2.4 5.7-2.4l1.4 1.8s-2.5 2.9-7.1 2.9c-5.5 0-9.4-4.2-9.4-9.6-.1-5.2 3.9-9.2 9.3-9.2zM123.2 53.4h2.5v6.7c0 .6-.1 1.1-.1 1.1h.1c.6-1.3 2.2-2.9 4.9-2.9 3.1 0 4.5 1.7 4.5 5v8.4h-2.5v-7.8c0-1.8-.4-3.3-2.5-3.3-2 0-3.6 1.4-4.2 3.2-.2.5-.2 1.1-.2 1.7v6.2h-2.5V53.4zM144.4 63.5h.6v-.2c0-2.2-1.2-2.9-2.9-2.9-2 0-3.7 1.3-3.7 1.3l-1-1.8s1.9-1.6 4.9-1.6c3.3 0 5.2 1.8 5.2 5.1v8.3h-2.3v-1.2c0-.6.1-1 .1-1h-.1s-1.1 2.6-4.2 2.6c-2.3 0-4.5-1.4-4.5-4 0-4.4 5.7-4.6 7.9-4.6zm-2.9 6.5c2.1 0 3.5-2.2 3.5-4.2v-.4h-.6c-1.9 0-5.3.1-5.3 2.5-.1 1.1.8 2.1 2.4 2.1zM149.8 53.4h2.5v14.3c0 1.6.6 1.9 1.4 1.9h.4v2.2h-.8c-1.4 0-3.5-.4-3.5-3.7V53.4zM155.9 53.4h2.5v14.3c0 1.6.6 1.9 1.4 1.9h.4v2.2h-.8c-1.4 0-3.5-.4-3.5-3.7V53.4zM167.6 58.3c3.7 0 5.7 2.8 5.7 6.2 0 .3-.1 1.1-.1 1.1h-9.6c.1 2.9 2.2 4.3 4.5 4.3s3.9-1.5 3.9-1.5l1 1.8s-1.9 1.9-5.1 1.9c-4.1 0-7-3-7-6.9.1-4.2 2.9-6.9 6.7-6.9zm3.1 5.3c-.1-2.3-1.5-3.4-3.2-3.4-1.9 0-3.5 1.2-3.8 3.4h7zM175.3 58.6h2.4v1.7c0 .5-.1 1-.1 1h.1c.5-1.1 2.1-3 4.9-3 3.1 0 4.5 1.7 4.5 5v8.4h-2.5v-7.8c0-1.8-.4-3.3-2.5-3.3-2 0-3.6 1.3-4.2 3.2-.2.5-.2 1.1-.2 1.8v6.2h-2.5V58.6zM194.7 75c2.3 0 4.2-1 4.2-3.7v-1.8h-.1c-.8 1.3-2 2.1-3.9 2.1-3.7 0-5.9-2.9-5.9-6.7 0-3.8 2.1-6.6 5.7-6.6 3.2 0 4.1 1.9 4.1 1.9h.1v-1.6h2.4v12.6c0 4.3-3.3 6-6.6 6-1.6 0-3.2-.4-4.5-1.1l.8-2c.1 0 1.7.9 3.7.9zm4.2-10.1c0-3.4-1.7-4.4-3.7-4.4-2.3 0-3.6 1.7-3.6 4.3 0 2.7 1.5 4.6 3.8 4.6 1.9 0 3.5-1.1 3.5-4.5zM209.7 58.3c3.7 0 5.7 2.8 5.7 6.2 0 .3-.1 1.1-.1 1.1h-9.6c.1 2.9 2.2 4.3 4.5 4.3s3.9-1.5 3.9-1.5l1 1.8s-1.9 1.9-5.1 1.9c-4.1 0-7-3-7-6.9.1-4.2 3-6.9 6.7-6.9zm3.1 5.3c-.1-2.3-1.5-3.4-3.2-3.4-1.9 0-3.5 1.2-3.8 3.4h7zM217.6 68.3s1.5 1.5 3.8 1.5c1.1 0 2.2-.6 2.2-1.6 0-2.4-6.8-1.9-6.8-6.2 0-2.4 2.1-3.7 4.8-3.7 2.9 0 4.2 1.5 4.2 1.5l-1 1.9s-1.2-1.2-3.2-1.2c-1.1 0-2.2.5-2.2 1.6 0 2.4 6.8 1.8 6.8 6.2 0 2.2-1.9 3.8-4.8 3.8-3.2 0-5-1.9-5-1.9l1.2-1.9z" />
                </g>
              </g>
              <g>
                <path d="M318.6 52.2c1.7 0 3.1 1.4 3.1 3.2 0 1.8-1.4 3.2-3.1 3.2-1.7 0-3.1-1.4-3.1-3.2 0-1.8 1.4-3.2 3.1-3.2zm0 5.8c1.4 0 2.5-1.1 2.5-2.6s-1.1-2.6-2.5-2.6-2.5 1.1-2.5 2.6c0 1.4 1.1 2.6 2.5 2.6zm-1.1-4.3h1.3c.6 0 1 .4 1 1 0 .5-.3.8-.6.9l.1.2.7 1.2h-.7l-.6-1.3h-.5V57h-.6v-3.3zm1.2 1.6c.3 0 .5-.2.5-.6 0-.3-.2-.5-.5-.5h-.5v1.1h.5z" style="fill:#231f20" />
              </g>
            </svg>