<svg xmlns="http://www.w3.org/2000/svg" viewBox="0 0 540 540" preserveAspectRatio="xMinYMin slice">
                <path fill="#691B33" d="M0 0h540v540H0z" />
                <path fill="#C00F2F"
                  d="M241.8 154.7c14.2-.4 27.4 3.1 39 11.3 17 12.1 26 28.7 26.6 49.7.4 14.2-3.3 27.1-11.8 38.5-10 13.4-23.5 21.4-39.7 24.6-20.4 4-39.3.5-55.9-12.5-13.7-10.8-21.4-25-23.1-42.4-1.7-17.4 2.9-33 13.9-46.6 10.3-12.7 24-19.5 40-22 1.9-.3 3.8-.5 5.6-.5 1.8-.1 3.6-.1 5.4-.1zm2.1 12.9c-17 0-29.7 4.9-39.9 16.1-14.9 16.2-17.2 42.2-5.3 60.8 17.3 27 54.2 29.8 76.7 11.2 21.9-18.2 23.8-51.7 4.3-72.4-10.3-10.9-23.1-15.9-35.8-15.7zM51.5 217.5v-57.6c0-3.5 0-3.5 3.6-3.5 2.4 0 4.9.1 7.3 0 2.5-.2 3 .8 3 3.1-.1 15.7 0 31.4 0 47.1 0 4.1 0 4.1 4.2 4.1h66.8c3.8 0 3.8 0 3.8-3.9 0-15.7.1-31.4-.1-47.1 0-2.7.8-3.5 3.4-3.3 2.8.2 5.6.1 8.4 0 1.6 0 2.4.6 2.2 2.2v116.3c0 3.8 0 3.8-3.9 3.8-2.3 0-4.5-.2-6.8 0-2.6.2-3.4-.6-3.4-3.3.1-16.1.1-32.3.1-48.4 0-4.1 0-4.1-4.1-4.1H68.9c-3.6 0-3.6 0-3.6 3.6 0 16.3-.1 32.6.1 49 0 2.6-.8 3.5-3.4 3.3-2.5-.2-5.1-.2-7.6 0-2.4.2-3.1-.7-3.1-3.1.1-17.2 0-34.4 0-51.7.2-2.2.2-4.4.2-6.5zM422.7 217.3c0-19.2.1-38.4-.1-57.6 0-2.8.9-3.5 3.5-3.5 20.6.1 41.1.1 61.7 0 2.7 0 3.8.7 3.5 3.5-.2 1.9-.2 3.8 0 5.7.2 2.3-.8 2.9-3 2.9-15.8-.1-31.6 0-47.3 0h-2.2c-1.6-.1-2.3.6-2.3 2.2v38.4c0 2.5 1.6 2.1 3.1 2.1h46.2c3.7 0 3.7 0 3.7 3.7 0 1.8-.1 3.6 0 5.4.2 2.3-.8 2.9-2.9 2.9-15.3-.1-30.7 0-46 0-4.2 0-4.2 0-4.2 4 0 12.2.1 24.3-.1 36.5 0 2.6.8 3.3 3.4 3.3 16.6-.1 33.2 0 49.8-.1 2.5 0 3.5.7 3.2 3.2-.2 2-.2 4 0 5.9.2 2.3-.8 2.9-3 2.9-13-.1-26 0-38.9 0-8.4 0-16.8-.1-25.2.1-2.5 0-3.2-.8-3.2-3.2.3-19.5.3-38.9.3-58.3zM330.1 217.5v-57.6c0-3.6 0-3.6 3.6-3.6 11.8 0 23.6-.1 35.4 0 8.6.1 16.9 2 24 7.1 10.4 7.5 13.7 18.2 12.5 30.5-1.9 18.8-15.4 27.1-31.4 29-8.8 1.1-17.6.3-26.5.5-3.6.1-3.6 0-3.6 3.5 0 16.1-.1 32.3.1 48.4 0 2.6-.8 3.5-3.4 3.3-2.4-.2-4.9-.2-7.3 0-2.6.2-3.4-.6-3.4-3.3.1-16.7.1-33.4.1-50-.1-2.5-.1-5.2-.1-7.8zm27.5-49.3c-3.6 0-7.2.1-10.8 0-2.1-.1-2.8.6-2.8 2.8.1 12.6.1 25.2 0 37.9 0 1.9.5 2.8 2.6 2.7 7.9-.2 15.9.4 23.8-.5 6.7-.8 13-2.5 17.2-8.3 8.9-12.5 2.6-29.4-12.2-33.3-5.9-1.6-11.8-1.2-17.8-1.3z" />
                <path fill="#F7F4F5"
                  d="M396.2 83.8v42.1c0 1.5.1 2.5-2 2.5s-2-1-2-2.5V79.1c0-.9-.6-2.3.6-2.6 1.5-.3 3.1-.4 4.4 1.2 5.8 7 11.8 13.8 17.8 20.7 6.4 7.4 12.8 14.8 19.4 22.5.6-1.1.4-2.1.4-3V79.2c0-1.6-.3-2.9 2.2-2.9 2.4 0 2 1.4 2 2.8v46.5c0 .9.7 2.3-.6 2.6-1.3.3-2.7.4-3.9-1-5.6-6.7-11.4-13.3-17.1-19.9-6.4-7.4-12.7-14.7-19.1-22.1-.6-.6-.9-1.5-2.1-1.4zM206.5 361.2c-15.4 0-27.4-11.7-27.4-26.8 0-15.1 12-26.5 27.9-26.5 15.4 0 27.3 11.6 27.2 26.6 0 15.2-12 26.7-27.7 26.7zm0-4c13.1 0 22.9-9.7 23-22.5 0-12.8-9.6-22.5-22.5-22.7-12.8-.2-23 9.9-23 22.6 0 12.8 9.7 22.6 22.5 22.6zM284.1 353.7v-22.6c0-6.8.1-13.5 0-20.3 0-1.7.6-2.1 2.2-2.1 1.7 0 2.1.6 2.1 2.2-.1 15.7 0 31.4-.1 47.1 0 .8.7 2.2-.7 2.5-1.2.2-2.6.4-3.7-.9-4-4.8-8.1-9.4-12.2-14.1-8.3-9.6-16.6-19.2-24.9-28.9-.2-.3-.3-.6-.5-1-.2.1-.5.2-.7.3v42c0 1.5.2 2.7-2.1 2.7-2.1 0-2.2-.9-2.2-2.6.1-15.5 0-31 .1-46.5 0-.9-.8-2.4.8-2.7 1.3-.2 2.8-.5 4 .9 3 3.6 6.1 7.1 9.2 10.7 9.4 10.8 18.8 21.7 28.7 33.3zM232.4 127.9c-3.3 1-5.2.2-6.9-2.6-3.2-5.4-6.8-10.6-10.2-15.9-3-4.7-7.3-6.2-12.7-6-5.3.3-5.4.1-5.4 5.4 0 5.8-.1 11.5 0 17.3 0 1.9-.7 2.1-2.3 2.2-1.9.1-1.9-.9-1.9-2.3V78.7c0-1.9.4-2.5 2.4-2.4 5.2.3 10.4-.3 15.7.4 6.7.9 11.5 4.9 12.4 10.6 1.1 6.6-1.5 11.3-8.1 14.5l-.9.6c7 7.7 11.7 17 17.9 25.5zm-35.1-38v8.4c0 1 .1 1.8 1.4 1.7 4.4-.1 8.8.1 13.1-.9 4.6-1.1 7.4-5 7.2-9.4-.2-4.5-3-8-7.5-9-4.2-1-8.6-.7-12.9-.8-1.3 0-1.4.7-1.4 1.7.1 2.7.1 5.5.1 8.3zM493.6 84.9c-6.4-3.7-12.6-5.4-19.2-5.3-12.5.1-22 10-22 22.9 0 12.6 9.7 22.4 22.1 22.6 4.9 0 9.5-1 14-2.5 1.1-.4 1.8-.8 1.8-2.2-.1-3.5-.1-7 0-10.5 0-1.3-.4-1.7-1.7-1.7-2.4.1-4.9-.1-7.3.1-1.5.1-2-.3-2-1.9 0-1.5.5-1.8 1.9-1.8 3.8.1 7.6.1 11.4 0 1.5 0 2 .4 2 2-.1 5.5 0 11 0 16.5 0 .8 0 1.6-1 2-11.5 4.5-22.9 6.5-34.1-.8-9-5.9-13.4-16.8-11.2-27.3 2.3-10.7 10.3-18.6 21.1-20.6 7.9-1.5 15.4 0 22.6 3.1 2.6 1.1.9 3.2 1.6 5.4zM153.9 357.2c5.6 0 10.8-1.7 15.9-3.9.8-.3 1.9-1.7 2.4-.5.5 1.3 1 3.2-1 4.2-4.7 2.3-9.5 3.7-14.7 4.2-13 1.1-24.8-6-28.7-17.4-6.5-18.8 8.7-37.8 28.6-35.7 4.7.5 9.2 1.5 13.6 3.4 1.8.8 2.7 2.9 2 4.5-.6 1.4-1.4.2-1.9 0-5.7-2.8-11.6-4.4-18-3.9-13 1.2-21.6 10.9-20.9 23.8.4 12.5 9.8 21.3 22.7 21.3zM163 128.9c-10.6-.3-19.4-4.2-24.5-13.9-4.8-9.1-4.5-18.6 1.2-27.2 6.4-9.6 15.9-13 27.2-11.9 4.2.4 8.3 1.6 12.2 3.3 1.7.7 2.6 3 1.9 4.6-.6 1.2-1.3.2-1.7 0-4.1-2.1-8.5-3.5-13.1-4-9.7-1.2-19.1 3.3-23.3 11.3-4.6 8.7-3.5 19.7 3 26.7s14.8 8.3 23.8 6.4c3.2-.7 6.2-1.9 9.2-3.1.8-.3 1.9-2 2.5-.4.4 1.2.9 3.1-1.2 4.1-5 2.3-10.2 3.9-15.8 4.1H163zM330.6 128c-3 .9-4.6 0-5.8-3-1.6-4.4-3.8-8.5-5.7-12.8-.6-1.3-1.2-1.9-2.8-1.9-7.1.1-14.2.1-21.4 0-1.5 0-2.2.5-2.8 1.9-1.9 4.4-4.2 8.6-5.8 13-1.1 3-2.8 3.5-5.7 2.7 2.9-6.4 5.8-12.7 8.7-19.1l14.1-30.9c.4-1 .7-2 2.2-2 1.3 0 1.6.9 2 1.8 7.5 16.3 15 32.7 22.5 49 .2.5.3.9.5 1.3zm-14.1-21.2c-3.7-8.1-7.2-15.8-11-24-3.6 7.8-6.9 14.9-10.1 22.1-.3.6-1.4 1.8.5 1.8 6.8.2 13.5.1 20.6.1zM433.1 316.7c-2.1-.9-4.1-1.9-6.2-2.6-8.7-3.1-17.3-3.4-25.3 2.1-7.8 5.3-11 15.3-8.2 25.2 2.4 8.8 10.2 15.1 19.5 15.7 5.7.4 11.1-.8 16.3-2.9 1.5-.6 2.9-1.3 4.5-2 .7 2.9.2 4.5-2.7 5.7-7.7 3.1-15.6 4.5-23.7 2.3-11.9-3.2-19.5-13.3-19.5-25.4 0-12.3 7.8-22.4 19.7-25.7 8.6-2.4 16.8-.5 24.7 2.7 1.4.6 1.4.8.9 4.9zM240.7 102.3c0-7.8.1-15.7 0-23.5 0-1.8.4-2.5 2.4-2.4 7.9.1 15.9.1 23.8 0 1.2 0 2.2-.3 2.3 1.6.1 2-1.1 1.9-2.4 1.8-6.5 0-13 .1-19.5 0-1.9 0-2.5.5-2.4 2.4.1 5.2.2 10.5 0 15.7-.1 2.1.7 2.5 2.6 2.5 5.9-.1 11.9-.1 17.8 0 1.2 0 3.2-1 3.2 1.8 0 3-2.1 1.6-3.3 1.6-6 .1-12.1.1-18.1 0-1.8 0-2.3.5-2.2 2.3.1 5.4.1 10.8 0 16.2 0 1.9.4 2.7 2.5 2.6 6.7-.1 13.3-.1 20-.1 1.1 0 2.3-.3 2.3 1.6 0 1.8-.9 1.8-2.2 1.8-8.2 0-16.4-.1-24.6 0-1.8 0-2.3-.5-2.2-2.2v-23.7zM346 103.9c0-7-.1-14.1.1-21.1.1-2.6-.8-3.1-3.2-3-4.6.2-9.2 0-13.8.1-1.3 0-2.5.2-2.4-1.8 0-1.9 1.1-1.7 2.3-1.7h38.7c1.1 0 2.1-.2 2.1 1.5 0 1.5-.5 2-2 2-5-.1-10.1 0-15.1-.1-1.9 0-2.4.6-2.4 2.5.1 14.6 0 29.2.1 43.8 0 1.7-.4 2.2-2.2 2.3-1.8 0-2-.7-2-2.2-.2-7.5-.2-14.9-.2-22.3zM298.8 334.5c0-7.8.1-15.7 0-23.5 0-1.8.5-2.3 2.3-2.3 7.5.1 15 .1 22.4 0 1.4 0 2.1.3 2.1 1.9 0 1.9-1.1 1.7-2.3 1.7-6 0-12.1.1-18.1 0-1.7 0-2.3.4-2.3 2.2.1 5 .1 10.1 0 15.1 0 1.8.6 2.2 2.3 2.2 5.3-.1 10.6 0 16 0 1.2 0 2.3-.2 2.3 1.7s-1 1.7-2.3 1.7c-5.2 0-10.5.1-15.7-.1-2-.1-2.6.4-2.6 2.5.1 6.9 0 13.9.1 20.8 0 1.6-.2 2.2-2 2.2-1.7 0-2.3-.5-2.2-2.3v-23.8zM464.8 336.6v21.6c0 1.6-.2 2.4-2.1 2.3-1.8-.1-2.2-.6-2.2-2.3.1-14.4 0-28.8.1-43.2 0-2.2-.4-2.9-2.8-2.8-4.9.2-9.7.1-14.6.1-1.2 0-2.3.2-2.2-1.7 0-1.7.7-1.9 2.1-1.9H482c1.3 0 2.2 0 2.2 1.8s-.8 1.8-2.1 1.8c-5.1 0-10.3 0-15.4-.1-1.5 0-2 .4-2 1.9.1 7.5.1 15 .1 22.5zM73.6 313.6v28.7c0 .7.5 1.9-.5 2.2-1 .3-2.3.6-2.3-1.4v-32.4c0-.6-.3-1.4.6-1.5 1.2-.2 2.2.1 3.1 1.2 4.5 5.4 9.1 10.7 13.7 16 3.6 4.2 7.3 8.5 11 12.7 1-.8.6-1.9.6-2.8v-24.9c0-1.1-.3-2.4 1.6-2.3 1.9 0 1.4 1.3 1.4 2.2v31.1c0 .8.6 1.9-.7 2.2-1.3.3-2.2-.4-3-1.3-6.7-7.9-13.5-15.7-20.3-23.5-1.5-1.9-3.1-3.7-5.2-6.2zM334.5 334.5v-23.3c0-1.6 0-2.7 2.2-2.6 2.1 0 2 1.1 2 2.6 0 14.4 0 28.8-.1 43.3 0 2.3.6 2.8 2.8 2.8 6.8-.2 13.7-.1 20.5-.1 1.1 0 2.3-.4 2.3 1.6 0 1.8-.8 1.8-2.1 1.8-8.5 0-16.9-.1-25.4 0-1.7 0-2.3-.4-2.3-2.2.1-8.1.1-16 .1-23.9zM373.2 334.7v-23.8c0-1.4.1-2.3 2-2.3 1.8 0 2.3.6 2.3 2.3-.1 15.8-.1 31.7 0 47.5 0 1.8-.7 2-2.2 2.1-1.7.1-2.1-.4-2.1-2.1.1-7.9 0-15.8 0-23.7zM377.4 102.2V78.7c0-1.5 0-2.5 2.1-2.5 2 0 2.1.8 2.1 2.4v47.2c0 1.5 0 2.5-2 2.4-1.9-.1-2.2-.7-2.2-2.3v-23.7zM339 414.1v16.7c0 1-.3 1.5-1.4 1.5-1.1 0-1.4-.4-1.4-1.4v-20.6c0-.6-.1-1.4.7-1.6.8-.2 1.6-.1 2.2.6l3.9 4.5c3.8 4.4 7.7 8.8 11.5 13.2 1-.7.6-1.5.6-2.3v-13.8c0-1-.5-2.4 1.3-2.3 1.8.1 1.2 1.5 1.2 2.4.1 6 .1 11.9 0 17.9 0 1.1.7 2.6-.5 3.2-1.5.7-2.4-.6-3.3-1.7-4.2-4.8-8.4-9.7-12.6-14.5-.4-.5-.8-1.3-2.2-1.8zM433.2 450.2v16.7c0 1 .5 2.2-1.4 2.2s-1.3-1.4-1.3-2.3v-18.9c0-.8-.5-1.9.7-2.3 1.2-.4 2 .3 2.8 1.2 4.6 5.4 9.3 10.8 14 16.1.3.3.4.8.9 1 .8-3.2.5-6.2.6-9.2.1-2.3 0-4.7 0-7 0-.9-.4-2.1 1.2-2.2 1.7 0 1.3 1.2 1.3 2.1v19.2c0 .8.7 1.9-.7 2.3-1.1.3-1.8-.3-2.5-1.1-4.2-4.9-8.5-9.8-12.7-14.7-.9-.9-1.7-1.7-2.9-3.1zM492.8 427.9v-17c0-.9-.5-2.1 1.2-2.1 1.6 0 1.3 1.2 1.3 2.1v19.2c0 .8.6 1.9-.7 2.2-1.1.3-1.8-.2-2.6-1.1-4.3-5-8.6-10-12.9-14.9-.7-.8-1.4-1.5-2.5-2.8v16.4c0 1 .5 2.5-1.5 2.4-2-.1-1.2-1.5-1.2-2.4-.1-6.3-.1-12.6 0-18.9 0-.8-.6-1.9.8-2.2 1.1-.3 1.9.3 2.6 1.1 4.4 5.1 8.8 10.2 13.3 15.3.4.7 1.1 1.4 2.2 2.7zM301.9 413.1c-2.5 3.1-4.7 5.6-6.7 8.3-1.1 1.4-1.8 1.7-3 .1-1.9-2.6-4.1-5.1-6.3-7.8-.7 1.9-.4 3.6-.4 5.2-.1 3.9 0 7.8 0 11.6 0 1 .2 1.9-1.4 1.9-1.7 0-1.3-1.1-1.3-2v-19.5c0-.7-.5-1.8.7-2.1 1-.2 1.9-.1 2.6.8 2.4 3 4.9 6 7.5 9.3 2.4-2.9 4.8-5.7 7-8.6.8-1.1 1.7-2 3.1-1.5 1.5.5.7 1.8.7 2.8.1 6.2 0 12.4 0 18.7 0 1 .4 2.2-1.5 2.1-1.7-.1-1.2-1.2-1.2-2.1.2-5.5.2-11 .2-17.2zM248.8 463.7v-15.9c0-.9-.6-2.3 1.3-2.3 1.8 0 1.4 1.3 1.4 2.3v18.9c0 .8.6 1.9-.6 2.3-1.1.3-2-.2-2.8-1.1l-13.2-15.3c-.6-.7-1.2-1.3-2.3-2.4v17.2c0 .9.1 1.7-1.3 1.8-1.4 0-1.3-.8-1.3-1.7v-20c0-.6-.4-1.6.6-1.8.8-.2 1.6-.2 2.2.5.8 1 1.7 1.9 2.5 2.8 4.3 4.9 8.6 9.9 12.9 14.8.2 0 .4 0 .6-.1zM256.2 457.2c0-3.1.1-6.3 0-9.4 0-1.6.3-2.3 2.1-2.2 3.7.2 7.4-.3 11 .7 5.6 1.6 8.5 5.5 8.4 11.4-.1 5.7-3.4 9.6-9 10.9-3.6.8-7.3.5-11 .6-1.4 0-1.4-.7-1.4-1.7-.1-3.5-.1-6.9-.1-10.3zm2.7-.3v3.5c0 6.8 0 6.8 6.9 6 5.9-.6 8.9-3.9 8.7-9.5-.2-5.4-3.4-8.5-9.2-8.9-1.1-.1-2.2.1-3.2-.1-2.8-.5-3.6.7-3.3 3.4.3 1.8.1 3.8.1 5.6zM177.2 462.8c0 5.3-.3 5.6-5.6 6.3-7.5 1.1-13.2-1.9-15.2-7.7-3.2-9.4 4.8-18 15-16 1.4.3 2.7.9 4.1 1.3 1.4.4 1.3 1.5 1.1 2.4-.4 1.4-1.3.3-1.9 0-4-1.6-8-2.3-11.9.3-3.9 2.6-5.2 7.7-3.3 12 1.9 4.2 6.5 6.4 11.5 5.3 1.5-.3 3.5-.1 3.4-2.8 0-2.4-.1-4.1-3.2-3.5-.9.2-1.5-.1-1.5-1.2 0-1.1.5-1.5 1.5-1.3h.8c5.2-.1 5.2-.1 5.2 4.9zM477.5 449.9c-2.1-.8-4.1-1.8-6.4-2-4.2-.4-7.8.7-9.9 4.5-2 3.6-2 7.3.5 10.7 2.5 3.5 6.2 4.5 10.3 3.7 1.6-.3 3.8 0 3.7-3.1-.1-2.4-.3-3.8-3.1-3.3-.9.2-1.8.1-1.8-1.3 0-1.5 1-1.2 1.9-1.2 5.6-.2 5.6-.2 5.6 5.3 0 5-.1 5.1-5 6-2.6.5-5.2.6-7.8-.2-5.7-1.7-9.2-6.8-8.6-12.7.6-5.9 5-10.3 10.9-10.8 2.6-.2 5.2.2 7.7 1 2 .4 2.8 1.3 2 3.4zM435.5 432.1c-2.5.9-3.6-.2-4.7-2-1.1-2-2.5-3.8-3.8-5.6-.6-.8-1.3-1.5-2.1-2-1.2-.8-2.8-1.4-4.1-.7-1.1.6-.4 2.1-.5 3.2-.1 2-.1 4 0 5.9 0 1.1-.4 1.4-1.4 1.4-1.1 0-1.3-.5-1.3-1.5v-20.6c0-1.1.3-1.7 1.5-1.6 2.3.1 4.7 0 7 .3 2.5.3 4.5 1.7 5.1 4.2.6 2.6.3 5.1-2.2 6.7-1.2.7-1.1 1.1-.3 2.2 2.4 3.3 4.5 6.7 6.8 10.1zm-15.2-17c.6 1.6-1.4 4.4 2.6 4.2 3.7-.2 5.6-1.4 5.7-4 .1-2.6-2-3.9-5.8-4.1-3.9-.3-1.9 2.5-2.5 3.9zM343.1 457.4c0 2.9.1 5.8-.1 8.6-.1 1 1.2 3-1.2 3-2.7.1-1.2-2.1-1.4-3.2-.3-1.9-.1-3.8-.1-5.7.1-1.3-.2-1.9-1.7-1.9-3.6.1-7.2.1-10.8 0-1.4 0-1.7.5-1.6 1.7.1 2.4 0 4.9 0 7.3 0 .9.1 1.7-1.3 1.8-1.3 0-1.4-.6-1.4-1.6v-20.3c0-1 0-1.7 1.4-1.7 1.3 0 1.4.8 1.4 1.8v7c0 1.3.4 1.7 1.7 1.7 3.6-.1 7.2-.1 10.8 0 1.3 0 1.7-.3 1.7-1.6-.1-2.4 0-4.9 0-7.3 0-.9.1-1.5 1.3-1.6 1.2 0 1.5.5 1.5 1.6-.3 3.6-.2 7-.2 10.4zM252.2 420.6v10c0 .9.3 1.8-1.2 1.8s-1.5-.7-1.5-1.8v-7.3c0-1.3-.4-1.7-1.7-1.7-3.6.1-7.2.1-10.8 0-1.3 0-1.7.4-1.7 1.7.1 2.5 0 5 0 7.6 0 1.2-.4 1.5-1.6 1.5-1.3 0-1.2-.7-1.2-1.6v-20.3c0-.9-.1-1.8 1.3-1.8 1.3 0 1.4.7 1.4 1.7 0 2.3.1 4.5 0 6.8-.1 1.4.2 2.1 1.9 2 3.5-.1 7-.1 10.5 0 1.5 0 1.8-.5 1.8-1.9-.1-2.2 0-4.5 0-6.8 0-1-.1-1.9 1.5-1.9 1.4 0 1.3.9 1.3 1.8v10.2zM199.9 468.9c-2.2.7-3.4.1-4.4-1.7-1.2-2.1-2.6-4.1-4.1-6-.7-1-1.6-1.9-2.9-2.4-2.9-1.1-3.9-.5-3.9 2.6v6.2c0 .9 0 1.6-1.2 1.6s-1.6-.4-1.5-1.5v-20.5c0-1.2.5-1.6 1.6-1.5 2.2.1 4.5 0 6.7.2 2.6.3 4.5 1.6 5.3 4.3.8 2.7.1 5-2.2 6.7-1 .7-1.2 1.1-.3 2.2 2.7 2.7 4.4 6.3 6.9 9.8zm-15.3-17.1c0 4.3 0 4.3 2.3 4.2 3.9 0 5.8-1.4 5.8-4.1 0-2.7-1.8-3.8-5.8-4-3.8-.2-1.7 2.7-2.3 3.9zM483.6 457.2v-10c0-1.3.4-1.7 1.7-1.7 3.2.1 6.5 0 9.7 0 .9 0 1.9-.2 1.8 1.3-.1 1.5-1.2 1.1-2 1.1-2.2 0-4.3.1-6.5 0-1.4-.1-2 .2-2.1 1.9-.1 6.2-.2 6.2 6.1 6.2h2.2c.8.1 1.9-.4 1.9 1.1s-1 1.2-1.8 1.2c-2.2 0-4.3.1-6.5 0-1.4-.1-1.8.5-1.8 1.8-.2 6.4-.3 6.4 6.1 6.4h3.2c1 0 1.5.2 1.5 1.4 0 1.1-.6 1.1-1.4 1.1-3.6 0-7.2-.1-10.8 0-1.4 0-1.4-.7-1.4-1.7.1-3.2.1-6.7.1-10.1zM411.8 457.2c0-3.2.1-6.3 0-9.4-.1-1.6.3-2.3 2.1-2.2 3.2.1 6.5 0 9.7 0 .8 0 1.6 0 1.6 1.2 0 1.3-.8 1.2-1.7 1.2-2.4 0-4.9.1-7.3 0-1.2 0-1.7.3-1.7 1.6-.3 6.5-.4 6.5 6.2 6.5h3c1-.1 1.2.5 1.2 1.3s-.4 1.1-1.2 1.1c-2.4 0-4.9.1-7.3 0-1.4 0-1.8.5-1.9 1.9-.3 6.4-.3 6.4 5.9 6.4h3.8c1.1 0 1.1.6 1.1 1.4 0 .8-.3 1.1-1.1 1.1-3.7 0-7.4-.1-11.1 0-1.3 0-1.4-.7-1.4-1.7.2-3.6.1-7 .1-10.4zM390.7 432.1c3.3-7.4 6.5-14.8 9.7-22.2.3-.6.5-1.3 1.5-1.3.9 0 1.2.7 1.5 1.3 3.3 7.3 6.7 14.7 10 22.1-2 .8-3.2.2-3.7-1.7-1.1-4.6-3.9-5.9-8.5-5.6-3.5.2-5.4 1-6.4 4.4-.4 1.6-.8 4.2-4.1 3zm11.2-19c-.7 1.6-1.2 2.7-1.6 3.8-2.7 6.2-2.7 6.1 4.2 5.6 1.3-.1 1.6-.4 1-1.6-1.1-2.4-2.2-4.8-3.6-7.8zM469.7 432c-2.4.9-3.3-.3-3.8-2-1.1-3.6-2.9-5.5-7.3-5.4-4.3.1-6.9 1.1-7.9 5.4-.4 1.8-1.4 2.9-3.8 2 1.6-3.5 3.1-7.1 4.7-10.6 1.7-3.8 3.3-7.6 5-11.3.3-.7.5-1.6 1.6-1.5.9 0 1.2.7 1.5 1.4 3.3 7.3 6.7 14.6 10 22zm-11.5-18.9c-.7 1.6-1.2 2.7-1.6 3.7-2.7 6.2-2.7 6.1 4.1 5.7 1.2-.1 1.7-.3 1.1-1.5-1.1-2.4-2.2-4.9-3.6-7.9zM213.3 432c-2.6 1-3.4-.5-3.9-2.2-1.1-3.7-3-5.2-7.2-5.2-4.3.1-6.9 1.1-7.9 5.4-.4 1.9-1.5 2.8-3.8 2 2.7-6.3 5.5-12.5 8.2-18.8.5-1.1 1-2.3 1.5-3.4.3-.6.5-1.3 1.5-1.3s1.2.7 1.5 1.3c3.4 7.4 6.7 14.8 10.1 22.2zm-11.5-18.9c-.7 1.7-1.2 2.7-1.6 3.8-.7 1.8-2.8 4.4-1.7 5.2 1.3 1.1 4.1.3 6.2.4 1.1 0 1.2-.6.8-1.4-1.2-2.5-2.3-4.9-3.7-8zM331.5 432.1c-2.1.7-3.2.1-3.7-1.8-1.1-4.2-3.4-5.8-8-5.7-4 .1-6.1 1.2-7.1 5-.5 1.7-1.2 3.6-3.9 2.4 2.1-4.7 4.1-9.5 6.2-14.2 1.2-2.6 2.3-5.3 3.5-7.9.3-.7.5-1.3 1.4-1.4.9 0 1.2.6 1.5 1.2 3.3 7.5 6.7 14.8 10.1 22.4zm-7.5-9.7c-.1-.4-.2-.8-.3-1.1-1.2-2.6-2.3-5.2-3.5-7.8-.8.6-1 1.4-1.3 2.1-1 2.2-1.9 4.4-2.9 6.8h8zM317.9 464.5c.8 2 .2 3.1-1.7 3.8-3.4 1.2-6.8 1.6-10.3.7-5.8-1.6-9.4-6.9-8.7-12.9.7-5.8 5.5-10.3 11.4-10.7 2.8-.2 5.3.4 7.9 1.2 1.5.5 1.9 1.6 1.4 2.7-.6 1.5-1.5.1-2.1-.2-2.9-1.1-5.9-1.6-8.9-.8-4.9 1.4-7.5 6.1-6.5 11.2 1 4.7 5.5 7.8 10.5 7.3 2.3-.3 4.7-1.1 7-2.3zM257.5 417.2v-7c0-1 .3-1.4 1.4-1.4 1.1 0 1.4.5 1.4 1.5 0 4.3-.1 8.6 0 13 .2 5.4 5.1 8.5 10.1 6.5 3-1.2 4.2-3.6 4.3-6.6.1-4.1.1-8.3.1-12.4 0-1-.2-2 1.4-1.9 1.4 0 1.3.8 1.3 1.8 0 4.3.1 8.6-.1 13-.3 5.7-4.5 9.5-10.1 9.3-5.9-.2-9.6-3.9-9.8-9.6v-6.2zM225.8 468.8c-2.6 1.3-3.4-.5-3.9-2.3-1.1-3.6-3-5.1-7.2-5.2-4.6-.1-6.9 1.4-8 5.6-.5 1.9-1.6 2.7-3.8 2 3.3-7.4 6.6-14.9 9.8-22.3.3-.7.6-1.2 1.6-1.2.8 0 1.1.6 1.3 1.1 3.5 7.4 6.8 14.9 10.2 22.3zm-11.5-18.9c-.7 1.6-1.2 2.7-1.7 3.7-2.6 6-2.6 6 4 5.5h.3c1.1.1 1.4-.4.9-1.5-1.1-2.4-2.2-4.8-3.5-7.7zM347.2 468.8c3.3-7.5 6.6-15 9.9-22.4.7-1.6 2-1.6 2.7.1 3.4 7.4 6.8 14.9 10.2 22.4-1.8.7-3.1.4-3.6-1.6-1.1-4.6-3.6-6.2-8.6-6-3.8.2-5.4 1.4-6.5 4.6-.6 1.8-1 4.2-4.1 2.9zm15.3-10.1c-1.3-2.9-2.6-5.6-4-8.7-.5 1.1-.9 1.8-1.2 2.5-3.2 7.2-3.2 7.2 4.7 6.5.1 0 .1-.1.5-.3zM378.8 421.6c0-2.6-.2-5.2.1-7.8.2-2.3-.7-2.8-2.7-2.6-1.3.1-2.7 0-4 0-.8 0-1.6.2-1.6-1.1 0-1.1.5-1.4 1.5-1.3h16.7c1 0 1.4.4 1.4 1.4 0 1.1-.7 1.1-1.4 1.1-1.8 0-3.6.1-5.4 0-1.4-.1-1.8.4-1.8 1.8.1 5.8 0 11.5 0 17.3 0 .8.5 2-1.2 2.1-1.8.1-1.5-1.1-1.5-2.1-.1-3-.1-5.9-.1-8.8zM60.6 326.8v-15.9c0-1-.1-1.9 1.5-1.9 1.5 0 1.5.8 1.5 1.9v31.9c0 1.1-.1 1.9-1.6 1.9-1.6 0-1.5-.8-1.5-1.9.1-5.4.1-10.7.1-16zM374.7 457.3v-10c0-1 0-1.8 1.4-1.8 1.3 0 1.4.8 1.4 1.8 0 3.9-.1 7.8 0 11.6.1 2.5-1.1 5.7.5 7.3 1.5 1.5 4.6.3 7 .4h1.6c.8 0 1.8-.3 1.9 1.2.1 1.8-1.2 1.2-2 1.3-3.2 0-6.5-.1-9.7.1-1.6.1-2.2-.4-2.1-2.1.1-3.3 0-6.5 0-9.8zM393.4 457.2v-10c0-1 .1-1.7 1.4-1.7 1.4 0 1.3.8 1.3 1.8 0 5.8.1 11.5 0 17.3 0 1.6.4 2.2 2.1 2.1 2.4-.1 4.9 0 7.3 0 1 0 1.8 0 1.8 1.4 0 1.3-.9 1.1-1.7 1.1h-10.5c-1.3 0-1.7-.4-1.7-1.7v-10.3zM442.7 420.9v9.7c0 .9.2 1.8-1.3 1.8s-1.5-.8-1.5-1.9v-19.9c0-.9-.1-1.8 1.3-1.8 1.6-.1 1.4.9 1.4 1.9.1 3.4.1 6.8.1 10.2zM365.2 420.6v10c0 .9.3 1.8-1.2 1.8s-1.5-.7-1.5-1.8v-20c0-.9-.2-1.8 1.2-1.8 1.5-.1 1.5.8 1.5 1.9v9.9zM492.9 356.9c-.2 1.6 1 3.9-2.4 3.7-2.2-.1-3.2-.6-2.8-2.8.1-.5 0-1.1 0-1.6 0-2.9 1.6-4 4.4-3 .8.1.8.1.8 3.7zM493 330.3c-.7 1.2 1.4 3.7-2.1 3.7-2.6 0-3.6-.6-3.2-3.2.1-.5 0-1.1 0-1.6 0-2.4 2.6-4 4.6-2.7 1.4.8.3 2.5.7 3.8z" />
              </svg>
              