<svg xmlns="http://www.w3.org/2000/svg" width="368.5" height="412.9" xml:space="preserve"><path fill="#2E953E" d="M311.8 127.6c0 70.5-57.1 127.6-127.6 127.6S56.6 198.1 56.6 127.6C56.7 57.1 113.8 0 184.3 0c70.4 0 127.5 57.1 127.5 127.6zM133.5 99h23.3c.7 0 1.2-.6 1.3-1.3 1.9-12.8 12.9-22.6 26.2-22.6 13.3 0 24.3 9.8 26.2 22.6.1.7.7 1.3 1.4 1.3h23.2c.7 0 1.3-.6 1.3-1.3-2-27-24.6-48.3-52.1-48.3s-50.1 21.3-52.1 48.3c0 .7.5 1.3 1.3 1.3zm75.8 48.4c15.1-8.3 25.7-23.8 27-41.9 0-.7-.6-1.3-1.3-1.3h-23.3c-.7 0-1.2.6-1.3 1.3-1.9 12.8-12.9 22.6-26.2 22.6-13.3 0-24.3-9.8-26.2-22.6-.1-.8-.6-1.3-1.3-1.3h-23.3c-.7 0-1.3.6-1.3 1.3 1.3 18.1 11.9 33.6 27 41.9-15.8 8.7-26.7 25.3-27.2 44.5 0 .7.6 1.3 1.3 1.3h23.1c.7 0 1.3-.6 1.3-1.3.7-14 12.3-25.2 26.5-25.2s25.8 11.2 26.5 25.2c0 .7.6 1.3 1.3 1.3h23.2c.7 0 1.3-.6 1.3-1.3-.4-19.2-11.3-35.8-27.1-44.5z"/><g fill="#2E953E"><path d="M45.1 382.4c0 7.7-7.9 10.3-12.5 10.3s-12.5-2.6-12.5-10.3v-41.8c0-7.7 7.9-10.3 12.5-10.3s12.5 2.6 12.5 10.3v41.8zM32.7 310C10.4 310.1 0 325.7 0 339v44.9c0 13.3 10.4 28.9 32.7 29 22.3-.1 32.7-15.7 32.7-29V339c-.1-13.3-10.4-28.9-32.7-29zM175.8 411.1v-39.2h30.1v-20h-30V332h34.9v-20.2h-55.2v99.3zM245 342.8l8 31.2h-16.3l8.3-31.2zm17.6 68.3h20.1l-26.3-99.2h-23.5L207 411.1h20.2l4.6-17.6h26.3l4.5 17.6zM119.7 361.4l25.6-49.6H122l-14 28.9-14.1-28.9H70.6l25.7 49.6-25.8 49.7h23.6l13.9-28.9 13.9 28.9h23.6zM347.6 311.8 329.8 350l-18-38.2h-20.6v99.3h19.7v-56.5l12.7 26.4h12.6l12.6-26.3v56.4h19.7v-99.3z"/></g></svg>