<svg xmlns="http://www.w3.org/2000/svg" xml:space="preserve" viewBox="0 0 600 187.8">
  <path fill="none" d="M0 0H600V187.8H0z" />
  <path
    d="M23.2,166.1h-2.7v13.6c0,2.9-1.3,5.9-5,5.9c-2.8,0-4.2-1.7-4.8-3.8l-0.3-2.1v-13.6H7.6V179c0,3.5,1.1,5.7,2.6,7 s3.5,1.8,5.2,1.8c3.1,0,6.7-1.4,7.6-6.4l0.2-2.4 M372.3,145.7h13.1v-2.2h-10.3v-7.7h9.5v-2.2h-9.5v-6.9h10v-2.2h-12.8L372.3,145.7 L372.3,145.7z M375.9,123h2.1l4.2-4.3H379L375.9,123z M336,145.7h2.7v-18.9h6.2v-2.4h-15.1v2.4h6.2L336,145.7L336,145.7z M302.4,124.4h-2.7v21.3h2.7V124.4z M263.7,146.1c6.1,0,7.3-4,7.3-6c0-2.6-1.3-4-2.5-4.8l-1.4-0.8l-3.8-1.7 c-1.4-0.6-2.8-1.3-2.8-3.3s1.1-3.5,3.8-3.5c1.1,0,2.4,0.3,3.2,1.3l0.6,1.3l2.7-0.9c-1-2.8-3.5-3.9-6.5-3.9c-3.1,0-6.7,1.7-6.7,5.8 c0,1.6,0.7,2.9,1.8,3.9l1.3,0.8l5.1,2.4c0.8,0.4,2.3,1.1,2.3,3.4c0,0.9-0.4,1.8-1.1,2.5c-0.7,0.7-1.7,1.2-3.1,1.2 c-2.1,0-3.3-1-4-2.2l-0.5-1.1l-2.6,1C257.3,143.2,259,146.1,263.7,146.1 M215.4,145.7h2.8v-9.6h4.6l4.4,9.6h3.3l-5.1-10.1 c1.1-0.4,3.9-1.4,3.9-5.4c0-3.4-2.2-5.2-5.2-5.6l-1.3-0.1h-7.3v21.2H215.4z M218.1,126.6h4c1.2,0,4.3,0.2,4.3,3.7 c0,1.4-0.7,3.1-2.9,3.4l-1.1,0.1h-4.3V126.6z M173.8,145.7h13.1v-2.2h-10.3v-7.7h9.5v-2.2h-9.5v-7h10v-2.2h-12.8V145.7z M131.6,124.4h-3l7.1,21.3h3.6l7.3-21.3h-2.8l-5.3,16.1l-0.7,2.6h-0.3l-0.7-2.6L131.6,124.4z M101.2,124.4h-2.7v21.3h2.7V124.4z M52.6,145.7h2.7v-15.3l-0.1-2.7h0.1l1.4,2.9l8.5,15h3.7v-21.3h-2.8v15.1l0.1,2.7h-0.1l-1.4-2.9l-8.5-14.9h-3.6V145.7z M23.1,124.4 h-2.7V138c0,2.9-1.3,5.9-5,5.9c-2.8,0-4.2-1.7-4.8-3.8l-0.3-2.1v-13.6H7.5v12.9c0,3.5,1.1,5.7,2.6,7.1c1.5,1.3,3.5,1.8,5.2,1.8 c3.1,0,6.7-1.3,7.6-6.4l0.2-2.4L23.1,124.4L23.1,124.4z M42.3,97.5l15.6,0.4v-3.7h-2.5c-4.2,0-6.8-1.1-7.4-6.3l-0.1-2.5v-22 l21.8-40.7c3.3-6.2,4.6-8.2,8.2-8.7l1.7-0.1h3.1v-3.7c-3.9,0.1-8.1,0.4-12.2,0.4l-12.2-0.4v3.7h2.3c3.3,0,4.8,0.7,4.8,2.8 c0,0.9-0.4,2.1-0.8,3.4l-2.4,5.3l-17,32.5L27,25.1c-1.2-2.2-2.7-5.5-2.7-7.3c0-2.3,1.1-3.4,2.8-3.8l1.8-0.2h2.2v-3.7 c-5.2,0.1-10.5,0.4-15.6,0.4L0,10.1v3.7h1.1c4.5,0,6.5,0.6,9.3,4.6l3.1,5.2l23.6,42.3v19.4c0,5.6-1,8.1-5.4,8.6L29.6,94h-3v3.7 C31.2,97.8,36.9,97.5,42.3,97.5 M7.8,154.2v1.3h378.3v-1.3H7.8z M376.2,187.4h2.8v-8.7l7.5-12.6h-3.1l-4.8,8.4l-0.9,1.8h-0.1 l-0.9-1.8l-4.8-8.4h-3.3l7.5,12.6v8.7H376.2z M334.5,187.4h2.8v-18.9h6.2v-2.4h-15.1v2.4h6.2L334.5,187.4L334.5,187.4z M301.2,166.1h-2.7v21.3h2.7V166.1z M262.7,187.8c6.1,0,7.3-4,7.3-6c0-2.6-1.3-4-2.5-4.8l-1.4-0.8l-3.8-1.7 c-1.4-0.6-2.8-1.3-2.8-3.3c0-1.9,1.1-3.5,3.7-3.5c1.1,0,2.4,0.3,3.2,1.3l0.6,1.3l2.7-0.9c-1-2.8-3.5-3.9-6.5-3.9 c-3.1,0-6.7,1.7-6.7,5.8c0,1.7,0.7,2.9,1.8,3.9l1.3,0.8l5.2,2.4c0.8,0.4,2.3,1.1,2.3,3.4c0,0.9-0.4,1.8-1.1,2.5s-1.7,1.2-3.1,1.2 c-2.1,0-3.3-1-4-2.2l-0.5-1.2l-2.7,1C256.3,184.9,258,187.8,262.7,187.8 M214.5,187.4h2.7v-9.6h4.6l4.4,9.6h3.3l-5-10.2 c1.1-0.3,3.9-1.3,3.9-5.4c0-3.9-2.9-5.7-6.5-5.7h-7.4V187.4z M217.3,168.3h4c1.2,0,4.3,0.1,4.3,3.7c0,1.4-0.7,3.1-2.9,3.5l-1.1,0.1 h-4.3V168.3z M173.2,187.4h13.1v-2.2h-10.4v-7.7h9.5v-2.2h-9.5v-6.9h10v-2.2h-12.7V187.4z M131.1,166.1h-3l7.1,21.3h3.6l7.3-21.3 h-2.8l-5.3,16.1l-0.7,2.6h-0.1l-0.7-2.6L131.1,166.1z M100.9,166.1h-2.8v21.3h2.8V166.1z M52.5,187.4h2.8v-15.3l-0.2-2.7h0.2 l1.4,2.9l8.5,15h3.7V166h-2.7v15.1l0.1,2.7h-0.1l-1.4-2.9L56.2,166h-3.7V187.4z M316.2,97.5l16,0.4v-3.7h-3.6c-4.3,0-6.5-1-6.9-9.1 l-0.1-3.9V62.4l6.4-6.8l25.2,28.9c7,8,7.4,9.9,8,13.4c3.9-0.1,8-0.4,11.9-0.4l11.9,0.4v-3.7h-1.9c-4.4,0-7.7-0.9-13.1-6.6l-2.4-2.7 l-31.7-37.2l23.8-25c7.3-7.6,9.3-8.7,15.4-8.7h2.2v-3.7c-4.9,0.1-9.7,0.4-14.6,0.4l-14.5-0.4V14h2.2c2.4,0,4.1,1,4.1,3.2 c0,1.5-1.7,3.9-3.3,5.8l-2.7,2.9l-26.9,30V27c0-10.2,1.6-12.6,5.3-13l1.7-0.1h3.6v-3.7c-5.4,0.1-10.6,0.4-16,0.4l-15.7-0.4v3.7h2.2 c5,0,7.5,1.6,8,7.4l0.1,2.7v60c0,7-1.9,9.5-6.2,10l-2,0.1h-2.2v3.7C304.7,97.7,310.6,97.5,316.2,97.5 M218.2,97.5l16,0.4v-3.7h-3.6 c-4.3,0-6.4-1-6.9-9.1l-0.1-3.9V57.9c9.5,0.3,11,0.5,13.9,5.1l14.4,23.5c6.5,10.7,11.6,12.1,22.4,12.1l6.9-0.1v-2.6 c-10-0.6-12-1.4-18.7-12.5L246,56.1c6.2-2,17.5-6.9,17.5-23c0-5.7-4-22.8-25.7-22.8c-5.4,0-11.3,0.4-19.6,0.4l-15.7-0.4V14h2.2 c4.9,0,7.5,1.6,8,7.4l0.1,2.7v60c0,7-1.9,9.5-6.2,10l-2,0.1h-2.1v3.7C206.8,97.7,212.7,97.5,218.2,97.5 M231.4,14.9 c17.1,0,20.8,15,20.8,20.4c0,6.4-2.3,10.9-5.9,13.7c-3.7,2.9-8.7,4.1-14.3,4.1c-2.4,0-4.7-0.1-6.6-0.4l-1.7-0.5V15.3 C226.1,15.2,228.4,14.9,231.4,14.9 M183.2,54.1c0-24-18.8-42.9-41.3-45.2l-4.6-0.2c-24.2,0-46.2,19-46.2,46.4 c0,24.4,19.2,44.4,45.8,44.4c14.8,0,26.3-5.9,34.2-14.6S183.2,64.9,183.2,54.1 M137.6,94.8c-10.6,0-19.1-5.5-25-13.4 c-5.9-8-9.2-18.4-9.2-28.4c0-26.8,14.3-37.7,30.2-39l3.2-0.1c21.5,0,34,21.8,34,41.6C170.8,78,160.4,94.8,137.6,94.8" />
  <path fill="#e31837"
    d="M548.7,164.6c26.4-2,43.6-17.7,50.1-40.5l1.2-5v68.3H412.6V0.1h71v102.1c0,40.3,24.2,60.1,53.4,62.4l5.9,0.2 M542.9,126.4l3.1-0.2c14.6-1.7,19.2-15.7,19.2-29.5V0h-43.6v96.7l0.3,5.7C523.1,115.4,529,126.4,542.9,126.4" />
</svg>