<?xml version="1.0" encoding="utf-8"?>
<!-- Generator: Adobe Illustrator 19.1.1, SVG Export Plug-In . SVG Version: 6.00 Build 0)  -->
<svg version="1.1"  xmlns="http://www.w3.org/2000/svg" xmlns:xlink="http://www.w3.org/1999/xlink" x="0px" y="0px"
	 viewBox="0 0 48 48" enable-background="new 0 0 48 48" xml:space="preserve">
<path fill="#BBDEFB" d="M38,17C38,17,38,17,38,17c0-0.2,0-0.3,0-0.5c0-3.6-2.9-6.5-6.5-6.5c-1.7,0-3.2,0.7-4.4,1.7
	C25.7,8.9,22.8,7,19.5,7c-4.7,0-8.5,3.8-8.5,8.5c0,0.5,0.1,1,0.1,1.5C7.7,17.4,5,20.3,5,23.9c0,3.9,3.1,7,7,7c0,0,0.1,0,0.1,0
	C12.4,31,12.7,31,13,31h25c3.9,0,7-3.1,7-7C45,20.1,41.9,17,38,17z"/>
<polygon fill="#3F51B5" points="33.1,27 25.1,18 17.1,27 22,27 22,41 28,41 28,27 "/>
</svg>
