<?xml version="1.0" encoding="utf-8"?>
<!-- Generator: Adobe Illustrator 19.0.0, SVG Export Plug-In . SVG Version: 6.00 Build 0)  -->
<svg version="1.1" id="Layer_1" xmlns="http://www.w3.org/2000/svg" xmlns:xlink="http://www.w3.org/1999/xlink" x="0px" y="0px"
	 width="230px" height="120px" viewBox="0 0 230 120" enable-background="new 0 0 230 120" xml:space="preserve">
<g id="XMLID_425_">
	<path id="XMLID_7980_" fill="#4069B1" d="M87.6,90.3c2.5,1.4,5.7,0.6,7.2-1.9c1-1.7,0.9-3.7,0-5.2l-4.5-7.8l-4.5,7.8
		C84.2,85.6,85.1,88.8,87.6,90.3"/>
	<g id="XMLID_7974_">
		<rect id="XMLID_7977_" x="109.1" y="31.2" fill="#3F4344" width="4.5" height="13"/>
	</g>
	<g id="XMLID_7969_">
		<path id="XMLID_7970_" fill="#3F4344" d="M98.8,31.5h25c1.3,0,2.4-1.1,2.4-2.4s-1.1-2.4-2.4-2.4h-25c-1.3,0-2.4,1.1-2.4,2.4
			S97.5,31.5,98.8,31.5z"/>
	</g>
	<circle id="XMLID_7943_" fill="#3F4344" cx="123.7" cy="29.1" r="3.6"/>
	<circle id="XMLID_7940_" fill="#3F4344" cx="111.3" cy="29.1" r="4.3"/>
	<circle id="XMLID_7864_" fill="#3F4344" cx="99.1" cy="29.1" r="3.6"/>
	<g id="XMLID_3731_">
		<path id="XMLID_7855_" fill="#BDCCD4" stroke="#3F4344" stroke-width="1.6301" stroke-miterlimit="10" d="M150.9,44.2H93
			c-4.7,0-8.5,3.8-8.5,8.5v11.7h-1.7c-0.7,0-1.3,0.6-1.3,1.3v3.5c0,0.7,0.6,1.3,1.3,1.3h13.8c0.7,0,1.3-0.6,1.3-1.3v-3.5
			c0-0.7-0.6-1.3-1.3-1.3h-1.7v-7c0-1,0.8-1.8,1.8-1.8l49.4,0"/>
		
			<line id="XMLID_4147_" fill="#BDCCD4" stroke="#3F4344" stroke-width="1.2226" stroke-miterlimit="10" x1="83.9" y1="64.4" x2="88.5" y2="64.4"/>
	</g>
	<g id="XMLID_2204_">
		<g id="XMLID_3244_">
			<path id="XMLID_3311_" fill="#BDCCD4" stroke="#3F4344" stroke-width="1.6301" stroke-miterlimit="10" d="M106.9,58.6h8.8
				c1.8,0,3.3-1.5,3.3-3.3v-11c0-1.1-0.9-1.9-1.9-1.9h-11.6c-1.1,0-1.9,0.9-1.9,1.9v11C103.6,57.1,105.1,58.6,106.9,58.6z"/>
		</g>
		<g id="XMLID_2279_">
			<path id="XMLID_3241_" fill="#BDCCD4" stroke="#3F4344" stroke-width="1.6301" stroke-miterlimit="10" d="M139.8,60.6H134
				c-1.1,0-1.9-0.9-1.9-2.1V42.3c0-1.1,0.9-2.1,1.9-2.1h5.7v10.3"/>
		</g>
	</g>
</g>
</svg>
