<?xml version="1.0" encoding="utf-8"?>
<!-- Generator: Adobe Illustrator 19.0.0, SVG Export Plug-In . SVG Version: 6.00 Build 0)  -->
<svg version="1.1" id="Layer_1" xmlns="http://www.w3.org/2000/svg" xmlns:xlink="http://www.w3.org/1999/xlink" x="0px" y="0px"
	 width="230px" height="120px" viewBox="0 0 230 120" enable-background="new 0 0 230 120" xml:space="preserve">
<symbol  id="Pencil" viewBox="-12.5 -68.6 25 137.4">
	<path id="XMLID_3918_" fill="#F27F94" d="M-5,57.3l-4.6-0.6c-0.9-0.1-1.6,0.5-1.8,1.3l-1.1,8.3c-0.1,0.9,0.5,1.6,1.3,1.8l4.6,0.6
		c0.9,0.1,1.6-0.5,1.8-1.3l1.1-8.3C-3.5,58.2-4.1,57.5-5,57.3z"/>
	<polygon id="XMLID_3913_" fill="#FDDCAC" points="10.3,-67.5 9.3,-67.6 4.7,-59.3 4.5,-57.8 12.3,-56.7 12.5,-58.3 	"/>
	<path id="XMLID_3908_" fill="#F9A734" d="M12.3-56.5l-7.7-1l-15.4,112c-0.1,0.9,0.5,1.6,1.3,1.8l4.6,0.6c0.9,0.1,1.6-0.5,1.8-1.3
		L12.3-56.5z"/>
	<polygon id="XMLID_3904_" fill="#2F2F2F" points="10.1,-68.6 9.8,-68.6 8.6,-66.4 8.5,-66 10.6,-65.7 10.6,-66.1 	"/>
</symbol>
<g id="XMLID_50_">
	<g id="XMLID_642_">
		
			<rect id="XMLID_5378_" x="29.8" y="27.5" transform="matrix(0.9529 0.3033 -0.3033 0.9529 18.7701 -12.5596)" fill="#BDCCD4" stroke="#3F4344" stroke-width="1.6217" stroke-miterlimit="10" width="40" height="53.2"/>
		
			<rect id="XMLID_5279_" x="29.8" y="25.5" fill="#BDCCD4" stroke="#3F4344" stroke-width="1.6217" stroke-miterlimit="10" width="40" height="53.2"/>
		
			<line id="XMLID_5238_" fill="none" stroke="#3F4344" stroke-width="1.2162" stroke-miterlimit="10" x1="34.5" y1="64.5" x2="65.2" y2="64.5"/>
		
			<line id="XMLID_5234_" fill="none" stroke="#3F4344" stroke-width="1.2162" stroke-miterlimit="10" x1="34.5" y1="59.2" x2="65.2" y2="59.2"/>
		
			<line id="XMLID_5226_" fill="none" stroke="#3F4344" stroke-width="1.2162" stroke-miterlimit="10" x1="34.5" y1="54.1" x2="65.2" y2="54.1"/>
		
			<line id="XMLID_4976_" fill="none" stroke="#3F4344" stroke-width="1.2162" stroke-miterlimit="10" x1="34.5" y1="49" x2="65.2" y2="49.1"/>
		<rect id="XMLID_828_" x="34.5" y="33.9" fill="#929EAC" width="30.7" height="5.1"/>
		
			<line id="XMLID_4968_" fill="none" stroke="#3F4344" stroke-width="1.2162" stroke-miterlimit="10" x1="34.5" y1="44" x2="65.2" y2="44"/>
		
			<line id="XMLID_4949_" fill="none" stroke="#3F4344" stroke-width="1.2162" stroke-miterlimit="10" x1="34.5" y1="38.9" x2="65.2" y2="38.9"/>
		
			<rect id="XMLID_834_" x="34.5" y="33.9" fill="none" stroke="#3F4344" stroke-width="1.6217" stroke-miterlimit="10" width="30.7" height="36"/>
		
			<line id="XMLID_857_" fill="none" stroke="#3F4344" stroke-width="1.2162" stroke-miterlimit="10" x1="58.2" y1="33.9" x2="58.2" y2="69.9"/>
		
			<line id="XMLID_835_" fill="none" stroke="#3F4344" stroke-width="1.2162" stroke-miterlimit="10" x1="51.2" y1="33.9" x2="51.2" y2="69.9"/>
	</g>
	
		<use xlink:href="#Pencil"  width="25" height="137.4" id="XMLID_4921_" x="-12.5" y="-68.6" transform="matrix(0.3858 -0.2319 -0.2319 -0.3858 27.458 34.3588)" overflow="visible"/>
</g>
<g id="XMLID_2_">
	<path id="XMLID_327_" fill="#FCFCFC" stroke="#3F4344" stroke-width="1.6217" stroke-miterlimit="10" d="M218.8,74.3l-35.4,6
		c-2.2,0.4-4.2-1.1-4.6-3.3l-4.6-27c-0.1-0.5,0.3-1.1,0.8-1.2l41.3-7.1c0.5-0.1,1.1,0.3,1.2,0.8l4.6,27
		C222.4,71.8,220.9,73.9,218.8,74.3z"/>
	<g id="XMLID_239_">
		<path id="XMLID_325_" fill="#DDE6ED" stroke="#3F4344" stroke-width="1.6217" stroke-miterlimit="10" d="M216.3,41.9L175,48.9
			c-0.5,0.1-1.1-0.3-1.2-0.8l-1-5.7c-0.1-0.5,0.3-1.1,0.8-1.2l41.3-7.1c0.5-0.1,1.1,0.3,1.2,0.8l1,5.7
			C217.2,41.3,216.8,41.8,216.3,41.9z"/>
	</g>
	<g id="XMLID_92_">
		
			<rect id="XMLID_109_" x="175.1" y="42.6" transform="matrix(0.9857 -0.1684 0.1684 0.9857 -4.4096 33.4859)" fill="none" stroke="#3F4344" stroke-width="0.4054" stroke-miterlimit="10" width="40.2" height="0.4"/>
	</g>
	<g id="XMLID_85_">
		
			<rect id="XMLID_91_" x="174.7" y="40.2" transform="matrix(0.9857 -0.1684 0.1684 0.9857 -4.0167 33.384)" fill="none" stroke="#3F4344" stroke-width="0.4054" stroke-miterlimit="10" width="40.2" height="0.4"/>
	</g>
	<g id="XMLID_39_">
		
			<rect id="XMLID_181_" x="181.8" y="73.6" transform="matrix(0.9857 -0.1684 0.1684 0.9857 -9.9466 32.2121)" fill="#E5DADF" width="6.2" height="2.4"/>
		<path id="XMLID_180_" fill="#F8D00B" d="M196.6,73.9l-7.2,1.2l-0.4-2.3l7.2-1.2c0.6-0.1,1.1,0.3,1.2,0.9l0,0.3
			C197.6,73.3,197.2,73.8,196.6,73.9z"/>
		<path id="XMLID_169_" fill="#F5B365" d="M195.8,69.2l-7.2,1.2l-0.4-2.3l7.2-1.2c0.6-0.1,1.1,0.3,1.2,0.9l0,0.3
			C196.8,68.6,196.4,69.1,195.8,69.2z"/>
		
			<rect id="XMLID_168_" x="181" y="68.9" transform="matrix(0.9857 -0.1684 0.1684 0.9857 -9.1661 32.0097)" fill="#E5DADF" width="6.2" height="2.4"/>
		<path id="XMLID_155_" fill="#F37A66" d="M195,64.5l-7.2,1.2l-0.4-2.3l7.2-1.2c0.6-0.1,1.1,0.3,1.2,0.9l0,0.3
			C196,63.9,195.6,64.4,195,64.5z"/>
		
			<rect id="XMLID_152_" x="180.2" y="64.2" transform="matrix(0.9857 -0.1684 0.1684 0.9857 -8.3855 31.8072)" fill="#E5DADF" width="6.2" height="2.4"/>
		<path id="XMLID_150_" fill="#F06266" d="M194.2,59.8l-7.2,1.2l-0.4-2.3l7.2-1.2c0.6-0.1,1.1,0.3,1.2,0.9l0,0.3
			C195.2,59.2,194.8,59.7,194.2,59.8z"/>
		
			<rect id="XMLID_130_" x="179.4" y="59.4" transform="matrix(0.9857 -0.1684 0.1684 0.9857 -7.6049 31.6047)" fill="#E5DADF" width="6.2" height="2.4"/>
		<path id="XMLID_117_" fill="#EE4167" d="M193.4,55.1l-7.2,1.2l-0.4-2.3l7.2-1.2c0.6-0.1,1.1,0.3,1.2,0.9l0,0.3
			C194.4,54.5,194,55,193.4,55.1z"/>
		
			<rect id="XMLID_111_" x="178.6" y="54.7" transform="matrix(0.9857 -0.1684 0.1684 0.9857 -6.8244 31.4021)" fill="#E5DADF" width="6.2" height="2.4"/>
		<g id="XMLID_78_">
			
				<text id="XMLID_154_" transform="matrix(0.9857 -0.1684 0.1684 0.9857 177.9501 53.0231)" fill="#929EAC" font-family="'Akkurat-Bold'" font-size="2.2018px">pH</text>
		</g>
		<g id="XMLID_57_">
			
				<text id="XMLID_151_" transform="matrix(0.9857 -0.1684 0.1684 0.9857 184.9581 51.8257)" fill="#929EAC" font-family="'Akkurat-Bold'" font-size="1.7125px">Phenol Red</text>
		</g>
		<path id="XMLID_232_" fill="#EE4167" d="M200.6,51.5l7.2-1.2l0.4,2.3l-7.2,1.2c-0.6,0.1-1.1-0.3-1.2-0.9l0-0.3
			C199.6,52.1,200,51.6,200.6,51.5z"/>
		<path id="XMLID_219_" fill="#EB577F" d="M201.4,56.2l7.2-1.2l0.4,2.3l-7.2,1.2c-0.6,0.1-1.1-0.3-1.2-0.9l0-0.3
			C200.4,56.8,200.8,56.3,201.4,56.2z"/>
		<path id="XMLID_212_" fill="#E97396" d="M202.2,60.9l7.2-1.2l0.4,2.3l-7.2,1.2c-0.6,0.1-1.1-0.3-1.2-0.9l0-0.3
			C201.2,61.5,201.6,61,202.2,60.9z"/>
		<path id="XMLID_202_" fill="#E4A9BF" d="M203,65.6l7.2-1.2l0.4,2.3l-7.2,1.2c-0.6,0.1-1.1-0.3-1.2-0.9l0-0.3
			C202,66.2,202.4,65.7,203,65.6z"/>
		<path id="XMLID_197_" fill="#E5DADF" d="M203.8,70.3l7.2-1.2l0.4,2.3l-7.2,1.2c-0.6,0.1-1.1-0.3-1.2-0.9l0-0.3
			C202.8,70.9,203.2,70.4,203.8,70.3z"/>
		
			<rect id="XMLID_195_" x="209.2" y="49.5" transform="matrix(-0.9857 0.1684 -0.1684 -0.9857 430.1129 64.9128)" fill="#DDE6ED" width="6.2" height="2.4"/>
		
			<rect id="XMLID_194_" x="210" y="54.2" transform="matrix(-0.9857 0.1684 -0.1684 -0.9857 432.5002 74.1115)" fill="#DDE6ED" width="6.2" height="2.4"/>
		
			<rect id="XMLID_193_" x="210.8" y="58.9" transform="matrix(-0.9857 0.1684 -0.1684 -0.9857 434.8874 83.3102)" fill="#DDE6ED" width="6.2" height="2.4"/>
		
			<rect id="XMLID_189_" x="211.6" y="63.6" transform="matrix(-0.9857 0.1684 -0.1684 -0.9857 437.2733 92.5092)" fill="#DDE6ED" width="6.2" height="2.4"/>
		
			<rect id="XMLID_187_" x="212.4" y="68.3" transform="matrix(-0.9857 0.1684 -0.1684 -0.9857 439.6606 101.7079)" fill="#DDE6ED" width="6.2" height="2.4"/>
		<g id="XMLID_45_">
			
				<text id="XMLID_148_" transform="matrix(0.9857 -0.1684 0.1684 0.9857 199.097 49.4109)" fill="#929EAC" font-family="'Akkurat-Bold'" font-size="2.2018px">CI</text>
		</g>
		<g id="XMLID_42_">
			
				<text id="XMLID_149_" transform="matrix(0.9857 -0.1684 0.1684 0.9857 203.9351 48.5842)" fill="#929EAC" font-family="'Akkurat-Bold'" font-size="1.7125px">DPD</text>
		</g>
		<g id="XMLID_32_">
			
				<text id="XMLID_153_" transform="matrix(0.9857 -0.1684 0.1684 0.9857 211.1364 47.3541)" fill="#929EAC" font-family="'Akkurat-Bold'" font-size="1.7125px">mg/l</text>
		</g>
	</g>
</g>
<g id="XMLID_161_">
	<g id="XMLID_179_">
		<path id="XMLID_145_" fill="#BDCCD4" d="M97.2,110c-1.1,0-2-0.9-2-2v-3.1l0.7-0.7V89.1l-0.7-0.7v-3.3l0.3-0.3l-0.3-0.3v-0.3
			c0-3.4,2.1-8.1,5.5-8.1h2.6c3.4,0,5.4,4.7,5.4,8.1v0.3l-0.3,0.3l0.3,0.3v3.3l-0.7,0.7v15.2l0.7,0.7v3.1c0,1.1-0.9,2-2,2H97.2z"/>
		<g id="XMLID_141_">
			<path id="XMLID_142_" fill="#3F4344" d="M103.2,76.8c2.9,0,4.6,4.4,4.6,7.3l-0.7,0.7l0.7,0.7v2.6l-0.7,0.7v15.8l0.7,0.7v2.8
				c0,0.7-0.5,1.2-1.2,1.2h-9.5c-0.7,0-1.2-0.5-1.2-1.2v-2.8l0.7-0.7V88.7L96,88.1v-2.6l0.7-0.7L96,84.1c0-2.9,1.8-7.3,4.6-7.3
				H103.2 M103.2,75.2h-2.6c-4,0-6.3,5.3-6.3,8.9v0.7l0,0v0.6v2.6v0.7l0.5,0.5l0.2,0.2v14.5l-0.2,0.2l-0.5,0.5v0.7v2.8
				c0,1.6,1.3,2.8,2.8,2.8h9.5c1.6,0,2.8-1.3,2.8-2.8v-2.8v-0.7l-0.5-0.5l-0.2-0.2V89.4l0.2-0.2l0.5-0.5v-0.7v-2.6v-0.6v-0.7
				C109.5,80.5,107.3,75.2,103.2,75.2L103.2,75.2z"/>
		</g>
	</g>
	<path id="XMLID_177_" fill="#3F4344" stroke="#3F4344" stroke-width="1.2226" stroke-miterlimit="10" d="M104.9,76.2h-5.6v-1.7
		c0-1.1,0.9-2,2-2h1.6c1.1,0,2,0.9,2,2V76.2z"/>
</g>
<g id="XMLID_55_">
	<path id="XMLID_96_" fill="#BDCCD4" stroke="#3F4344" stroke-width="1.6301" stroke-miterlimit="10" d="M152.9,64.6
		c0-0.1,0-0.1,0-0.2c0,0,0,0,0,0c0-0.1-0.1-0.2-0.1-0.3c0,0,0,0,0,0c-0.6-1.5-2.9-2-2.9-2s-11.4-2.1-11.4-6.1v-2.9h-5.8v2.9
		c0,4.1-11.4,6.1-11.4,6.1s-1.8,0.5-2.6,1.7c-0.1,0.2-0.2,0.3-0.3,0.5c0,0,0,0.1,0,0.1c0,0,0,0.1,0,0.1c0,0,0,0.1,0,0.1h0
		c0,0.1,0,0.1,0,0.2v3.3l0.7,1.3v2.8l-0.7,2v1.9l0.6,0.8v16.3l-0.6,0.9v2.7l0.7,2v4l-0.7,1.3v3.3c0,1,0.8,1.8,1.8,1.8h31.1
		c1,0,1.8-0.8,1.8-1.8v-3.3l-0.7-1.3v-4l0.7-2V94l-0.6-0.9V76.9l0.6-0.8v-1.9l-0.7-2v-2.8l0.7-1.3v-3.3
		C152.9,64.7,152.9,64.7,152.9,64.6L152.9,64.6z"/>
	<path id="XMLID_81_" fill="#FCFCFC" stroke="#3F4344" stroke-width="1.2226" stroke-miterlimit="10" d="M147.9,80.3v9.3
		c0,1.1-0.9,2-2,2h-1.2c-2.2,0-4-1.8-4-4v-5.3c0-2.2,1.8-4,4-4h1.2C147,78.3,147.9,79.2,147.9,80.3z"/>
	<path id="XMLID_77_" fill="#3F4344" stroke="#3F4344" stroke-width="1.2226" stroke-miterlimit="10" d="M139.2,52.5h-7.3v-2.2
		c0-1.1,0.9-2,2-2h3.3c1.1,0,2,0.9,2,2V52.5z"/>
</g>
</svg>
