<svg xmlns="http://www.w3.org/2000/svg" width="230" height="120"><path fill="none" d="M78 21.3h74v74.6H78z"/><path fill="none" stroke="#3F4344" stroke-width="2.506" stroke-linecap="square" stroke-linejoin="round" stroke-miterlimit="10" d="M92.2 69c8 0 17.6 4.6 21.6 8.9l1.5 1.6 1.5-1.6c4-4.3 13.4-8.9 21.6-8.9"/><path fill="#747E87" d="M135.3 60.2c-7 .6-13.3 3.5-17.8 6.7V46.5c5.1-4.8 10.4-7.5 16.2-8l1.6 21.7zM96.9 38.6c5.8.5 11.2 3.2 16.2 8V67c-4.7-3.3-11-6.1-17.8-6.7l1.6-21.7z"/><path fill="#BDCCD4" stroke="#3F4344" stroke-width="2.005" stroke-linecap="round" stroke-linejoin="round" stroke-miterlimit="10" d="M115.3 45.5c4.5-4.5 11.2-9.3 20.5-9.3l1.9 26.1c-9.3 0-17.8 4.8-22.4 9.3V45.5z"/><g fill="none" stroke="#3F4344" stroke-width="2.005" stroke-linecap="round" stroke-linejoin="round" stroke-miterlimit="10"><path d="M119.6 49.4c3.1-2.3 6.9-4.5 11.2-4.9M120.3 55.4c2.9-2 6.4-4 10.3-4.3"/></g><path fill="#BDCCD4" stroke="#3F4344" stroke-width="2.005" stroke-linecap="round" stroke-linejoin="round" stroke-miterlimit="10" d="M115.3 45.5c-4.4-4.4-11.2-9.3-20.5-9.3l-1.9 26.1c9.3 0 18 4.9 22.4 9.3V45.5z"/><path fill="none" d="M78.2 21.2h30.1v30.1H78.2z"/><circle fill="#F3C22B" cx="93.3" cy="36.2" r="12.5"/><circle fill="#FCFCFC" cx="93.3" cy="42.3" r="1.4"/><path fill="none" stroke="#FCFCFC" stroke-width="1.871" stroke-linecap="round" stroke-linejoin="round" d="M93.3 38.1v-.9c1.8 0 3.3-1.5 3.3-3.3 0-1.8-1.5-3.3-3.3-3.3S90 32.1 90 33.9"/></svg>