<?xml version="1.0" encoding="utf-8"?>
<!-- Generator: Adobe Illustrator 19.0.0, SVG Export Plug-In . SVG Version: 6.00 Build 0)  -->
<svg version="1.1" id="Layer_1" xmlns="http://www.w3.org/2000/svg" xmlns:xlink="http://www.w3.org/1999/xlink" x="0px" y="0px"
	 width="40px" height="40px" viewBox="0 0 40 40" enable-background="new 0 0 40 40" xml:space="preserve">
<path id="XMLID_3_" fill="#DDE6ED" stroke="#747E87" stroke-width="2.3748" stroke-linecap="round" stroke-linejoin="round" d="
	M7,5.7h26c0.7,0,1.3,0.6,1.3,1.3v26c0,0.7-0.6,1.3-1.3,1.3H7c-0.7,0-1.3-0.6-1.3-1.3V7C5.7,6.3,6.3,5.7,7,5.7z"/>
<path id="XMLID_1_" fill="#747E87" d="M15.5,30.2H9.8v-5.7h5.7V30.2z M24.5,30.2h5.7v-5.7h-5.7V30.2z M24.5,22.9h5.7v-5.7h-5.7V22.9
	z M22.9,17.1h-5.7v5.7h5.7V17.1z M17.1,30.2h5.7v-5.7h-5.7V30.2z"/>
<path id="XMLID_2_" fill="#DDE6ED" stroke="#747E87" stroke-width="2.3748" stroke-linecap="round" stroke-linejoin="round" d="
	M34.3,13.5H5.7 M12.8,2.9v5.7 M27.2,2.9v5.7"/>
</svg>
