<?xml version="1.0" encoding="utf-8"?>
<!-- Generator: Adobe Illustrator 19.0.0, SVG Export Plug-In . SVG Version: 6.00 Build 0)  -->
<svg version="1.1" id="Layer_1" xmlns="http://www.w3.org/2000/svg" xmlns:xlink="http://www.w3.org/1999/xlink" x="0px" y="0px"
	 width="40px" height="40px" viewBox="0 0 40 40" enable-background="new 0 0 40 40" xml:space="preserve">
<rect id="XMLID_2_" fill="none" width="40" height="40"/>
<path id="XMLID_1_" fill="#3A3F42" d="M9,10h22c0.6,0,1,0.5,1,1c0,0.3-0.1,0.5-0.3,0.7L23.3,21c-0.2,0.2-0.3,0.4-0.3,0.7v7.2
	c0,0.3-0.2,0.7-0.5,0.9l-4.1,2.7c-0.5,0.3-1.1,0.2-1.4-0.3c-0.1-0.2-0.2-0.4-0.2-0.6v-10c0-0.3-0.1-0.5-0.3-0.7l-8.4-9.2
	c-0.4-0.4-0.3-1.1,0.1-1.4C8.5,10.1,8.8,10,9,10z"/>
</svg>
