<?xml version="1.0" encoding="utf-8"?>
<!-- Generator: Adobe Illustrator 19.0.0, SVG Export Plug-In . SVG Version: 6.00 Build 0)  -->
<svg version="1.1" id="Layer_1" xmlns="http://www.w3.org/2000/svg" xmlns:xlink="http://www.w3.org/1999/xlink" x="0px" y="0px"
	 width="40px" height="40px" viewBox="0 0 40 40" enable-background="new 0 0 40 40" xml:space="preserve">
<ellipse id="XMLID_2_" fill="#F3C22B" cx="20" cy="20" rx="19.9" ry="19.9"/>
<circle id="XMLID_1_" fill="#FCFCFC" cx="20" cy="29.7" r="2.2"/>
<path id="XMLID_3_" fill="#FCFCFC" d="M20,24.2c-0.7,0-1.2-0.6-1.2-1.2v-1.5c0-0.7,0.6-1.2,1.2-1.2c2.2,0,4-1.8,4-4s-1.8-4-4-4
	c-2.2,0-4,1.8-4,4c0,0.7-0.6,1.2-1.2,1.2s-1.2-0.6-1.2-1.2c0-3.6,2.9-6.5,6.5-6.5s6.5,2.9,6.5,6.5c0,3.1-2.3,5.8-5.2,6.4V23
	C21.2,23.7,20.7,24.2,20,24.2z"/>
</svg>
