<?xml version="1.0" encoding="utf-8"?>
<!-- Generator: Adobe Illustrator 19.0.0, SVG Export Plug-In . SVG Version: 6.00 Build 0)  -->
<svg version="1.1" id="Layer_1" xmlns="http://www.w3.org/2000/svg" xmlns:xlink="http://www.w3.org/1999/xlink" x="0px" y="0px"
	 width="73.8px" height="61.1px" viewBox="0 0 73.8 61.1" enable-background="new 0 0 73.8 61.1" xml:space="preserve">
<g id="XMLID_361_">
	<path id="XMLID_391_" fill="#BDCCD4" stroke="#747E87" stroke-width="2.5" stroke-linejoin="round" stroke-miterlimit="10" d="
		M37,24.3c4.5-4.5,11.2-9.3,20.5-9.3l1.9,26.1c-9.3,0-17.8,4.8-22.3,9.3V24.3z"/>
	<path id="XMLID_380_" fill="#BDCCD4" stroke="#747E87" stroke-width="2.5" stroke-linejoin="round" stroke-miterlimit="10" d="
		M37,24.3C32.6,19.9,25.8,15,16.5,15l-1.9,26.1c9.3,0,17.9,4.9,22.3,9.3V24.3z"/>
	<path id="XMLID_396_" fill="none" stroke="#747E87" stroke-width="2.5" stroke-linejoin="round" stroke-miterlimit="10" d="
		M12.8,46.8c8.4,0,18.4,4.5,22.6,8.6l1.6,1.6l1.6-1.6c4.2-4.2,14-8.6,22.6-8.6"/>
	<path id="XMLID_378_" fill="none" stroke="#747E87" stroke-width="2" stroke-miterlimit="10" d="M21.2,23.2"/>
	<path id="XMLID_375_" fill="none" stroke="#747E87" stroke-width="2" stroke-miterlimit="10" d="M21.4,29.8"/>
	<path id="XMLID_374_" fill="none" stroke="#747E87" stroke-width="2" stroke-miterlimit="10" d="M34.3,36"/>
	<g id="XMLID_362_">
		<rect id="XMLID_372_" fill="none" width="30" height="30"/>
		<circle id="XMLID_371_" fill="#F3C22B" cx="15" cy="15" r="12.5"/>
		<circle id="XMLID_368_" fill="#FCFCFC" cx="15" cy="21.1" r="1.4"/>
		<path id="XMLID_364_" fill="none" stroke="#FCFCFC" stroke-width="1.8667" stroke-linecap="round" stroke-linejoin="round" d="
			M15,16.9v-0.9c1.8,0,3.3-1.5,3.3-3.3S16.8,9.4,15,9.4s-3.3,1.5-3.3,3.3"/>
	</g>
</g>
</svg>
