<?xml version="1.0" encoding="utf-8"?>
<!-- Generator: Adobe Illustrator 19.0.0, SVG Export Plug-In . SVG Version: 6.00 Build 0)  -->
<svg version="1.1" id="Layer_1" xmlns="http://www.w3.org/2000/svg" xmlns:xlink="http://www.w3.org/1999/xlink" x="0px" y="0px"
	 width="149.8px" height="67.8px" viewBox="0 0 149.8 67.8" enable-background="new 0 0 149.8 67.8" xml:space="preserve">
<symbol  id="Chlorometer" viewBox="0 -94.7 115.7 94.7">
	<path id="XMLID_4004_" fill="none" stroke="#929EAC" stroke-miterlimit="10" d="M105.8-94.2l-95.9,0c-5.2,0-9.4,4.2-9.4,9.4l0,67.2
		c0,1.3,1.1,2.4,2.4,2.4l109.8,0c1.3,0,2.4-1.1,2.4-2.4l0-67.2C115.2-90,111-94.2,105.8-94.2z"/>
	<g id="XMLID_4002_">
		<path id="XMLID_4003_" fill="#E1F0E6" stroke="#929EAC" stroke-miterlimit="10" d="M112.6-15.1l-109.4,0c-1.5,0-2.7,1.2-2.7,2.7
			l0,9.3c0,1.5,1.2,2.7,2.7,2.7l109.4,0c1.5,0,2.7-1.2,2.7-2.7l0-9.3C115.2-13.9,114-15.1,112.6-15.1z"/>
	</g>
	<path id="XMLID_4001_" fill="#EE4167" d="M71.6-29.3l19.4,0l0-6.4l-19.4,0c-1.8,0-3.2,1.4-3.2,3.2v0C68.4-30.7,69.8-29.3,71.6-29.3
		z"/>
	<path id="XMLID_4000_" fill="#EB577F" d="M71.6-37.9l19.4,0l0-6.4l-19.4,0c-1.8,0-3.2,1.4-3.2,3.2v0C68.4-39.4,69.8-37.9,71.6-37.9
		z"/>
	<path id="XMLID_3999_" fill="#E97396" d="M71.6-46.6l19.4,0l0-6.4l-19.4,0c-1.8,0-3.2,1.4-3.2,3.2v0C68.4-48,69.8-46.6,71.6-46.6z"
		/>
	<path id="XMLID_3998_" fill="#E892AE" d="M71.6-55.2l19.4,0l0-6.4l-19.4,0c-1.8,0-3.2,1.4-3.2,3.2v0C68.4-56.7,69.8-55.2,71.6-55.2
		z"/>
	<path id="XMLID_3997_" fill="#E4A9BF" d="M71.6-63.8l19.4,0l0-6.4l-19.4,0c-1.8,0-3.2,1.4-3.2,3.2v0C68.4-65.3,69.8-63.8,71.6-63.8
		z"/>
	<path id="XMLID_3996_" fill="#E1C2CF" d="M71.6-72.5l19.4,0l0-6.4l-19.4,0c-1.8,0-3.2,1.4-3.2,3.2l0,0
		C68.4-73.9,69.8-72.5,71.6-72.5z"/>
	<path id="XMLID_3995_" fill="#F1E1E7" d="M71.6-81.1l19.4,0l0-6.4l-19.4,0c-1.8,0-3.2,1.4-3.2,3.2v0C68.4-82.6,69.8-81.1,71.6-81.1
		z"/>
	<g id="XMLID_3985_">
		<polygon id="XMLID_3994_" fill="#EAEAE9" points="94.6,-29.3 110.2,-29.3 110.2,-35.7 94.6,-35.7 		"/>
		<polygon id="XMLID_3993_" fill="#EAEAE9" points="94.6,-37.9 110.2,-37.9 110.2,-44.4 94.6,-44.4 		"/>
		<polygon id="XMLID_3992_" fill="#EAEAE9" points="94.6,-46.6 110.2,-46.6 110.2,-53 94.6,-53 		"/>
		<polygon id="XMLID_3991_" fill="#EAEAE9" points="94.6,-55.2 110.2,-55.2 110.2,-61.6 94.6,-61.6 		"/>
		<polygon id="XMLID_3990_" fill="#EAEAE9" points="94.6,-63.9 110.2,-63.9 110.2,-70.3 94.6,-70.3 		"/>
		<polygon id="XMLID_3988_" fill="#EAEAE9" points="94.6,-72.5 110.2,-72.5 110.2,-78.9 94.6,-78.9 		"/>
		<polygon id="XMLID_3986_" fill="#EAEAE9" points="94.6,-81.1 110.2,-81.1 110.2,-87.6 94.6,-87.6 		"/>
	</g>
	<g id="XMLID_3964_">
		<path id="XMLID_3984_" fill="#F8D00B" d="M44.1-87.5l-19.4,0l0,6.4l19.4,0c1.8,0,3.2-1.4,3.2-3.2v0C47.3-86.1,45.9-87.5,44.1-87.5
			z"/>
		<polygon id="XMLID_3981_" fill="#F1E1E7" points="21.1,-87.5 5.5,-87.5 5.5,-81.1 21.1,-81.1 		"/>
		<path id="XMLID_3979_" fill="#F6C266" d="M44.1-78.9l-19.4,0l0,6.4l19.4,0c1.8,0,3.2-1.4,3.2-3.2l0,0
			C47.3-77.5,45.9-78.9,44.1-78.9z"/>
		<polygon id="XMLID_3977_" fill="#F1E1E7" points="21.1,-78.9 5.5,-78.9 5.5,-72.5 21.1,-72.5 		"/>
		<path id="XMLID_3976_" fill="#F5B365" d="M44.1-70.3l-19.4,0l0,6.4l19.4,0c1.8,0,3.2-1.4,3.2-3.2v0C47.3-68.8,45.9-70.3,44.1-70.3
			z"/>
		<polygon id="XMLID_3974_" fill="#F1E1E7" points="21.1,-70.3 5.5,-70.3 5.5,-63.8 21.1,-63.8 		"/>
		<path id="XMLID_3973_" fill="#F59266" d="M44.1-61.6l-19.4,0l0,6.4l19.4,0c1.8,0,3.2-1.4,3.2-3.2v0C47.3-60.2,45.9-61.6,44.1-61.6
			z"/>
		<polygon id="XMLID_3972_" fill="#F1E1E7" points="21.1,-61.6 5.5,-61.6 5.5,-55.2 21.1,-55.2 		"/>
		<path id="XMLID_3971_" fill="#F37A66" d="M44.1-53l-19.4,0l0,6.4l19.4,0c1.8,0,3.2-1.4,3.2-3.2v0C47.3-51.6,45.9-53,44.1-53z"/>
		<polygon id="XMLID_3970_" fill="#F1E1E7" points="21.1,-53 5.5,-53 5.5,-46.6 21.1,-46.6 		"/>
		<path id="XMLID_3969_" fill="#F06266" d="M44.1-44.4l-19.4,0l0,6.4l19.4,0c1.8,0,3.2-1.4,3.2-3.2v0C47.3-42.9,45.9-44.4,44.1-44.4
			z"/>
		<polygon id="XMLID_3968_" fill="#F1E1E7" points="21.1,-44.4 5.5,-44.3 5.5,-37.9 21.1,-37.9 		"/>
		<path id="XMLID_3967_" fill="#EE4167" d="M44.1-35.7l-19.4,0l0,6.4l19.4,0c1.8,0,3.2-1.4,3.2-3.2v0C47.3-34.3,45.9-35.7,44.1-35.7
			z"/>
		<polygon id="XMLID_3965_" fill="#F1E1E7" points="21.1,-35.7 5.5,-35.7 5.5,-29.3 21.1,-29.3 		"/>
	</g>
	<g id="XMLID_3959_">
		<g id="XMLID_3961_">
			<polygon id="XMLID_3962_" fill="#929EAC" stroke="#929EAC" stroke-width="0.3" stroke-miterlimit="10" points="110.2,-10.5 
				5.5,-10.5 5.5,-9.5 110.2,-9.5 			"/>
		</g>
	</g>
	<g id="XMLID_3953_">
		<g id="XMLID_3955_">
			<polygon id="XMLID_3957_" fill="#929EAC" stroke="#929EAC" stroke-width="0.3" stroke-miterlimit="10" points="110.2,-6.2 
				5.5,-6.1 5.5,-5.2 110.2,-5.2 			"/>
		</g>
	</g>
	<g id="XMLID_3950_">
		
			<text id="XMLID_23_" transform="matrix(1 -2.100000e-004 -2.100000e-004 -1 5.3522 -25.3491)" fill="#929EAC" font-family="'Akkurat-Bold'" font-size="5.9792px">pH</text>
	</g>
	<g id="XMLID_3947_">
		
			<text id="XMLID_21_" transform="matrix(1 -2.100000e-004 -2.100000e-004 -1 23.4538 -25.3529)" fill="#929EAC" font-family="'Akkurat-Bold'" font-size="4.6505px">Phenol Red</text>
	</g>
	<g id="XMLID_3944_">
		
			<text id="XMLID_19_" transform="matrix(1 -2.100000e-004 -2.100000e-004 -1 68.4069 -25.3623)" fill="#929EAC" font-family="'Akkurat-Bold'" font-size="5.9792px">CI</text>
	</g>
	<g id="XMLID_3941_">
		
			<text id="XMLID_17_" transform="matrix(1 -2.100000e-004 -2.100000e-004 -1 81.738 -25.3651)" fill="#929EAC" font-family="'Akkurat-Bold'" font-size="4.6505px">DPD</text>
	</g>
	<g id="XMLID_3936_">
		
			<text id="XMLID_15_" transform="matrix(1 -2.100000e-004 -2.100000e-004 -1 100.3757 -25.369)" fill="#929EAC" font-family="'Akkurat-Bold'" font-size="4.6505px">mg/l</text>
	</g>
</symbol>
<symbol  id="Pencil" viewBox="-12.5 -68.6 25 137.4">
	<path id="XMLID_3918_" fill="#F27F94" d="M-5,57.3l-4.6-0.6c-0.9-0.1-1.6,0.5-1.8,1.3l-1.1,8.3c-0.1,0.9,0.5,1.6,1.3,1.8l4.6,0.6
		c0.9,0.1,1.6-0.5,1.8-1.3l1.1-8.3C-3.5,58.2-4.1,57.5-5,57.3z"/>
	<polygon id="XMLID_3913_" fill="#FDDCAC" points="10.3,-67.5 9.3,-67.6 4.7,-59.3 4.5,-57.8 12.3,-56.7 12.5,-58.3 	"/>
	<path id="XMLID_3908_" fill="#F9A734" d="M12.3-56.5l-7.7-1l-15.4,112c-0.1,0.9,0.5,1.6,1.3,1.8l4.6,0.6c0.9,0.1,1.6-0.5,1.8-1.3
		L12.3-56.5z"/>
	<polygon id="XMLID_3904_" fill="#2F2F2F" points="10.1,-68.6 9.8,-68.6 8.6,-66.4 8.5,-66 10.6,-65.7 10.6,-66.1 	"/>
</symbol>
<g id="XMLID_373_">
	
		<use xlink:href="#Chlorometer"  width="115.7" height="94.7" id="XMLID_1056_" x="0" y="-94.7" transform="matrix(0.4071 9.930572e-002 9.930572e-002 -0.4071 100.6657 13.1226)" overflow="visible"/>
	
		<rect id="XMLID_1047_" x="31.7" y="7.6" transform="matrix(0.9945 0.1043 -0.1043 0.9945 3.9292 -5.2643)" fill="#BDCCD4" stroke="#747E87" stroke-width="1.4679" stroke-miterlimit="10" width="41.1" height="54.6"/>
	
		<rect id="XMLID_874_" x="31.3" y="5.6" transform="matrix(0.9794 -0.2022 0.2022 0.9794 -5.5815 11.1652)" fill="#BDCCD4" stroke="#747E87" stroke-width="1.4679" stroke-miterlimit="10" width="41.1" height="54.6"/>
	
		<line id="XMLID_860_" fill="none" stroke="#747E87" stroke-width="1.3549" stroke-miterlimit="10" x1="40.1" y1="53.9" x2="71" y2="47.6"/>
	
		<line id="XMLID_856_" fill="none" stroke="#747E87" stroke-width="1.3549" stroke-miterlimit="10" x1="39" y1="48.5" x2="69.9" y2="42.2"/>
	
		<line id="XMLID_853_" fill="none" stroke="#747E87" stroke-width="1.3549" stroke-miterlimit="10" x1="37.9" y1="43.2" x2="68.8" y2="36.8"/>
	
		<line id="XMLID_841_" fill="none" stroke="#747E87" stroke-width="1.3549" stroke-miterlimit="10" x1="36.9" y1="38.1" x2="67.7" y2="31.7"/>
	
		<line id="XMLID_832_" fill="none" stroke="#747E87" stroke-width="1.3549" stroke-miterlimit="10" x1="35.8" y1="33" x2="66.7" y2="26.6"/>
	
		<line id="XMLID_831_" fill="none" stroke="#747E87" stroke-width="1.3549" stroke-miterlimit="10" x1="34.8" y1="27.9" x2="65.6" y2="21.5"/>
	
		<line id="XMLID_830_" fill="none" stroke="#747E87" stroke-width="1.3549" stroke-miterlimit="10" x1="33.7" y1="22.8" x2="64.6" y2="16.4"/>
	
		<line id="XMLID_826_" fill="none" stroke="#747E87" stroke-width="1.3549" stroke-miterlimit="10" x1="32.7" y1="17.7" x2="63.5" y2="11.4"/>
	
		<use xlink:href="#Pencil"  width="25" height="137.4" id="XMLID_822_" x="-12.5" y="-68.6" transform="matrix(0.4133 -0.3706 -0.3706 -0.4133 32.0683 30.2448)" overflow="visible"/>
</g>
</svg>
