<?xml version="1.0" encoding="utf-8"?>
<!-- Generator: Adobe Illustrator 19.0.0, SVG Export Plug-In . SVG Version: 6.00 Build 0)  -->
<svg version="1.1" id="Layer_1" xmlns="http://www.w3.org/2000/svg" xmlns:xlink="http://www.w3.org/1999/xlink" x="0px" y="0px"
	 width="40px" height="40px" viewBox="0 0 40 40" enable-background="new 0 0 40 40" xml:space="preserve">
<g id="XMLID_2197_">
	<circle id="XMLID_2_" fill="#F3C22B" cx="20.3" cy="20" r="20"/>
</g>
<g id="XMLID_2183_">
	<circle id="XMLID_1_" fill="#FCFCFC" cx="20.3" cy="29.8" r="2.3"/>
</g>
<g id="XMLID_2149_">
	<path id="XMLID_3_" fill="#FCFCFC" d="M20.3,24.2c-0.7,0-1.2-0.6-1.2-1.2v-1.5c0-0.7,0.6-1.2,1.2-1.2c2.2,0,4-1.8,4-4s-1.8-4-4-4
		s-4,1.8-4,4c0,0.7-0.6,1.2-1.2,1.2s-1.2-0.6-1.2-1.2c0-3.6,2.9-6.5,6.5-6.5c3.6,0,6.5,2.9,6.5,6.5c0,3.2-2.3,5.8-5.3,6.4V23
		C21.6,23.7,21,24.2,20.3,24.2z"/>
</g>
</svg>
