<?xml version="1.0" encoding="utf-8"?>
<!-- Generator: Adobe Illustrator 19.0.0, SVG Export Plug-In . SVG Version: 6.00 Build 0)  -->
<svg version="1.1" id="Layer_1" xmlns="http://www.w3.org/2000/svg" xmlns:xlink="http://www.w3.org/1999/xlink" x="0px" y="0px"
	 width="40px" height="40px" viewBox="0 0 40 40" enable-background="new 0 0 40 40" xml:space="preserve">
<path d="M26.6,20c0,3.7-3,6.6-6.6,6.6s-6.6-3-6.6-6.6s3-6.6,6.6-6.6S26.6,16.3,26.6,20z M39.9,18.2c0-0.5-0.3-0.9-0.8-1.2l-3.8-2.3
	l-0.8-1.8l0,0l1.1-4.4c0.2-0.5,0-0.9-0.3-1.4c-0.8-0.9-1.5-1.7-2.4-2.4c-0.3-0.3-0.9-0.5-1.4-0.3l-4.4,1.1c-0.3-0.2-1.5-0.8-1.8-0.8
	l0,0L23,0.9c-0.3-0.5-0.6-0.8-1.2-0.8c-1.2-0.2-2.3-0.2-3.5,0c-0.5,0-0.9,0.3-1.2,0.8l-2.3,3.8L13,5.4l0,0L8.6,4.4
	c-0.5-0.2-0.9,0-1.4,0.3C6.3,5.4,5.5,6.2,4.7,7.1C4.4,7.4,4.3,8,4.4,8.5l1.1,4.4l-0.8,1.8l0,0L0.9,17c-0.5,0.3-0.8,0.6-0.8,1.2
	c-0.2,1.2-0.2,2.3,0,3.5c0,0.5,0.3,0.9,0.8,1.2l3.8,2.3l0.8,1.8l0,0l-1.1,4.4c-0.2,0.5,0,0.9,0.3,1.4c0.8,0.9,1.5,1.7,2.4,2.4
	c0.3,0.3,0.9,0.5,1.4,0.3l4.4-1.1l1.8,0.8l0,0l2.3,3.8c0.3,0.5,0.6,0.8,1.2,0.8c1.2,0.2,2.3,0.2,3.5,0c0.5,0,0.9-0.3,1.2-0.8
	l2.3-3.8l1.8-0.8l0,0l4.4,1.1c0.5,0.2,0.9,0,1.4-0.3c0.9-0.8,1.7-1.5,2.4-2.4c0.3-0.3,0.5-0.9,0.3-1.4l-1.1-4.4l0.8-1.8l0,0l3.8-2.3
	c0.5-0.3,0.8-0.6,0.8-1.2C39.9,20.5,39.9,19.3,39.9,18.2z"/>
</svg>
