<?xml version="1.0" encoding="utf-8"?>
<!-- Generator: Adobe Illustrator 19.0.0, SVG Export Plug-In . SVG Version: 6.00 Build 0)  -->
<svg version="1.1" id="Layer_1" xmlns="http://www.w3.org/2000/svg" xmlns:xlink="http://www.w3.org/1999/xlink" x="0px" y="0px"
	 width="40px" height="40px" viewBox="0 0 40 40" enable-background="new 0 0 40 40" xml:space="preserve">
<rect id="XMLID_8618_" x="0" y="0" fill="none" width="40" height="40"/>
<path id="XMLID_7809_" fill="#F9F9F9" d="M35.5,18.6c0-0.4-0.3-0.7-0.6-0.9l-3-1.8c-0.1-0.2-0.2-0.5-0.3-0.7
	c-0.1-0.2-0.2-0.5-0.3-0.7v0l0.9-3.4c0.1-0.4,0-0.8-0.2-1.1c-0.6-0.7-1.2-1.4-1.9-1.9c-0.3-0.2-0.7-0.3-1.1-0.2l-3.4,0.9
	c-0.2-0.1-0.5-0.2-0.7-0.3c-0.2-0.1-0.5-0.2-0.7-0.3v0l-1.8-3c-0.2-0.3-0.5-0.5-0.9-0.6c-0.9-0.1-1.8-0.1-2.7,0
	c-0.4,0-0.7,0.3-0.9,0.6l-1.8,3c-0.2,0.1-0.5,0.2-0.7,0.3c-0.2,0.1-0.5,0.2-0.7,0.3l0,0l-3.4-0.9c-0.4-0.1-0.8,0-1.1,0.2
	C9.3,8.7,8.7,9.3,8.1,10c-0.2,0.3-0.3,0.7-0.2,1.1l0.9,3.4c-0.1,0.2-0.2,0.5-0.3,0.7c-0.1,0.2-0.2,0.5-0.3,0.7v0l-3,1.8
	c-0.3,0.2-0.5,0.5-0.6,0.9c-0.1,0.9-0.1,1.8,0,2.7c0,0.4,0.3,0.7,0.6,0.9l3,1.8c0.1,0.2,0.2,0.5,0.3,0.7c0.1,0.2,0.2,0.5,0.3,0.7v0
	l-0.9,3.4c-0.1,0.4,0,0.8,0.2,1.1c0.6,0.7,1.2,1.4,1.9,1.9c0.3,0.2,0.7,0.3,1.1,0.2l3.4-0.9c0.2,0.1,0.5,0.2,0.7,0.3
	c0.2,0.1,0.5,0.2,0.7,0.3v0l1.8,3c0.2,0.3,0.5,0.5,0.9,0.6c0.9,0.1,1.8,0.1,2.7,0c0.4,0,0.7-0.3,0.9-0.6l1.8-3
	c0.2-0.1,0.5-0.2,0.7-0.3c0.2-0.1,0.5-0.2,0.7-0.3l0,0l3.4,0.9c0.4,0.1,0.8,0,1.1-0.2c0.7-0.6,1.4-1.2,1.9-1.9
	c0.2-0.3,0.3-0.7,0.2-1.1l-0.9-3.4c0.1-0.2,0.2-0.5,0.3-0.7c0.1-0.2,0.2-0.5,0.3-0.7v0l3-1.8c0.3-0.2,0.5-0.5,0.6-0.9
	C35.6,20.5,35.6,19.5,35.5,18.6z M20,25.4c-3,0-5.4-2.4-5.4-5.4s2.4-5.4,5.4-5.4c3,0,5.4,2.4,5.4,5.4S23,25.4,20,25.4z"/>
</svg>
