<?xml version="1.0" encoding="utf-8"?>
<!-- Generator: Adobe Illustrator 19.0.0, SVG Export Plug-In . SVG Version: 6.00 Build 0)  -->
<svg version="1.1" id="Layer_1" xmlns="http://www.w3.org/2000/svg" xmlns:xlink="http://www.w3.org/1999/xlink" x="0px" y="0px"
	 width="40px" height="40px" viewBox="0 0 40 40" enable-background="new 0 0 40 40" xml:space="preserve">
<g id="XMLID_4350_">
	<g id="XMLID_4357_">
		<g id="XMLID_4410_">
			<path fill="none" d="M20,38.5C9.8,38.5,1.5,30.2,1.5,20S9.8,1.5,20,1.5S38.5,9.8,38.5,20S30.2,38.5,20,38.5z"/>
			<path fill="#FFFFFF" d="M20,3c9.4,0,17,7.6,17,17s-7.6,17-17,17S3,29.4,3,20S10.6,3,20,3 M20,0C9,0,0,9,0,20s9,20,20,20
				s20-9,20-20S31,0,20,0L20,0z"/>
		</g>
		<path id="XMLID_4409_" fill="#FFFFFF" d="M19.5,23L19.5,23c-3.3,0-6-2.7-6-6l0,0c0-3.3,2.7-6,6-6l0,0c3.3,0,6,2.7,6,6l0,0
			C25.5,20.3,22.8,23,19.5,23z"/>
		<path id="XMLID_4362_" fill="#FFFFFF" d="M33.2,32.4c0.7,0.9,0.5,2.2-0.3,2.9c-3.5,2.9-8,4.7-12.9,4.7c-5.6,0-10.7-2.3-14.3-6l0,0
			c2.1-3.8,6.2-6.4,10.8-6.4h7C27.5,27.6,31,29.5,33.2,32.4z"/>
	</g>
</g>
</svg>
