<?xml version="1.0" encoding="utf-8"?>
<!-- Generator: Adobe Illustrator 19.0.0, SVG Export Plug-In . SVG Version: 6.00 Build 0)  -->
<svg version="1.1" id="Layer_1" xmlns="http://www.w3.org/2000/svg" xmlns:xlink="http://www.w3.org/1999/xlink" x="0px" y="0px"
	 width="40px" height="40px" viewBox="0 0 40 40" enable-background="new 0 0 40 40" xml:space="preserve">
<path id="XMLID_1642_" opacity="0" fill="#747E87" d="M20.1,14.1c2.1-2.1,5.1-4.3,9.4-4.3l0.9,12c-4.3,0-8.2,2.2-10.3,4.3V14.1z"/>
<path id="XMLID_1641_" opacity="0" fill="#DDE6ED" d="M20.1,14.1c-2-2-5.1-4.3-9.4-4.3l-0.9,12c4.3,0,8.2,2.2,10.3,4.3V14.1z"/>
<g id="XMLID_1589_">
	<path id="XMLID_1639_" fill="#FFFFFF" d="M9,25.1v2.1c3.8,0,8.5,2.1,10.4,4l0.7,0.7l0.7-0.7c1.9-1.9,6.4-4,10.4-4v-2.1
		c-4.1,0-8.6,1.9-11.1,3.9C17.6,27,13.1,25.1,9,25.1z"/>
	<path id="XMLID_1591_" fill="#FFFFFF" d="M19.4,26.8l0.7,0.7l0.7-0.7c1.8-1.8,5.4-4,9.5-4h1.1l-1-14h-1c-3.4,0-6.5,1.3-9.4,3.9
		c-2.9-2.6-6-3.9-9.4-3.9h-1l-1,14h1.1C13.7,22.8,17.4,24.8,19.4,26.8z M29.2,20.8c-3.2,0.3-6.1,1.6-8.1,3.1v-9.3
		c2.3-2.2,4.8-3.4,7.4-3.7L29.2,20.8z M11.6,10.9c2.6,0.2,5.1,1.5,7.4,3.7v9.3c-2.1-1.5-5.1-2.8-8.1-3.1L11.6,10.9z"/>
</g>
</svg>
