<?xml version="1.0" encoding="utf-8"?>
<!-- Generator: Adobe Illustrator 19.0.0, SVG Export Plug-In . SVG Version: 6.00 Build 0)  -->
<svg version="1.1" id="Layer_1" xmlns="http://www.w3.org/2000/svg" xmlns:xlink="http://www.w3.org/1999/xlink" x="0px" y="0px"
	 width="40px" height="40px" viewBox="0 0 40 40" enable-background="new 0 0 40 40" xml:space="preserve">
<path fill="none" stroke="#174466" stroke-width="2.8" stroke-miterlimit="10" d="M20,34c-7.7,0-14-6.3-14-14S12.3,6,20,6
	s14,6.3,14,14S27.7,34,20,34z"/>
<path fill="#174466" d="M19.6,22.2L19.6,22.2c-2.5,0-4.5-2-4.5-4.5l0,0c0-2.5,2-4.5,4.5-4.5l0,0c2.5,0,4.5,2,4.5,4.5l0,0
	C24.2,20.2,22.1,22.2,19.6,22.2z M30,29.4c0.5,0.7,0.4,1.7-0.2,2.2c-2.6,2.2-6.1,3.6-9.8,3.6c-4.2,0-8.1-1.7-10.8-4.5l0,0
	c1.6-2.9,4.7-4.8,8.2-4.8h5.3C25.7,25.7,28.3,27.2,30,29.4z"/>
</svg>
