<?xml version="1.0" encoding="utf-8"?>
<!-- Generator: Adobe Illustrator 19.0.0, SVG Export Plug-In . SVG Version: 6.00 Build 0)  -->
<svg version="1.1" id="Layer_1" xmlns="http://www.w3.org/2000/svg" xmlns:xlink="http://www.w3.org/1999/xlink" x="0px" y="0px"
	 width="40px" height="40px" viewBox="0 0 40 40" enable-background="new 0 0 40 40" xml:space="preserve">
<path id="XMLID_4_" fill="#B3E8CD" d="M20,0c4.5,2.7,6.4,8.2,6.4,8.2s-3.6,1.4-6.4,4.5c-2.3,0-4.4,1.2-5.7,2.9h0
	c-0.9,1.2-1.6,2.7-1.6,4.3h0c-3.1-2.8-4.5-6.4-4.5-6.4S2.7,15.5,0,20h0C0,9,9,0,20,0z"/>
<path fill="#FF99CC" d="M31.8,26.4c0,0-1.4-3.6-4.5-6.4c0,1.6-0.6,3.1-1.5,4.3c-1.3,1.8-3.4,3-5.8,3c-2.8,3.1-6.4,4.5-6.4,4.5
	s1.9,5.4,6.4,8.2c11,0,20-9,20-20C37.3,24.5,31.8,26.4,31.8,26.4z"/>
<path fill="#99D8FF" d="M27.3,20c0-2.3-1.2-4.4-2.9-5.7c-1.2-0.9-2.7-1.6-4.3-1.6c2.8-3.1,6.4-4.5,6.4-4.5S24.5,2.7,20,0
	c11,0,20,9,20,20v0c-2.7,4.5-8.2,6.4-8.2,6.4S30.4,22.8,27.3,20L27.3,20z"/>
<path fill="#FFF4A4" d="M13.6,31.8c0,0,3.6-1.4,6.4-4.5c-1.6,0-3.1-0.6-4.3-1.6l0,0c-1.7-1.3-2.9-3.4-2.9-5.7h0
	c-3.1-2.8-4.5-6.4-4.5-6.4S2.7,15.5,0,20h0c0,0,0,0,0,0c0,0,0,0,0,0h0c0,11,9,20,20,20C15.5,37.3,13.6,31.8,13.6,31.8z"/>
</svg>
