<?xml version="1.0" encoding="utf-8"?>
<!-- Generator: Adobe Illustrator 19.0.0, SVG Export Plug-In . SVG Version: 6.00 Build 0)  -->
<svg version="1.1" id="Layer_1" xmlns="http://www.w3.org/2000/svg" xmlns:xlink="http://www.w3.org/1999/xlink" x="0px" y="0px"
	 width="40px" height="40px" viewBox="0 0 40 40" enable-background="new 0 0 40 40" xml:space="preserve">
<path id="XMLID_121_" fill="#747E87" d="M23.6,33.1v-7.6c0-0.7-0.6-1.3-1.3-1.3h-5.1c-0.7,0-1.3,0.6-1.3,1.3v7.6
	c0,0.7-0.6,1.3-1.3,1.3l-7.6,0c-0.7,0-1.3-0.6-1.3-1.3v0V18.4c0-0.4,0.2-0.7,0.4-0.9L19,5.9c0.5-0.4,1.2-0.4,1.7,0l12.7,11.6
	c0.3,0.2,0.4,0.6,0.4,0.9v14.7c0,0.7-0.6,1.3-1.3,1.3h0l-7.6,0C24.2,34.4,23.6,33.8,23.6,33.1z"/>
</svg>
