<?xml version="1.0" encoding="utf-8"?>
<!-- Generator: Adobe Illustrator 19.0.0, SVG Export Plug-In . SVG Version: 6.00 Build 0)  -->
<svg version="1.1" id="Layer_1" xmlns="http://www.w3.org/2000/svg" xmlns:xlink="http://www.w3.org/1999/xlink" x="0px" y="0px"
	 width="40px" height="40px" viewBox="0 0 40 40" enable-background="new 0 0 40 40" xml:space="preserve">
<rect id="XMLID_2_" fill="none" width="40" height="40"/>
<path id="XMLID_3_" fill="#BDCCD4" d="M28.9,5.8l-4.3,4.3l0.9,4.4l4.4,0.9l4.3-4.3l0,0c2.2,5.1-0.2,11-5.3,13.1
	c-2.8,1.2-6,1-8.7-0.5l0,0l-9.5,9.4l-2.2,2.2l-3.9-3.9l2.2-2.2l9.5-9.5l0,0C13.6,15,15.3,8.9,20.2,6.2C22.9,4.8,26.1,4.6,28.9,5.8
	L28.9,5.8z"/>
<path id="XMLID_5_" fill="none" stroke="#3F4344" stroke-width="1.5" stroke-miterlimit="10" d="M17.8,21.5l-1.5-1.7
	c-0.5-0.9-0.8-1.8-1-2.7c-0.2-1-0.3-2-0.2-3c0.2-2.7,1.5-5.2,3.7-7c0.4-0.4,0.9-0.7,1.5-1c1-0.6,2.2-1,3.3-1.1c0.1,0,0.2,0,0.4,0
	c1.7-0.2,3.4,0,5.1,0.7l0,0l-4.3,4.3l0.9,4.4l4.4,0.9l4.3-4.3l0,0c1.9,4.5,0.2,9.7-3.7,12.3"/>
<path id="XMLID_4_" fill="none" stroke="#3F4344" stroke-width="1.5" stroke-miterlimit="10" d="M26.8,24.8c-2.3,0.4-4.6,0-6.6-1.1
	l0,0l-9.5,9.4l-1.5,1.5l-0.7,0.7l-3.9-3.9l2.2-2.2l3.6-3.6l1.6-1.6"/>
</svg>
