<?xml version="1.0" encoding="utf-8"?>
<!-- Generator: Adobe Illustrator 19.0.0, SVG Export Plug-In . SVG Version: 6.00 Build 0)  -->
<svg version="1.1" id="Layer_1" xmlns="http://www.w3.org/2000/svg" xmlns:xlink="http://www.w3.org/1999/xlink" x="0px" y="0px"
	 width="40px" height="40px" viewBox="0 0 40 40" enable-background="new 0 0 40 40" xml:space="preserve">
<path id="XMLID_19_" fill="#E9E9E0" d="M25.8,1.8H7c-0.5,0-0.9,0.4-0.9,1.2v24.1h27.9V10.3c0-0.5-0.1-0.6-0.2-0.7L26.2,2
	C26.1,1.9,26,1.8,25.8,1.8z"/>
<polygon id="XMLID_18_" fill="#D9D7CA" points="26.2,1.9 26.2,9.6 33.9,9.6 "/>
<path id="XMLID_12_" fill="#CC4B4C" d="M14.5,23.5L14.5,23.5c-0.2,0-0.4-0.1-0.6-0.2c-0.7-0.5-0.8-1.1-0.7-1.5
	c0.1-1.1,1.4-2.2,3.9-3.3c1-2.1,1.9-4.8,2.5-7c-0.6-1.4-1.3-3.2-0.8-4.3c0.2-0.4,0.4-0.7,0.7-0.8c0.1,0,0.5-0.1,0.7-0.1
	c0.3,0,0.6,0.4,0.8,0.7c0.2,0.2,0.6,0.8-0.2,4.4c0.9,1.8,2.1,3.6,3.3,4.9c0.9-0.2,1.6-0.2,2.2-0.2c1,0,1.6,0.2,1.9,0.7
	c0.2,0.4,0.1,0.9-0.3,1.4c-0.4,0.5-0.9,0.8-1.4,0.8c-0.8,0-1.7-0.5-2.7-1.5c-1.8,0.4-4,1.1-5.7,1.8c-0.5,1.2-1.1,2.1-1.5,2.8
	C15.6,23,15.1,23.5,14.5,23.5z M16.2,20.1c-1.4,0.8-2,1.4-2,1.8c0,0.1,0,0.2,0.3,0.4C14.6,22.3,15.2,22.1,16.2,20.1z M25.1,17.2
	c0.5,0.4,0.7,0.6,1,0.6c0.2,0,0.6,0,0.8-0.3c0.1-0.1,0.1-0.2,0.1-0.3c-0.1,0-0.2-0.1-0.8-0.1C25.9,17.2,25.5,17.2,25.1,17.2z
	 M20.2,13c-0.5,1.6-1.1,3.3-1.7,4.9c1.4-0.5,2.8-1,4.2-1.3C21.8,15.6,21,14.3,20.2,13z M19.8,7.5c-0.1,0-0.9,1.1,0.1,2.1
	C20.5,8.2,19.9,7.5,19.8,7.5z"/>
<g id="XMLID_1_">
	<path id="XMLID_2_" fill="#CC4B4C" d="M15,30.9c-0.1-0.1-0.2-0.2-0.4-0.3c-0.2-0.1-0.4-0.1-0.7-0.1h-0.8v2.6h1c0.1,0,0.3,0,0.4-0.1
		c0.1,0,0.2-0.1,0.4-0.2c0.1-0.1,0.2-0.2,0.3-0.4c0.1-0.2,0.1-0.4,0.1-0.7c0-0.1,0-0.2,0-0.4C15.1,31.2,15,31.1,15,30.9z"/>
	<path id="XMLID_11_" fill="#CC4B4C" d="M21.1,31.2c-0.2-0.2-0.4-0.4-0.8-0.5s-0.7-0.2-1.2-0.2h-0.6v4.9h1.1c0.7,0,1.2-0.2,1.6-0.7
		s0.5-1.1,0.5-2c0-0.3,0-0.5-0.1-0.8C21.5,31.7,21.3,31.4,21.1,31.2z"/>
	<path id="XMLID_22_" fill="#CC4B4C" d="M6.1,27.1v10.1c0,0.5,0.4,0.9,0.9,0.9h26c0.5,0,0.9-0.4,0.9-0.9V27.1H6.1z M16,32.6
		c-0.1,0.3-0.3,0.5-0.5,0.7s-0.4,0.3-0.7,0.4c-0.3,0.1-0.6,0.2-0.9,0.2h-0.8v2.4H12v-6.5h1.9c0.3,0,0.6,0,0.8,0.1
		c0.3,0.1,0.5,0.2,0.7,0.4s0.4,0.4,0.5,0.6c0.1,0.3,0.2,0.5,0.2,0.8C16.2,32,16.2,32.3,16,32.6z M22.6,34.1c-0.1,0.4-0.3,0.7-0.4,1
		c-0.2,0.3-0.4,0.5-0.6,0.6S21.1,36,20.9,36c-0.2,0.1-0.4,0.1-0.6,0.1c-0.2,0-0.3,0-0.4,0h-2.5v-6.5h2c0.6,0,1,0.1,1.5,0.3
		c0.4,0.2,0.8,0.4,1,0.7s0.5,0.6,0.6,1c0.1,0.4,0.2,0.8,0.2,1.1C22.7,33.3,22.7,33.8,22.6,34.1z M28.4,30.5h-3v2.1h2.7v0.7h-2.7v2.9
		h-1.1v-6.5h4.1V30.5z"/>
</g>
</svg>
