<?xml version="1.0" encoding="utf-8"?>
<!-- Generator: Adobe Illustrator 19.0.0, SVG Export Plug-In . SVG Version: 6.00 Build 0)  -->
<svg version="1.1" id="Layer_1" xmlns="http://www.w3.org/2000/svg" xmlns:xlink="http://www.w3.org/1999/xlink" x="0px" y="0px"
	 width="40px" height="40px" viewBox="0 0 40 40" enable-background="new 0 0 40 40" xml:space="preserve">
<rect id="XMLID_3_" fill="none" width="40" height="40"/>
<circle id="XMLID_2_" cx="20" cy="6.9" r="4.4"/>
<path id="XMLID_1_" d="M24,21l5.4,4.2c0.7,0.7,1.9,0.7,2.7,0c0.7-0.7,0.7-1.9,0-2.7l-6.2-8c-0.6-0.6-1.4-0.9-2.2-0.9h-7.5
	c-0.8,0-1.6,0.3-2.2,0.9l-6.2,8c-0.7,0.7-0.7,1.9,0,2.7s1.9,0.7,2.7,0l5.4-4.2l-4.3,13.7c-0.4,0.9,0,2.1,0.9,2.5
	c0.9,0.4,2.1,0,2.5-0.9l0,0l5-7.9l0,0l5,7.9c0.4,0.9,1.6,1.3,2.5,0.9c0.9-0.4,1.3-1.5,0.9-2.5L24,21z"/>
</svg>
