<?xml version="1.0" encoding="utf-8"?>
<!-- Generator: Adobe Illustrator 19.0.0, SVG Export Plug-In . SVG Version: 6.00 Build 0)  -->
<svg version="1.1" id="Layer_1" xmlns="http://www.w3.org/2000/svg" xmlns:xlink="http://www.w3.org/1999/xlink" x="0px" y="0px"
	 width="74px" height="60px" viewBox="0 0 74 60" enable-background="new 0 0 74 60" xml:space="preserve">
<g id="XMLID_6698_">
	<circle id="XMLID_6700_" fill="#929EAC" stroke="#929EAC" stroke-width="2" stroke-miterlimit="10" cx="25.5" cy="29.7" r="20.5"/>
</g>
<g id="XMLID_6683_">
	<g>
		<g>
			<defs>
				<circle id="SVGID_1_" cx="25.5" cy="29.7" r="20.5"/>
			</defs>
			<clipPath id="SVGID_2_">
				<use xlink:href="#SVGID_1_"  overflow="visible"/>
			</clipPath>
			<g transform="matrix(1 0 0 1 -3.814697e-006 0)" clip-path="url(#SVGID_2_)">
			</g>
		</g>
	</g>
</g>
<g id="XMLID_6616_">
	<circle id="XMLID_6619_" fill="#929EAC" stroke="#747E87" stroke-width="4" stroke-miterlimit="10" cx="25.5" cy="29.7" r="20.5"/>
</g>
<g id="XMLID_655_">
	<g id="XMLID_1399_">
		
			<circle id="XMLID_1959_" fill="#929EAC" stroke="#747E87" stroke-width="4" stroke-miterlimit="10" cx="49.5" cy="29.7" r="20.5"/>
	</g>
	<g id="XMLID_1385_">
		<g>
			<defs>
				<circle id="SVGID_3_" cx="49.4" cy="29.7" r="20.5"/>
			</defs>
			<clipPath id="SVGID_4_">
				<use xlink:href="#SVGID_3_"  overflow="visible"/>
			</clipPath>
			<g transform="matrix(1 0 0 1 0 0)" clip-path="url(#SVGID_4_)">
				
					<image overflow="visible" enable-background="new    " width="131" height="131" id="XMLID_1392_" xlink:href="233569B4.jpg"  transform="matrix(0.313 0 0 0.313 28.9667 9.2)">
				</image>
			</g>
		</g>
	</g>
	<g id="XMLID_1307_">
		<g id="XMLID_1367_">
			
				<circle id="XMLID_1370_" fill="#929EAC" stroke="#747E87" stroke-width="4" stroke-miterlimit="10" cx="25.6" cy="29.7" r="20.5"/>
		</g>
		<g id="XMLID_1343_">
			<g>
				<defs>
					<circle id="SVGID_5_" cx="25.5" cy="29.7" r="20.5"/>
				</defs>
				<clipPath id="SVGID_6_">
					<use xlink:href="#SVGID_5_"  overflow="visible"/>
				</clipPath>
				<g transform="matrix(1 0 0 1 0 0)" clip-path="url(#SVGID_6_)">
					
						<image overflow="visible" enable-background="new    " width="128" height="128" id="XMLID_1364_" xlink:href="233569B5.jpg"  transform="matrix(0.3186 -3.294656e-002 3.294656e-002 0.3186 3.1055 11.4113)">
					</image>
				</g>
			</g>
		</g>
	</g>
</g>
</svg>
