<?xml version="1.0" encoding="utf-8"?>
<!-- Generator: Adobe Illustrator 19.0.0, SVG Export Plug-In . SVG Version: 6.00 Build 0)  -->
<svg version="1.1" id="Layer_1" xmlns="http://www.w3.org/2000/svg" xmlns:xlink="http://www.w3.org/1999/xlink" x="0px" y="0px"
	 width="89.7px" height="74.6px" viewBox="0 0 89.7 74.6" enable-background="new 0 0 89.7 74.6" xml:space="preserve">
<g id="XMLID_610_">
	<linearGradient id="XMLID_34_" gradientUnits="userSpaceOnUse" x1="10.391" y1="73.6565" x2="10.391" y2="56.225">
		<stop  offset="0.1201" style="stop-color:#466FB6"/>
		<stop  offset="0.2482" style="stop-color:#3271B5"/>
		<stop  offset="0.4401" style="stop-color:#4F85C0"/>
		<stop  offset="0.6312" style="stop-color:#6394C7"/>
		<stop  offset="0.8191" style="stop-color:#709CCC"/>
		<stop  offset="1" style="stop-color:#749FCD"/>
	</linearGradient>
	<path id="XMLID_1393_" fill="url(#XMLID_34_)" d="M7.5,72.9c2.8,1.6,6.3,0.7,7.9-2.1c1.1-1.9,1-4.1,0-5.8l-5-8.7l-5,8.7
		C3.8,67.7,4.7,71.3,7.5,72.9"/>
	<path id="XMLID_1368_" fill="#BDCCD4" stroke="#747E87" stroke-width="2.2128" stroke-miterlimit="10" d="M66.5,32.9l-47.7-0.6
		c-1.1,0-2,0.9-2,2v7.8h1.9c0.8,0,1.4,0.7,1.4,1.4v3.8c0,0.8-0.7,1.4-1.4,1.4H3.4c-0.8,0-1.4-0.7-1.4-1.4v-3.8
		c0-0.8,0.7-1.4,1.4-1.4h1.9v-13c0-5.2,4.2-9.5,9.5-9.5h53.6"/>
	<g id="XMLID_1293_">
		
			<rect id="XMLID_1306_" x="28.7" y="6.7" fill="#BDCCD4" stroke="#747E87" stroke-width="2.2128" stroke-miterlimit="10" width="6.8" height="13"/>
	</g>
	<g id="XMLID_1250_">
		<path id="XMLID_1254_" fill="#BDCCD4" stroke="#747E87" stroke-width="2.2128" stroke-miterlimit="10" d="M21,6.7h22.3
			c1.3,0,2.4-1.1,2.4-2.4S44.6,2,43.3,2H21c-1.3,0-2.4,1.1-2.4,2.4S19.7,6.7,21,6.7z"/>
	</g>
	<g id="XMLID_805_">
		<path id="XMLID_1242_" fill="#BDCCD4" stroke="#747E87" stroke-width="2.2128" stroke-miterlimit="10" d="M27.3,35.7H37
			c2,0,3.7-1.7,3.7-3.7V19.7c0-1.2-1-2.1-2.1-2.1H25.7c-1.2,0-2.1,1-2.1,2.1V32C23.6,34,25.2,35.7,27.3,35.7z"/>
	</g>
	
		<line id="XMLID_685_" fill="#BDCCD4" stroke="#747E87" stroke-width="2.2128" stroke-miterlimit="10" x1="4.8" y1="42.2" x2="9.8" y2="42.2"/>
	<g id="XMLID_642_">
		<path id="XMLID_22_" fill="#BDCCD4" d="M74.8,39c-6.9,0-12.5-5.6-12.5-12.5s5.6-12.5,12.5-12.5s12.5,5.6,12.5,12.5
			S81.7,39,74.8,39z"/>
		<g id="XMLID_18_">
			<path id="XMLID_19_" fill="#747E87" d="M74.8,15.2c6.2,0,11.2,5,11.2,11.2c0,6.2-5,11.2-11.2,11.2c-6.2,0-11.2-5-11.2-11.2
				C63.6,20.3,68.6,15.2,74.8,15.2 M74.8,12.6L74.8,12.6c-7.6,0-13.8,6.2-13.8,13.8v0c0,7.6,6.2,13.8,13.8,13.8h0
				c7.6,0,13.8-6.2,13.8-13.8v0C88.6,18.8,82.5,12.6,74.8,12.6L74.8,12.6z"/>
		</g>
	</g>
</g>
</svg>
