<?xml version="1.0" encoding="utf-8"?>
<!-- Generator: Adobe Illustrator 19.0.0, SVG Export Plug-In . SVG Version: 6.00 Build 0)  -->
<svg version="1.1" id="Layer_1" xmlns="http://www.w3.org/2000/svg" xmlns:xlink="http://www.w3.org/1999/xlink" x="0px" y="0px"
	 width="40px" height="40px" viewBox="0 0 40 40" enable-background="new 0 0 40 40" xml:space="preserve">
<g id="XMLID_10409_">
	<path id="XMLID_10416_" fill="#FFFFFF" d="M20,5L20,5c8.3,0,15,6.7,15,15v0c0,8.3-6.7,15-15,15h0c-8.3,0-15-6.7-15-15v0
		C5,11.7,11.7,5,20,5z"/>
	<g id="XMLID_10410_">
		
			<line id="XMLID_10415_" fill="none" stroke="#3F4344" stroke-width="1.5" stroke-miterlimit="10" x1="26.9" y1="14" x2="13.1" y2="14"/>
		
			<line id="XMLID_10414_" fill="none" stroke="#3F4344" stroke-width="1.5" stroke-miterlimit="10" x1="18.1" y1="17.8" x2="18.1" y2="22.8"/>
		
			<line id="XMLID_10413_" fill="none" stroke="#3F4344" stroke-width="1.5" stroke-miterlimit="10" x1="21.9" y1="17.8" x2="21.9" y2="22.8"/>
		<path id="XMLID_10412_" fill="none" stroke="#3F4344" stroke-width="1.5" stroke-miterlimit="10" d="M25.6,14v11.9
			c0,0.3-0.3,0.6-0.6,0.6H15c-0.3,0-0.6-0.3-0.6-0.6V14"/>
		<path id="XMLID_10411_" fill="none" stroke="#3F4344" stroke-width="1.5" stroke-miterlimit="10" d="M23.1,14v-1.3
			c0-0.7-0.6-1.3-1.3-1.3h-3.8c-0.7,0-1.3,0.6-1.3,1.3V14"/>
	</g>
</g>
</svg>
