<?xml version="1.0" encoding="utf-8"?>
<!-- Generator: Adobe Illustrator 19.0.0, SVG Export Plug-In . SVG Version: 6.00 Build 0)  -->
<svg version="1.1" id="Layer_1" xmlns="http://www.w3.org/2000/svg" xmlns:xlink="http://www.w3.org/1999/xlink" x="0px" y="0px"
	 width="40px" height="40px" viewBox="0 0 40 40" enable-background="new 0 0 40 40" xml:space="preserve">
<g id="XMLID_5326_">
	<g id="XMLID_5330_">
		<g id="XMLID_5357_">
			<g id="XMLID_6064_">
				<g id="XMLID_6065_">
					<path id="XMLID_6111_" fill="#1A61AD" stroke="#1A61AD" stroke-miterlimit="10" d="M25.4,38.3c-0.7,0-1.2-0.5-1.2-1.2
						c0-5.1-2.2-12.6-7.2-17.6c-0.5-0.5-0.5-1.3,0-1.7c0.5-0.5,1.3-0.5,1.7,0c5.5,5.5,8,13.7,8,19.3C26.6,37.8,26.1,38.3,25.4,38.3z
						"/>
				</g>
			</g>
			<g id="XMLID_5358_">
				<g id="XMLID_5361_">
					<path id="XMLID_6062_" fill="#1A61AD" stroke="#1A61AD" stroke-miterlimit="10" d="M15.8,24.9C15.8,24.9,15.8,24.9,15.8,24.9
						c-0.7,0-1.3-0.6-1.2-1.3l0.2-7c0-0.3,0.2-0.7,0.4-0.9c0.3-0.2,0.6-0.3,0.9-0.3l6.8,0.8c0.7,0.1,1.2,0.7,1.1,1.4
						c-0.1,0.7-0.7,1.2-1.4,1.1L17.2,18l-0.2,5.7C17,24.4,16.5,24.9,15.8,24.9z"/>
				</g>
			</g>
		</g>
		<g id="XMLID_5346_">
			<g id="XMLID_5347_">
				<path id="XMLID_5353_" fill="#1A61AD" d="M26.1,19.1"/>
			</g>
		</g>
		<g id="XMLID_5331_">
			<g id="XMLID_5333_">
				<g id="XMLID_5334_">
					<path id="XMLID_5345_" fill="#1A61AD" d="M9.6,12.8c-3.4,0.8-5.7,4-5.4,7.4c0.3,3.8,3.8,6.7,7.6,6.4c1-0.1,1.9,0.7,2,1.7
						c0.1,1-0.7,1.9-1.7,2c-0.3,0-0.6,0-0.9,0c-5.4,0-10.1-4.2-10.6-9.7c-0.4-4.9,2.6-9.5,7.2-11c1.6-4.6,5.7-7.9,10.6-8.3
						c3.3-0.3,6.5,0.7,9.1,2.9c2.1,1.8,3.5,4.1,4.1,6.8c4.1,0.4,7.5,3.8,7.9,8c0.4,4.9-3.2,9.2-8.1,9.6c-1,0.1-1.9-0.7-2-1.7
						c-0.1-1,0.7-1.9,1.7-2c2.9-0.3,5-2.8,4.8-5.7s-2.8-5-5.7-4.8c-0.5,0-1-0.1-1.3-0.4c-0.4-0.3-0.6-0.8-0.6-1.2
						c-0.2-2.3-1.3-4.4-3.1-6c-1.8-1.5-4.1-2.2-6.4-2c-3.7,0.3-6.8,3-7.7,6.6C10.8,12.1,10.3,12.6,9.6,12.8"/>
				</g>
			</g>
		</g>
	</g>
</g>
</svg>
