<?xml version="1.0" encoding="utf-8"?>
<!-- Generator: Adobe Illustrator 19.0.0, SVG Export Plug-In . SVG Version: 6.00 Build 0)  -->
<svg version="1.1" id="Layer_1" xmlns="http://www.w3.org/2000/svg" xmlns:xlink="http://www.w3.org/1999/xlink" x="0px" y="0px"
	 width="40px" height="40px" viewBox="0 0 40 40" enable-background="new 0 0 40 40" xml:space="preserve">
<g id="XMLID_2_">
	<path id="XMLID_6_" fill="#4069B1" d="M22.1,18.8c0.4,0,0.7-0.1,1-0.3c0.3-0.2,0.5-0.5,0.5-0.9c0.1-0.7-0.4-1.4-1.2-1.5l-5.3-0.6
		c-0.4,0-0.7,0.1-1,0.3c-0.3,0.2-0.4,0.6-0.5,0.9l-0.2,5.4c0,0.7,0.5,1.3,1.3,1.4h0c0.7,0,1.3-0.6,1.3-1.3l0.1-2.1
		c3.2,3.7,4.6,8.8,4.6,12.3c0,0.7,0.6,1.3,1.3,1.3c0.7,0,1.3-0.6,1.3-1.3c0-4.1-1.7-9.8-5.3-14L22.1,18.8z"/>
	<path id="XMLID_11_" fill="#4069B1" d="M35,18.6c-0.3-3.3-2.9-5.9-6.1-6.2c-0.5-2-1.6-3.9-3.2-5.2c-2-1.6-4.4-2.4-7-2.2
		c-3.8,0.3-7,2.9-8.2,6.4C7,12.6,4.7,16.1,5,19.9c0.4,4.3,4,7.5,8.2,7.5c0.2,0,0.5,0,0.7,0c0.8-0.1,1.3-0.7,1.3-1.5
		c-0.1-0.8-0.7-1.3-1.5-1.3c-3,0.3-5.6-1.9-5.8-4.9C7.6,17,9.4,14.5,12,13.9c0.5-0.1,0.9-0.5,1.1-1c0.7-2.8,3.1-4.8,6-5.1
		c1.8-0.2,3.5,0.4,4.9,1.6c1.4,1.2,2.2,2.8,2.4,4.6c0,0.4,0.2,0.7,0.5,0.9c0.3,0.2,0.6,0.4,1,0.3c2.2-0.2,4.2,1.4,4.4,3.7
		c0.2,2.2-1.4,4.2-3.7,4.4c-0.8,0.1-1.3,0.7-1.3,1.5c0.1,0.8,0.7,1.3,1.5,1.3C32.5,25.7,35.3,22.4,35,18.6z"/>
</g>
</svg>
