<svg width="512.016" height="512" xmlns="http://www.w3.org/2000/svg">

 <g>
  <title>background</title>
  <rect fill="none" id="canvas_background" height="402" width="582" y="-1" x="-1"/>
 </g>
 <g>
  <title>Layer 1</title>
  <path fill="#ffffff" id="svg_1" d="m192,213.33984c-58.81641,0 -106.66797,-47.84765 -106.66797,-106.66406c0,-58.8164 47.85156,-106.66797 106.66797,-106.66797s106.66797,47.85157 106.66797,106.66797c0,58.81641 -47.85156,106.66406 -106.66797,106.66406zm0,-181.33203c-41.17187,0 -74.66797,33.49219 -74.66797,74.66797c0,41.17188 33.4961,74.66406 74.66797,74.66406s74.66797,-33.49218 74.66797,-74.66406c0,-41.17578 -33.4961,-74.66797 -74.66797,-74.66797zm0,0"/>
  <path fill="#ffffff" id="svg_2" d="m368,448.00781l-352,0c-8.83203,0 -16,-7.16797 -16,-16l0,-74.66797c0,-55.87109 45.46094,-101.33203 101.33203,-101.33203l181.33594,0c55.87109,0 101.33203,45.46094 101.33203,101.33203l0,74.66797c0,8.83203 -7.16797,16 -16,16zm-336,-32l320,0l0,-58.66797c0,-38.22656 -31.10547,-69.33203 -69.33203,-69.33203l-181.33594,0c-38.22656,0 -69.33203,31.10547 -69.33203,69.33203l0,58.66797zm0,0"/>
  <path fill="#ffffff" id="svg_3" d="m496,218.67578l-181.33203,0c-8.83203,0 -16,-7.16797 -16,-16s7.16797,-16 16,-16l181.33203,0c8.83203,0 16,7.16797 16,16s-7.16797,16 -16,16zm0,0"/>
  <path fill="#ffffff" id="svg_4" d="m410.66797,304.00781c-4.09766,0 -8.19141,-1.55859 -11.30859,-4.6914c-6.25,-6.25391 -6.25,-16.38672 0,-22.63672l74.02734,-74.02735l-74.02734,-74.02734c-6.25,-6.25 -6.25,-16.38281 0,-22.63281s16.38281,-6.25 22.63671,0l85.33204,85.33203c6.25,6.25 6.25,16.38672 0,22.63672l-85.33204,85.33203c-3.13672,3.15625 -7.23437,4.71484 -11.32812,4.71484zm0,0"/>
 </g>
</svg>